solid OpenSCAD_Model
  facet normal -1 0 0
    outer loop
      vertex -10 39.0475 15.0544
      vertex -10 25 22
      vertex -10 48.8 22
    endloop
  endfacet
  facet normal -1 0 0
    outer loop
      vertex -10 25 0
      vertex -10 25 22
      vertex -10 37.4818 8.1943
    endloop
  endfacet
  facet normal -1 0 0
    outer loop
      vertex -10 25 0
      vertex -10 37.4818 8.1943
      vertex -10 48.8 0
    endloop
  endfacet
  facet normal -1 0 0
    outer loop
      vertex -10 44.5182 8.1943
      vertex -10 48.8 0
      vertex -10 41 6.5
    endloop
  endfacet
  facet normal -1 0 0
    outer loop
      vertex -10 37.4818 8.1943
      vertex -10 41 6.5
      vertex -10 48.8 0
    endloop
  endfacet
  facet normal -1 0 0
    outer loop
      vertex -10 39.0475 15.0544
      vertex -10 48.8 22
      vertex -10 42.9525 15.0544
    endloop
  endfacet
  facet normal -1 0 0
    outer loop
      vertex -10 48.8 0
      vertex -10 44.5182 8.1943
      vertex -10 48.8 22
    endloop
  endfacet
  facet normal -1 0 0
    outer loop
      vertex -10 44.5182 8.1943
      vertex -10 45.3872 12.0013
      vertex -10 48.8 22
    endloop
  endfacet
  facet normal -1 0 0
    outer loop
      vertex -10 45.3872 12.0013
      vertex -10 42.9525 15.0544
      vertex -10 48.8 22
    endloop
  endfacet
  facet normal -1 0 0
    outer loop
      vertex -10 36.6128 12.0013
      vertex -10 25 22
      vertex -10 39.0475 15.0544
    endloop
  endfacet
  facet normal -1 0 0
    outer loop
      vertex -10 37.4818 8.1943
      vertex -10 25 22
      vertex -10 36.6128 12.0013
    endloop
  endfacet
  facet normal -0.965926 -0.258819 0
    outer loop
      vertex -10 25 0
      vertex -9.59808 23.5 0
      vertex -10 25 22
    endloop
  endfacet
  facet normal -0.965926 -0.258819 0
    outer loop
      vertex -10 25 22
      vertex -9.59808 23.5 0
      vertex -9.59808 23.5 22
    endloop
  endfacet
  facet normal 0 0 -1
    outer loop
      vertex -10 25 0
      vertex -10 48.8 0
      vertex -9.59808 23.5 0
    endloop
  endfacet
  facet normal 0 0 -1
    outer loop
      vertex -9.59808 23.5 0
      vertex -10 48.8 0
      vertex -9.59808 50.3 0
    endloop
  endfacet
  facet normal 0 0 -1
    outer loop
      vertex -9.59808 23.5 0
      vertex -9.59808 50.3 0
      vertex -8.5 51.3981 0
    endloop
  endfacet
  facet normal 0 0 -1
    outer loop
      vertex -9.59808 23.5 0
      vertex -8.5 51.3981 0
      vertex -7 51.8 0
    endloop
  endfacet
  facet normal 0 0 -1
    outer loop
      vertex -9.59808 23.5 0
      vertex -7 51.8 0
      vertex -5.5 51.8 0
    endloop
  endfacet
  facet normal 0 0 -1
    outer loop
      vertex -9.59808 23.5 0
      vertex -5.5 51.8 0
      vertex -5.5 41 0
    endloop
  endfacet
  facet normal 0 0 -1
    outer loop
      vertex -9.59808 23.5 0
      vertex -5.5 41 0
      vertex -5.5 33.2999 0
    endloop
  endfacet
  facet normal 0 0 -1
    outer loop
      vertex -9.59808 23.5 0
      vertex -5.5 33.2999 0
      vertex 5.5 33.2999 0
    endloop
  endfacet
  facet normal 0 0 -1
    outer loop
      vertex 9.59808 23.5 0
      vertex -9.59808 23.5 0
      vertex 10 25 0
    endloop
  endfacet
  facet normal 0 0 -1
    outer loop
      vertex 5.5 48.7001 0
      vertex 5.5 51.8 0
      vertex 7 51.8 0
    endloop
  endfacet
  facet normal 0 0 -1
    outer loop
      vertex 5.5 48.7001 0
      vertex 7 51.8 0
      vertex 5.5 33.2999 0
    endloop
  endfacet
  facet normal 0 0 -1
    outer loop
      vertex 5.5 33.2999 0
      vertex 7 51.8 0
      vertex 8.5 51.3981 0
    endloop
  endfacet
  facet normal 0 0 -1
    outer loop
      vertex 5.5 33.2999 0
      vertex 8.5 51.3981 0
      vertex 9.59808 50.3 0
    endloop
  endfacet
  facet normal 0 0 -1
    outer loop
      vertex 5.5 33.2999 0
      vertex 9.59808 50.3 0
      vertex 10 48.8 0
    endloop
  endfacet
  facet normal 0 0 -1
    outer loop
      vertex 5.5 33.2999 0
      vertex 10 48.8 0
      vertex 10 25 0
    endloop
  endfacet
  facet normal 0 0 -1
    outer loop
      vertex 5.5 33.2999 0
      vertex 10 25 0
      vertex -9.59808 23.5 0
    endloop
  endfacet
  facet normal 0 0 -1
    outer loop
      vertex -9.59808 23.5 0
      vertex 9.59808 23.5 0
      vertex 8.5 22.4019 0
    endloop
  endfacet
  facet normal 0 0 -1
    outer loop
      vertex -9.59808 23.5 0
      vertex 8.5 22.4019 0
      vertex 7.4 22.1072 0
    endloop
  endfacet
  facet normal 0 0 -1
    outer loop
      vertex -9.59808 23.5 0
      vertex 7.4 22.1072 0
      vertex 7.4 22 0
    endloop
  endfacet
  facet normal 0 0 -1
    outer loop
      vertex -9.59808 23.5 0
      vertex 7.4 22 0
      vertex 6.33934 21.5607 0
    endloop
  endfacet
  facet normal 0 0 -1
    outer loop
      vertex 6.33934 21.5607 0
      vertex 5.9 20.5 0
      vertex -9.59808 23.5 0
    endloop
  endfacet
  facet normal 0 0 -1
    outer loop
      vertex -5.9 20.5 0
      vertex 5.9 20.5 0
      vertex 5.9 -23 0
    endloop
  endfacet
  facet normal 0 0 -1
    outer loop
      vertex -5.9 20.5 0
      vertex 5.9 -23 0
      vertex 5.31421 -24.4142 0
    endloop
  endfacet
  facet normal 0 0 -1
    outer loop
      vertex -5.9 20.5 0
      vertex 5.31421 -24.4142 0
      vertex 3.9 -25 0
    endloop
  endfacet
  facet normal 0 0 -1
    outer loop
      vertex -6.33934 21.5607 0
      vertex 5.9 20.5 0
      vertex -5.9 20.5 0
    endloop
  endfacet
  facet normal 0 0 -1
    outer loop
      vertex -9.59808 23.5 0
      vertex 5.9 20.5 0
      vertex -6.33934 21.5607 0
    endloop
  endfacet
  facet normal 0 0 -1
    outer loop
      vertex -8.5 22.4019 0
      vertex -9.59808 23.5 0
      vertex -7.4 22.1072 0
    endloop
  endfacet
  facet normal 0 0 -1
    outer loop
      vertex -7.4 22.1072 0
      vertex -6.33934 21.5607 0
      vertex -7.4 22 0
    endloop
  endfacet
  facet normal 0 0 -1
    outer loop
      vertex -9.59808 23.5 0
      vertex -6.33934 21.5607 0
      vertex -7.4 22.1072 0
    endloop
  endfacet
  facet normal 0 0 -1
    outer loop
      vertex -5.9 20.5 0
      vertex 3.9 -25 0
      vertex -3.9 -25 0
    endloop
  endfacet
  facet normal 0 0 -1
    outer loop
      vertex -5.9 20.5 0
      vertex -3.9 -25 0
      vertex -5.31421 -24.4142 0
    endloop
  endfacet
  facet normal 0 0 -1
    outer loop
      vertex -5.9 20.5 0
      vertex -5.31421 -24.4142 0
      vertex -5.9 -23 0
    endloop
  endfacet
  facet normal 0 0 1
    outer loop
      vertex -10 48.8 22
      vertex -10 25 22
      vertex -9.59808 23.5 22
    endloop
  endfacet
  facet normal 0 0 1
    outer loop
      vertex -7.4 22.1072 22
      vertex -10 48.8 22
      vertex -8.5 22.4019 22
    endloop
  endfacet
  facet normal 0 0 1
    outer loop
      vertex -8.5 22.4019 22
      vertex -10 48.8 22
      vertex -9.59808 23.5 22
    endloop
  endfacet
  facet normal 0 0 1
    outer loop
      vertex -6.33934 21.5607 22
      vertex -10 48.8 22
      vertex -7.4 22.1072 22
    endloop
  endfacet
  facet normal 0 0 1
    outer loop
      vertex -6.33934 21.5607 22
      vertex -7.4 22.1072 22
      vertex -7.4 22 22
    endloop
  endfacet
  facet normal 0 0 1
    outer loop
      vertex -5.9 20.5 22
      vertex -10 48.8 22
      vertex -6.33934 21.5607 22
    endloop
  endfacet
  facet normal 0 0 1
    outer loop
      vertex 3.9 -25 22
      vertex -10 48.8 22
      vertex -5.9 20.5 22
    endloop
  endfacet
  facet normal 0 0 1
    outer loop
      vertex -5.31421 -24.4142 22
      vertex -5.9 20.5 22
      vertex -5.9 -23 22
    endloop
  endfacet
  facet normal 0 0 1
    outer loop
      vertex -3.9 -25 22
      vertex -5.9 20.5 22
      vertex -5.31421 -24.4142 22
    endloop
  endfacet
  facet normal 0 0 1
    outer loop
      vertex 3.9 -25 22
      vertex -5.9 20.5 22
      vertex -3.9 -25 22
    endloop
  endfacet
  facet normal 0 0 1
    outer loop
      vertex 5.31421 -24.4142 22
      vertex -10 48.8 22
      vertex 3.9 -25 22
    endloop
  endfacet
  facet normal 0 0 1
    outer loop
      vertex 5.9 -23 22
      vertex -10 48.8 22
      vertex 5.31421 -24.4142 22
    endloop
  endfacet
  facet normal 0 0 1
    outer loop
      vertex -5.5 33.2999 22
      vertex -10 48.8 22
      vertex 5.9 -23 22
    endloop
  endfacet
  facet normal 0 0 1
    outer loop
      vertex -5.5 33.2999 22
      vertex -5.5 48.7001 22
      vertex -10 48.8 22
    endloop
  endfacet
  facet normal 0 0 1
    outer loop
      vertex 5.5 33.2999 22
      vertex 7.4 22.1072 22
      vertex 8.5 22.4019 22
    endloop
  endfacet
  facet normal 0 0 1
    outer loop
      vertex 5.5 33.2999 22
      vertex 7.4 22 22
      vertex 7.4 22.1072 22
    endloop
  endfacet
  facet normal 0 0 1
    outer loop
      vertex 5.5 33.2999 22
      vertex 6.33934 21.5607 22
      vertex 7.4 22 22
    endloop
  endfacet
  facet normal 0 0 1
    outer loop
      vertex 5.5 33.2999 22
      vertex 5.9 20.5 22
      vertex 6.33934 21.5607 22
    endloop
  endfacet
  facet normal 0 0 1
    outer loop
      vertex 10 48.8 22
      vertex 5.5 41 22
      vertex 10 25 22
    endloop
  endfacet
  facet normal 0 0 1
    outer loop
      vertex 5.5 41 22
      vertex 5.5 33.2999 22
      vertex 10 25 22
    endloop
  endfacet
  facet normal 0 0 1
    outer loop
      vertex -5.5 48.7001 22
      vertex -5.5 51.8 22
      vertex -10 48.8 22
    endloop
  endfacet
  facet normal 0 0 1
    outer loop
      vertex 5.9 20.5 22
      vertex -5.5 33.2999 22
      vertex 5.9 -23 22
    endloop
  endfacet
  facet normal 0 0 1
    outer loop
      vertex -9.59808 50.3 22
      vertex -10 48.8 22
      vertex -5.5 51.8 22
    endloop
  endfacet
  facet normal 0 0 1
    outer loop
      vertex 5.5 33.2999 22
      vertex 9.59808 23.5 22
      vertex 10 25 22
    endloop
  endfacet
  facet normal 0 0 1
    outer loop
      vertex 5.5 33.2999 22
      vertex 8.5 22.4019 22
      vertex 9.59808 23.5 22
    endloop
  endfacet
  facet normal 0 0 1
    outer loop
      vertex -9.59808 50.3 22
      vertex -7 51.8 22
      vertex -8.5 51.3981 22
    endloop
  endfacet
  facet normal 0 0 1
    outer loop
      vertex -9.59808 50.3 22
      vertex -5.5 51.8 22
      vertex -7 51.8 22
    endloop
  endfacet
  facet normal 0 0 1
    outer loop
      vertex 5.5 51.8 22
      vertex 8.5 51.3981 22
      vertex 7 51.8 22
    endloop
  endfacet
  facet normal 0 0 1
    outer loop
      vertex 5.5 51.8 22
      vertex 9.59808 50.3 22
      vertex 8.5 51.3981 22
    endloop
  endfacet
  facet normal 0 0 1
    outer loop
      vertex 5.5 51.8 22
      vertex 10 48.8 22
      vertex 9.59808 50.3 22
    endloop
  endfacet
  facet normal 0 0 1
    outer loop
      vertex 5.5 51.8 22
      vertex 5.5 41 22
      vertex 10 48.8 22
    endloop
  endfacet
  facet normal 0 0 1
    outer loop
      vertex 5.5 33.2999 22
      vertex -5.5 33.2999 22
      vertex 5.9 20.5 22
    endloop
  endfacet
  facet normal -3.94577e-17 0.974928 0.222521
    outer loop
      vertex -5.5 37.4818 8.1943
      vertex -10 37.4818 8.1943
      vertex -5.5 36.6128 12.0013
    endloop
  endfacet
  facet normal -3.94577e-17 0.974928 0.222521
    outer loop
      vertex -5.5 36.6128 12.0013
      vertex -10 37.4818 8.1943
      vertex -10 36.6128 12.0013
    endloop
  endfacet
  facet normal 1.10558e-16 0.781831 -0.62349
    outer loop
      vertex -5.5 39.0475 15.0544
      vertex -5.5 36.6128 12.0013
      vertex -10 39.0475 15.0544
    endloop
  endfacet
  facet normal 1.10558e-16 0.781831 -0.62349
    outer loop
      vertex -10 39.0475 15.0544
      vertex -5.5 36.6128 12.0013
      vertex -10 36.6128 12.0013
    endloop
  endfacet
  facet normal 1.77321e-16 0 -1
    outer loop
      vertex -5.5 42.9525 15.0544
      vertex -5.5 39.0475 15.0544
      vertex -10 42.9525 15.0544
    endloop
  endfacet
  facet normal 1.77321e-16 0 -1
    outer loop
      vertex -10 42.9525 15.0544
      vertex -5.5 39.0475 15.0544
      vertex -10 39.0475 15.0544
    endloop
  endfacet
  facet normal 1.10558e-16 -0.781831 -0.62349
    outer loop
      vertex -10 45.3872 12.0013
      vertex -5.5 45.3872 12.0013
      vertex -5.5 42.9525 15.0544
    endloop
  endfacet
  facet normal 1.10558e-16 -0.781831 -0.62349
    outer loop
      vertex -10 42.9525 15.0544
      vertex -10 45.3872 12.0013
      vertex -5.5 42.9525 15.0544
    endloop
  endfacet
  facet normal -3.94577e-17 -0.974928 0.222521
    outer loop
      vertex -5.5 44.5182 8.1943
      vertex -5.5 45.1586 11
      vertex -5.5 45.3872 12.0013
    endloop
  endfacet
  facet normal -3.94577e-17 -0.974928 0.222521
    outer loop
      vertex -10 44.5182 8.1943
      vertex -5.5 44.5182 8.1943
      vertex -10 45.3872 12.0013
    endloop
  endfacet
  facet normal -3.94577e-17 -0.974928 0.222521
    outer loop
      vertex -10 45.3872 12.0013
      vertex -5.5 44.5182 8.1943
      vertex -5.5 45.3872 12.0013
    endloop
  endfacet
  facet normal -1.59761e-16 -0.433884 0.900969
    outer loop
      vertex -5.5 41 6.5
      vertex -5.5 44.5182 8.1943
      vertex -10 44.5182 8.1943
    endloop
  endfacet
  facet normal -1.59761e-16 -0.433884 0.900969
    outer loop
      vertex -10 41 6.5
      vertex -5.5 41 6.5
      vertex -10 44.5182 8.1943
    endloop
  endfacet
  facet normal -1.59761e-16 0.433884 0.900969
    outer loop
      vertex -10 37.4818 8.1943
      vertex -5.5 37.4818 8.1943
      vertex -10 41 6.5
    endloop
  endfacet
  facet normal -1.59761e-16 0.433884 0.900969
    outer loop
      vertex -10 41 6.5
      vertex -5.5 37.4818 8.1943
      vertex -5.5 41 6.5
    endloop
  endfacet
  facet normal -0.707107 -0.707107 0
    outer loop
      vertex -9.59808 23.5 0
      vertex -8.5 22.4019 0
      vertex -9.59808 23.5 22
    endloop
  endfacet
  facet normal -0.707107 -0.707107 0
    outer loop
      vertex -9.59808 23.5 22
      vertex -8.5 22.4019 0
      vertex -8.5 22.4019 22
    endloop
  endfacet
  facet normal -0.258819 -0.965926 0
    outer loop
      vertex -8.5 22.4019 22
      vertex -8.5 22.4019 0
      vertex -7.4 22.1072 0
    endloop
  endfacet
  facet normal -0.258819 -0.965926 0
    outer loop
      vertex -7.4 22.1072 22
      vertex -8.5 22.4019 22
      vertex -7.4 22.1072 0
    endloop
  endfacet
  facet normal -1 0 0
    outer loop
      vertex -7.4 22 0
      vertex -7.4 22 22
      vertex -7.4 22.1072 0
    endloop
  endfacet
  facet normal -1 0 0
    outer loop
      vertex -7.4 22.1072 0
      vertex -7.4 22 22
      vertex -7.4 22.1072 22
    endloop
  endfacet
  facet normal -0.382684 -0.923879 0
    outer loop
      vertex -6.33934 21.5607 0
      vertex -6.33934 21.5607 22
      vertex -7.4 22 22
    endloop
  endfacet
  facet normal -0.382684 -0.923879 0
    outer loop
      vertex -7.4 22 0
      vertex -6.33934 21.5607 0
      vertex -7.4 22 22
    endloop
  endfacet
  facet normal -0.923879 -0.382684 0
    outer loop
      vertex -5.9 20.5 22
      vertex -6.33934 21.5607 22
      vertex -5.9 20.5 0
    endloop
  endfacet
  facet normal -0.923879 -0.382684 0
    outer loop
      vertex -5.9 20.5 0
      vertex -6.33934 21.5607 22
      vertex -6.33934 21.5607 0
    endloop
  endfacet
  facet normal -1 0 0
    outer loop
      vertex -5.9 -2 13.86
      vertex -5.9 -23 22
      vertex -5.9 20.5 22
    endloop
  endfacet
  facet normal -1 0 0
    outer loop
      vertex -5.9 -23 0
      vertex -5.9 -23 22
      vertex -5.9 -14 13.86
    endloop
  endfacet
  facet normal -1 0 0
    outer loop
      vertex -5.9 -23 0
      vertex -5.9 -14 13.86
      vertex -5.9 -14 8.14
    endloop
  endfacet
  facet normal -1 0 0
    outer loop
      vertex -5.9 -23 0
      vertex -5.9 -14 8.14
      vertex -5.9 20.5 0
    endloop
  endfacet
  facet normal -1 0 0
    outer loop
      vertex -5.9 -14 8.14
      vertex -5.9 -2 8.14
      vertex -5.9 20.5 0
    endloop
  endfacet
  facet normal -1 0 0
    outer loop
      vertex -5.9 -0.284 9.856
      vertex -5.9 20.5 0
      vertex -5.9 -2 8.14
    endloop
  endfacet
  facet normal -1 0 0
    outer loop
      vertex -5.9 20.5 0
      vertex -5.9 -0.284 12.144
      vertex -5.9 20.5 22
    endloop
  endfacet
  facet normal -1 0 0
    outer loop
      vertex -5.9 -0.284 12.144
      vertex -5.9 -2 13.86
      vertex -5.9 20.5 22
    endloop
  endfacet
  facet normal -1 0 0
    outer loop
      vertex -5.9 -14 13.86
      vertex -5.9 -23 22
      vertex -5.9 -2 13.86
    endloop
  endfacet
  facet normal -1 0 0
    outer loop
      vertex -5.9 -0.284 12.144
      vertex -5.9 20.5 0
      vertex -5.9 -0.284 9.856
    endloop
  endfacet
  facet normal -0.92388 -0.382683 0
    outer loop
      vertex -5.9 -23 0
      vertex -5.31421 -24.4142 0
      vertex -5.9 -23 22
    endloop
  endfacet
  facet normal -0.92388 -0.382683 0
    outer loop
      vertex -5.9 -23 22
      vertex -5.31421 -24.4142 0
      vertex -5.31421 -24.4142 22
    endloop
  endfacet
  facet normal -0.382683 -0.92388 0
    outer loop
      vertex -5.31421 -24.4142 22
      vertex -5.31421 -24.4142 0
      vertex -3.9 -25 0
    endloop
  endfacet
  facet normal -0.382683 -0.92388 0
    outer loop
      vertex -3.9 -25 22
      vertex -5.31421 -24.4142 22
      vertex -3.9 -25 0
    endloop
  endfacet
  facet normal 0 -1 0
    outer loop
      vertex -1.8373 -25 9.5348
      vertex -3.9 -25 0
      vertex 3.9 -25 0
    endloop
  endfacet
  facet normal 0 -1 0
    outer loop
      vertex 1.72327e-15 -25 8.65
      vertex -1.8373 -25 9.5348
      vertex 3.9 -25 0
    endloop
  endfacet
  facet normal 0 -1 0
    outer loop
      vertex -2.29108 -25 11.5229
      vertex -3.9 -25 0
      vertex -1.8373 -25 9.5348
    endloop
  endfacet
  facet normal 0 -1 0
    outer loop
      vertex -1.01963 -25 13.1173
      vertex 1.01963 -25 13.1173
      vertex -3.9 -25 22
    endloop
  endfacet
  facet normal 0 -1 0
    outer loop
      vertex -3.9 -25 22
      vertex -3.9 -25 0
      vertex -2.29108 -25 11.5229
    endloop
  endfacet
  facet normal 0 -1 0
    outer loop
      vertex 3.9 -25 22
      vertex -3.9 -25 22
      vertex 1.01963 -25 13.1173
    endloop
  endfacet
  facet normal 0 -1 0
    outer loop
      vertex 3.9 -25 22
      vertex 2.29108 -25 11.5229
      vertex 3.9 -25 0
    endloop
  endfacet
  facet normal 0 -1 0
    outer loop
      vertex 3.9 -25 22
      vertex 1.01963 -25 13.1173
      vertex 2.29108 -25 11.5229
    endloop
  endfacet
  facet normal 0 -1 0
    outer loop
      vertex 2.29108 -25 11.5229
      vertex 1.8373 -25 9.5348
      vertex 3.9 -25 0
    endloop
  endfacet
  facet normal 0 -1 0
    outer loop
      vertex -2.29108 -25 11.5229
      vertex -1.01963 -25 13.1173
      vertex -3.9 -25 22
    endloop
  endfacet
  facet normal 0 -1 0
    outer loop
      vertex 1.8373 -25 9.5348
      vertex 1.72327e-15 -25 8.65
      vertex 3.9 -25 0
    endloop
  endfacet
  facet normal 0.382683 -0.92388 0
    outer loop
      vertex 3.9 -25 22
      vertex 3.9 -25 0
      vertex 5.31421 -24.4142 0
    endloop
  endfacet
  facet normal 0.382683 -0.92388 0
    outer loop
      vertex 5.31421 -24.4142 22
      vertex 3.9 -25 22
      vertex 5.31421 -24.4142 0
    endloop
  endfacet
  facet normal 0.92388 -0.382683 0
    outer loop
      vertex 5.31421 -24.4142 22
      vertex 5.31421 -24.4142 0
      vertex 5.9 -23 0
    endloop
  endfacet
  facet normal 0.92388 -0.382683 0
    outer loop
      vertex 5.9 -23 22
      vertex 5.31421 -24.4142 22
      vertex 5.9 -23 0
    endloop
  endfacet
  facet normal 1 0 0
    outer loop
      vertex 5.9 -17.2 7.475
      vertex 5.9 -23 0
      vertex 5.9 20.5 0
    endloop
  endfacet
  facet normal 1 0 0
    outer loop
      vertex 5.9 -13.4 7.475
      vertex 5.9 -17.2 7.475
      vertex 5.9 20.5 0
    endloop
  endfacet
  facet normal 1 0 0
    outer loop
      vertex 5.9 -23 22
      vertex 5.9 -23 0
      vertex 5.9 -17.2 7.475
    endloop
  endfacet
  facet normal 1 0 0
    outer loop
      vertex 5.9 -13.4 8.14
      vertex 5.9 -13.4 7.475
      vertex 5.9 -2 8.14
    endloop
  endfacet
  facet normal 1 0 0
    outer loop
      vertex 5.9 -23 22
      vertex 5.9 -17.2 7.475
      vertex 5.9 -17.2 14.825
    endloop
  endfacet
  facet normal 1 0 0
    outer loop
      vertex 5.9 -23 22
      vertex 5.9 -17.2 14.825
      vertex 5.9 -13.4 14.825
    endloop
  endfacet
  facet normal 1 0 0
    outer loop
      vertex 5.9 20.5 22
      vertex 5.9 -2 13.86
      vertex 5.9 20.5 0
    endloop
  endfacet
  facet normal 1 0 0
    outer loop
      vertex 5.9 20.5 22
      vertex 5.9 -23 22
      vertex 5.9 -2 13.86
    endloop
  endfacet
  facet normal 1 0 0
    outer loop
      vertex 5.9 -2 13.86
      vertex 5.9 -0.284 12.144
      vertex 5.9 20.5 0
    endloop
  endfacet
  facet normal 1 0 0
    outer loop
      vertex 5.9 -0.284 9.856
      vertex 5.9 -2 8.14
      vertex 5.9 20.5 0
    endloop
  endfacet
  facet normal 1 0 0
    outer loop
      vertex 5.9 -2 8.14
      vertex 5.9 -13.4 7.475
      vertex 5.9 20.5 0
    endloop
  endfacet
  facet normal 1 0 0
    outer loop
      vertex 5.9 -0.284 12.144
      vertex 5.9 -0.284 9.856
      vertex 5.9 20.5 0
    endloop
  endfacet
  facet normal 1 0 0
    outer loop
      vertex 5.9 -13.4 14.825
      vertex 5.9 -2 13.86
      vertex 5.9 -23 22
    endloop
  endfacet
  facet normal 1 0 0
    outer loop
      vertex 5.9 -13.4 13.86
      vertex 5.9 -2 13.86
      vertex 5.9 -13.4 14.825
    endloop
  endfacet
  facet normal 0.923879 -0.382684 0
    outer loop
      vertex 5.9 20.5 22
      vertex 5.9 20.5 0
      vertex 6.33934 21.5607 0
    endloop
  endfacet
  facet normal 0.923879 -0.382684 0
    outer loop
      vertex 6.33934 21.5607 22
      vertex 5.9 20.5 22
      vertex 6.33934 21.5607 0
    endloop
  endfacet
  facet normal 0.382684 -0.923879 0
    outer loop
      vertex 6.33934 21.5607 22
      vertex 6.33934 21.5607 0
      vertex 7.4 22 0
    endloop
  endfacet
  facet normal 0.382684 -0.923879 0
    outer loop
      vertex 7.4 22 22
      vertex 6.33934 21.5607 22
      vertex 7.4 22 0
    endloop
  endfacet
  facet normal 1 0 0
    outer loop
      vertex 7.4 22.1072 0
      vertex 7.4 22.1072 22
      vertex 7.4 22 22
    endloop
  endfacet
  facet normal 1 0 0
    outer loop
      vertex 7.4 22 0
      vertex 7.4 22.1072 0
      vertex 7.4 22 22
    endloop
  endfacet
  facet normal 0.258819 -0.965926 0
    outer loop
      vertex 7.4 22.1072 22
      vertex 7.4 22.1072 0
      vertex 8.5 22.4019 0
    endloop
  endfacet
  facet normal 0.258819 -0.965926 0
    outer loop
      vertex 8.5 22.4019 22
      vertex 7.4 22.1072 22
      vertex 8.5 22.4019 0
    endloop
  endfacet
  facet normal 0.707107 -0.707107 0
    outer loop
      vertex 8.5 22.4019 22
      vertex 8.5 22.4019 0
      vertex 9.59808 23.5 0
    endloop
  endfacet
  facet normal 0.707107 -0.707107 0
    outer loop
      vertex 9.59808 23.5 22
      vertex 8.5 22.4019 22
      vertex 9.59808 23.5 0
    endloop
  endfacet
  facet normal 0.965926 -0.258819 0
    outer loop
      vertex 9.59808 23.5 22
      vertex 9.59808 23.5 0
      vertex 10 25 0
    endloop
  endfacet
  facet normal 0.965926 -0.258819 0
    outer loop
      vertex 10 25 22
      vertex 9.59808 23.5 22
      vertex 10 25 0
    endloop
  endfacet
  facet normal 1 0 0
    outer loop
      vertex 10 37.4818 8.1943
      vertex 10 25 0
      vertex 10 48.8 0
    endloop
  endfacet
  facet normal 1 0 0
    outer loop
      vertex 10 41 6.5
      vertex 10 37.4818 8.1943
      vertex 10 48.8 0
    endloop
  endfacet
  facet normal 1 0 0
    outer loop
      vertex 10 25 22
      vertex 10 25 0
      vertex 10 37.4818 8.1943
    endloop
  endfacet
  facet normal 1 0 0
    outer loop
      vertex 10 39.0475 15.0544
      vertex 10 25 22
      vertex 10 36.6128 12.0013
    endloop
  endfacet
  facet normal 1 0 0
    outer loop
      vertex 10 45.3872 12.0013
      vertex 10 44.5182 8.1943
      vertex 10 48.8 0
    endloop
  endfacet
  facet normal 1 0 0
    outer loop
      vertex 10 48.8 22
      vertex 10 25 22
      vertex 10 39.0475 15.0544
    endloop
  endfacet
  facet normal 1 0 0
    outer loop
      vertex 10 44.5182 8.1943
      vertex 10 41 6.5
      vertex 10 48.8 0
    endloop
  endfacet
  facet normal 1 0 0
    outer loop
      vertex 10 48.8 22
      vertex 10 45.3872 12.0013
      vertex 10 48.8 0
    endloop
  endfacet
  facet normal 1 0 0
    outer loop
      vertex 10 48.8 22
      vertex 10 42.9525 15.0544
      vertex 10 45.3872 12.0013
    endloop
  endfacet
  facet normal 1 0 0
    outer loop
      vertex 10 39.0475 15.0544
      vertex 10 42.9525 15.0544
      vertex 10 48.8 22
    endloop
  endfacet
  facet normal 1 0 0
    outer loop
      vertex 10 37.4818 8.1943
      vertex 10 36.6128 12.0013
      vertex 10 25 22
    endloop
  endfacet
  facet normal 0.965926 0.258819 0
    outer loop
      vertex 10 48.8 0
      vertex 9.59808 50.3 0
      vertex 9.59808 50.3 22
    endloop
  endfacet
  facet normal 0.965926 0.258819 0
    outer loop
      vertex 10 48.8 22
      vertex 10 48.8 0
      vertex 9.59808 50.3 22
    endloop
  endfacet
  facet normal 0.707107 0.707107 0
    outer loop
      vertex 8.5 51.3981 0
      vertex 8.5 51.3981 22
      vertex 9.59808 50.3 0
    endloop
  endfacet
  facet normal 0.707107 0.707107 0
    outer loop
      vertex 9.59808 50.3 0
      vertex 8.5 51.3981 22
      vertex 9.59808 50.3 22
    endloop
  endfacet
  facet normal 0.258819 0.965926 0
    outer loop
      vertex 7 51.8 0
      vertex 7 51.8 22
      vertex 8.5 51.3981 0
    endloop
  endfacet
  facet normal 0.258819 0.965926 0
    outer loop
      vertex 8.5 51.3981 0
      vertex 7 51.8 22
      vertex 8.5 51.3981 22
    endloop
  endfacet
  facet normal 0 1 0
    outer loop
      vertex 5.5 51.8 0
      vertex 5.5 51.8 3.10777
      vertex 7 51.8 0
    endloop
  endfacet
  facet normal 0 1 0
    outer loop
      vertex 7 51.8 0
      vertex 5.5 51.8 3.10777
      vertex 5.5 51.8 11
    endloop
  endfacet
  facet normal 0 1 0
    outer loop
      vertex 7 51.8 0
      vertex 5.5 51.8 11
      vertex 5.5 51.8 22
    endloop
  endfacet
  facet normal 0 1 0
    outer loop
      vertex 7 51.8 0
      vertex 5.5 51.8 22
      vertex 7 51.8 22
    endloop
  endfacet
  facet normal -1 0 0
    outer loop
      vertex 5.5 50.9953 2.00019
      vertex 5.5 51.8 3.10777
      vertex 5.5 51.8 0
    endloop
  endfacet
  facet normal -1 0 0
    outer loop
      vertex 5.5 50.9953 2.00019
      vertex 5.5 51.8 0
      vertex 5.5 48.9057 0.118721
    endloop
  endfacet
  facet normal -1 0 0
    outer loop
      vertex 5.5 51.8 0
      vertex 5.5 48.7001 0
      vertex 5.5 48.9057 0.118721
    endloop
  endfacet
  facet normal -1 0 -1.77321e-16
    outer loop
      vertex 5.5 41 15.0544
      vertex 5.5 39.0475 15.0544
      vertex 5.5 41 22
    endloop
  endfacet
  facet normal -1 0 -1.77321e-16
    outer loop
      vertex 5.5 41 22
      vertex 5.5 39.0475 15.0544
      vertex 5.5 36.6128 12.0013
    endloop
  endfacet
  facet normal -1 0 -1.77321e-16
    outer loop
      vertex 5.5 44.5182 8.1943
      vertex 5.5 45.1586 11
      vertex 5.5 51.8 11
    endloop
  endfacet
  facet normal -1 0 -1.77321e-16
    outer loop
      vertex 5.5 44.5182 8.1943
      vertex 5.5 51.8 11
      vertex 5.5 41 6.5
    endloop
  endfacet
  facet normal -1 0 -1.77321e-16
    outer loop
      vertex 5.5 41 6.5
      vertex 5.5 51.8 11
      vertex 5.5 51.8 3.10777
    endloop
  endfacet
  facet normal -1 0 -1.77321e-16
    outer loop
      vertex 5.5 41 6.5
      vertex 5.5 51.8 3.10777
      vertex 5.5 50.9953 2.00019
    endloop
  endfacet
  facet normal -1 0 -1.77321e-16
    outer loop
      vertex 5.5 41 6.5
      vertex 5.5 50.9953 2.00019
      vertex 5.5 48.9057 0.118721
    endloop
  endfacet
  facet normal -1 0 -1.77321e-16
    outer loop
      vertex 5.5 41 6.5
      vertex 5.5 48.9057 0.118721
      vertex 5.5 37.4818 8.1943
    endloop
  endfacet
  facet normal -1 0 -1.77321e-16
    outer loop
      vertex 5.5 37.4818 8.1943
      vertex 5.5 48.9057 0.118721
      vertex 5.5 48.7001 0
    endloop
  endfacet
  facet normal -1 0 -1.77321e-16
    outer loop
      vertex 5.5 37.4818 8.1943
      vertex 5.5 48.7001 0
      vertex 5.5 33.2999 0
    endloop
  endfacet
  facet normal -1 0 -1.77321e-16
    outer loop
      vertex 5.5 37.4818 8.1943
      vertex 5.5 33.2999 0
      vertex 5.5 36.6128 12.0013
    endloop
  endfacet
  facet normal -1 0 -1.77321e-16
    outer loop
      vertex 5.5 36.6128 12.0013
      vertex 5.5 33.2999 0
      vertex 5.5 33.0943 0.118721
    endloop
  endfacet
  facet normal -1 0 -1.77321e-16
    outer loop
      vertex 5.5 36.6128 12.0013
      vertex 5.5 33.0943 0.118721
      vertex 5.5 31.0047 2.00019
    endloop
  endfacet
  facet normal -1 0 -1.77321e-16
    outer loop
      vertex 5.5 36.6128 12.0013
      vertex 5.5 31.0047 2.00019
      vertex 5.5 41 22
    endloop
  endfacet
  facet normal -1 0 -1.77321e-16
    outer loop
      vertex 5.5 41 22
      vertex 5.5 31.0047 2.00019
      vertex 5.5 29.352 4.275
    endloop
  endfacet
  facet normal -1 0 -1.77321e-16
    outer loop
      vertex 5.5 41 22
      vertex 5.5 29.352 4.275
      vertex 5.5 28.2083 6.84372
    endloop
  endfacet
  facet normal -1 0 -1.77321e-16
    outer loop
      vertex 5.5 41 22
      vertex 5.5 28.2083 6.84372
      vertex 5.5 27.6237 9.59409
    endloop
  endfacet
  facet normal -1 0 -1.77321e-16
    outer loop
      vertex 5.5 41 22
      vertex 5.5 27.6237 9.59409
      vertex 5.5 27.6237 12.4059
    endloop
  endfacet
  facet normal -1 0 -1.77321e-16
    outer loop
      vertex 5.5 41 22
      vertex 5.5 27.6237 12.4059
      vertex 5.5 28.2083 15.1563
    endloop
  endfacet
  facet normal -1 0 -1.77321e-16
    outer loop
      vertex 5.5 41 22
      vertex 5.5 28.2083 15.1563
      vertex 5.5 29.352 17.725
    endloop
  endfacet
  facet normal -1 0 -1.77321e-16
    outer loop
      vertex 5.5 41 22
      vertex 5.5 29.352 17.725
      vertex 5.5 31.0047 19.9998
    endloop
  endfacet
  facet normal -1 0 -1.77321e-16
    outer loop
      vertex 5.5 41 22
      vertex 5.5 31.0047 19.9998
      vertex 5.5 33.0943 21.8813
    endloop
  endfacet
  facet normal -1 0 -1.77321e-16
    outer loop
      vertex 5.5 41 22
      vertex 5.5 33.0943 21.8813
      vertex 5.5 33.2999 22
    endloop
  endfacet
  facet normal -1.53565e-16 0.5 0.866026
    outer loop
      vertex 5.5 33.0943 0.118721
      vertex 5.5 33.2999 0
      vertex -5.5 33.2999 0
    endloop
  endfacet
  facet normal -1.53565e-16 0.5 0.866026
    outer loop
      vertex -5.5 33.0943 0.118721
      vertex 5.5 33.0943 0.118721
      vertex -5.5 33.2999 0
    endloop
  endfacet
  facet normal 1 0 1.77321e-16
    outer loop
      vertex -5.5 33.0943 21.8813
      vertex -5.5 31.0047 19.9998
      vertex -5.5 29.352 17.725
    endloop
  endfacet
  facet normal 1 0 1.77321e-16
    outer loop
      vertex -5.5 27.6237 12.4059
      vertex -5.5 33.0943 21.8813
      vertex -5.5 28.2083 15.1563
    endloop
  endfacet
  facet normal 1 0 1.77321e-16
    outer loop
      vertex -5.5 28.2083 15.1563
      vertex -5.5 33.0943 21.8813
      vertex -5.5 29.352 17.725
    endloop
  endfacet
  facet normal 1 0 1.77321e-16
    outer loop
      vertex -5.5 27.6237 9.59409
      vertex -5.5 33.0943 21.8813
      vertex -5.5 27.6237 12.4059
    endloop
  endfacet
  facet normal 1 0 1.77321e-16
    outer loop
      vertex -5.5 28.2083 6.84372
      vertex -5.5 33.0943 21.8813
      vertex -5.5 27.6237 9.59409
    endloop
  endfacet
  facet normal 1 0 1.77321e-16
    outer loop
      vertex -5.5 29.352 4.275
      vertex -5.5 33.0943 21.8813
      vertex -5.5 28.2083 6.84372
    endloop
  endfacet
  facet normal 1 0 1.77321e-16
    outer loop
      vertex -5.5 31.0047 2.00019
      vertex -5.5 33.0943 21.8813
      vertex -5.5 29.352 4.275
    endloop
  endfacet
  facet normal 1 0 1.77321e-16
    outer loop
      vertex -5.5 33.0943 0.118721
      vertex -5.5 33.0943 21.8813
      vertex -5.5 31.0047 2.00019
    endloop
  endfacet
  facet normal 1 0 1.77321e-16
    outer loop
      vertex -5.5 33.2999 0
      vertex -5.5 33.0943 21.8813
      vertex -5.5 33.0943 0.118721
    endloop
  endfacet
  facet normal 1 0 1.77321e-16
    outer loop
      vertex -5.5 37.4818 8.1943
      vertex -5.5 33.0943 21.8813
      vertex -5.5 33.2999 0
    endloop
  endfacet
  facet normal 1 0 1.77321e-16
    outer loop
      vertex -5.5 41 0
      vertex -5.5 37.4818 8.1943
      vertex -5.5 33.2999 0
    endloop
  endfacet
  facet normal 1 0 1.77321e-16
    outer loop
      vertex -5.5 36.6128 12.0013
      vertex -5.5 33.0943 21.8813
      vertex -5.5 37.4818 8.1943
    endloop
  endfacet
  facet normal 1 0 1.77321e-16
    outer loop
      vertex -5.5 36.6128 12.0013
      vertex -5.5 39.0475 15.0544
      vertex -5.5 33.0943 21.8813
    endloop
  endfacet
  facet normal 1 0 1.77321e-16
    outer loop
      vertex -5.5 42.9525 15.0544
      vertex -5.5 33.0943 21.8813
      vertex -5.5 39.0475 15.0544
    endloop
  endfacet
  facet normal 1 0 1.77321e-16
    outer loop
      vertex -5.5 51.8 11
      vertex -5.5 33.0943 21.8813
      vertex -5.5 42.9525 15.0544
    endloop
  endfacet
  facet normal 1 0 1.77321e-16
    outer loop
      vertex -5.5 51.8 11
      vertex -5.5 42.9525 15.0544
      vertex -5.5 45.3872 12.0013
    endloop
  endfacet
  facet normal 1 0 1.77321e-16
    outer loop
      vertex -5.5 51.8 11
      vertex -5.5 45.3872 12.0013
      vertex -5.5 45.1586 11
    endloop
  endfacet
  facet normal 1 0 1.77321e-16
    outer loop
      vertex -5.5 51.8 18.8922
      vertex -5.5 33.0943 21.8813
      vertex -5.5 51.8 11
    endloop
  endfacet
  facet normal 1 0 1.77321e-16
    outer loop
      vertex -5.5 50.9953 19.9998
      vertex -5.5 33.0943 21.8813
      vertex -5.5 51.8 18.8922
    endloop
  endfacet
  facet normal 1 0 1.77321e-16
    outer loop
      vertex -5.5 48.9057 21.8813
      vertex -5.5 33.0943 21.8813
      vertex -5.5 50.9953 19.9998
    endloop
  endfacet
  facet normal 1 0 1.77321e-16
    outer loop
      vertex -5.5 48.7001 22
      vertex -5.5 33.0943 21.8813
      vertex -5.5 48.9057 21.8813
    endloop
  endfacet
  facet normal 1 0 1.77321e-16
    outer loop
      vertex -5.5 33.2999 22
      vertex -5.5 33.0943 21.8813
      vertex -5.5 48.7001 22
    endloop
  endfacet
  facet normal 1 0 1.77321e-16
    outer loop
      vertex -5.5 41 6.5
      vertex -5.5 37.4818 8.1943
      vertex -5.5 41 0
    endloop
  endfacet
  facet normal 1 0 0
    outer loop
      vertex -5.5 51.8 0
      vertex -5.5 51.8 11
      vertex -5.5 45.1586 11
    endloop
  endfacet
  facet normal 1 0 0
    outer loop
      vertex -5.5 41 6.5
      vertex -5.5 51.8 0
      vertex -5.5 44.5182 8.1943
    endloop
  endfacet
  facet normal 1 0 0
    outer loop
      vertex -5.5 44.5182 8.1943
      vertex -5.5 51.8 0
      vertex -5.5 45.1586 11
    endloop
  endfacet
  facet normal 1 0 0
    outer loop
      vertex -5.5 41 0
      vertex -5.5 51.8 0
      vertex -5.5 41 6.5
    endloop
  endfacet
  facet normal 0 1 0
    outer loop
      vertex -7 51.8 0
      vertex -7 51.8 22
      vertex -5.5 51.8 0
    endloop
  endfacet
  facet normal 0 1 0
    outer loop
      vertex -5.5 51.8 18.8922
      vertex -7 51.8 22
      vertex -5.5 51.8 22
    endloop
  endfacet
  facet normal 0 1 0
    outer loop
      vertex -5.5 51.8 0
      vertex -7 51.8 22
      vertex -5.5 51.8 18.8922
    endloop
  endfacet
  facet normal 0 1 0
    outer loop
      vertex -5.5 51.8 0
      vertex -5.5 51.8 18.8922
      vertex -5.5 51.8 11
    endloop
  endfacet
  facet normal -0.258819 0.965926 0
    outer loop
      vertex -8.5 51.3981 0
      vertex -8.5 51.3981 22
      vertex -7 51.8 0
    endloop
  endfacet
  facet normal -0.258819 0.965926 0
    outer loop
      vertex -7 51.8 0
      vertex -8.5 51.3981 22
      vertex -7 51.8 22
    endloop
  endfacet
  facet normal -0.707107 0.707107 0
    outer loop
      vertex -9.59808 50.3 0
      vertex -9.59808 50.3 22
      vertex -8.5 51.3981 0
    endloop
  endfacet
  facet normal -0.707107 0.707107 0
    outer loop
      vertex -8.5 51.3981 0
      vertex -9.59808 50.3 22
      vertex -8.5 51.3981 22
    endloop
  endfacet
  facet normal -0.965926 0.258819 0
    outer loop
      vertex -10 48.8 0
      vertex -10 48.8 22
      vertex -9.59808 50.3 0
    endloop
  endfacet
  facet normal -0.965926 0.258819 0
    outer loop
      vertex -9.59808 50.3 0
      vertex -10 48.8 22
      vertex -9.59808 50.3 22
    endloop
  endfacet
  facet normal 1 0 0
    outer loop
      vertex -5.5 48.9057 21.8813
      vertex -5.5 50.9953 19.9998
      vertex -5.5 51.8 22
    endloop
  endfacet
  facet normal 1 0 0
    outer loop
      vertex -5.5 51.8 22
      vertex -5.5 50.9953 19.9998
      vertex -5.5 51.8 18.8922
    endloop
  endfacet
  facet normal 1 0 0
    outer loop
      vertex -5.5 48.9057 21.8813
      vertex -5.5 51.8 22
      vertex -5.5 48.7001 22
    endloop
  endfacet
  facet normal 1.53565e-16 0.5 -0.866026
    outer loop
      vertex 5.5 33.0943 21.8813
      vertex -5.5 33.0943 21.8813
      vertex 5.5 33.2999 22
    endloop
  endfacet
  facet normal 1.53565e-16 0.5 -0.866026
    outer loop
      vertex 5.5 33.2999 22
      vertex -5.5 33.0943 21.8813
      vertex -5.5 33.2999 22
    endloop
  endfacet
  facet normal -1 0 0
    outer loop
      vertex 5.5 51.8 22
      vertex 5.5 51.8 11
      vertex 5.5 41 22
    endloop
  endfacet
  facet normal -1 0 0
    outer loop
      vertex 5.5 45.3872 12.0013
      vertex 5.5 51.8 11
      vertex 5.5 45.1586 11
    endloop
  endfacet
  facet normal -1 0 0
    outer loop
      vertex 5.5 41 22
      vertex 5.5 51.8 11
      vertex 5.5 45.3872 12.0013
    endloop
  endfacet
  facet normal -1 0 0
    outer loop
      vertex 5.5 41 22
      vertex 5.5 42.9525 15.0544
      vertex 5.5 41 15.0544
    endloop
  endfacet
  facet normal -1 0 0
    outer loop
      vertex 5.5 42.9525 15.0544
      vertex 5.5 41 22
      vertex 5.5 45.3872 12.0013
    endloop
  endfacet
  facet normal 2.0982e-16 1 -2.02746e-17
    outer loop
      vertex -2.42378 -14 13.86
      vertex -4.075 -14 11
      vertex -5.9 -14 13.86
    endloop
  endfacet
  facet normal 2.0982e-16 1 -2.02746e-17
    outer loop
      vertex -5.9 -14 13.86
      vertex -4.075 -14 11
      vertex -2.42378 -14 8.14
    endloop
  endfacet
  facet normal 2.0982e-16 1 -2.02746e-17
    outer loop
      vertex -5.9 -14 13.86
      vertex -2.42378 -14 8.14
      vertex -5.9 -14 8.14
    endloop
  endfacet
  facet normal 1.77321e-16 -2.02746e-17 -1
    outer loop
      vertex 5.9 -2 13.86
      vertex 5.9 -13.4 13.86
      vertex -5.9 -2 13.86
    endloop
  endfacet
  facet normal 1.77321e-16 -2.02746e-17 -1
    outer loop
      vertex -5.9 -2 13.86
      vertex 5.9 -13.4 13.86
      vertex 2.42378 -13.4 13.86
    endloop
  endfacet
  facet normal 1.77321e-16 -2.02746e-17 -1
    outer loop
      vertex -5.9 -2 13.86
      vertex -2.42378 -13.4 13.86
      vertex -2.42378 -14 13.86
    endloop
  endfacet
  facet normal 1.77321e-16 -2.02746e-17 -1
    outer loop
      vertex -5.9 -2 13.86
      vertex -2.42378 -14 13.86
      vertex -5.9 -14 13.86
    endloop
  endfacet
  facet normal 1.77321e-16 -2.02746e-17 -1
    outer loop
      vertex -2.42378 -13.4 13.86
      vertex -5.9 -2 13.86
      vertex 2.42378 -13.4 13.86
    endloop
  endfacet
  facet normal -2.29802e-17 -0.707107 -0.707107
    outer loop
      vertex -5.9 -0.284 12.144
      vertex 5.9 -0.284 12.144
      vertex 5.9 -2 13.86
    endloop
  endfacet
  facet normal -2.29802e-17 -0.707107 -0.707107
    outer loop
      vertex -5.9 -2 13.86
      vertex -5.9 -0.284 12.144
      vertex 5.9 -2 13.86
    endloop
  endfacet
  facet normal -2.0982e-16 -1 2.02746e-17
    outer loop
      vertex 5.9 -0.284 9.856
      vertex 5.9 -0.284 12.144
      vertex -5.9 -0.284 12.144
    endloop
  endfacet
  facet normal -2.0982e-16 -1 2.02746e-17
    outer loop
      vertex -5.9 -0.284 9.856
      vertex 5.9 -0.284 9.856
      vertex -5.9 -0.284 12.144
    endloop
  endfacet
  facet normal -2.7375e-16 -0.707107 0.707107
    outer loop
      vertex 5.9 -2 8.14
      vertex 5.9 -0.284 9.856
      vertex -5.9 -0.284 9.856
    endloop
  endfacet
  facet normal -2.7375e-16 -0.707107 0.707107
    outer loop
      vertex -5.9 -2 8.14
      vertex 5.9 -2 8.14
      vertex -5.9 -0.284 9.856
    endloop
  endfacet
  facet normal -1.77321e-16 2.02746e-17 1
    outer loop
      vertex 5.9 -2 8.14
      vertex -2.42378 -13.4 8.14
      vertex -2 -13.4 8.14
    endloop
  endfacet
  facet normal -1.77321e-16 2.02746e-17 1
    outer loop
      vertex -2.42378 -14 8.14
      vertex -2.42378 -13.4 8.14
      vertex -5.9 -2 8.14
    endloop
  endfacet
  facet normal -1.77321e-16 2.02746e-17 1
    outer loop
      vertex 5.9 -2 8.14
      vertex -2 -13.4 8.14
      vertex 5.9 -13.4 8.14
    endloop
  endfacet
  facet normal -1.77321e-16 2.02746e-17 1
    outer loop
      vertex -5.9 -2 8.14
      vertex -2.42378 -13.4 8.14
      vertex 5.9 -2 8.14
    endloop
  endfacet
  facet normal -1.77321e-16 2.02746e-17 1
    outer loop
      vertex -5.9 -14 8.14
      vertex -2.42378 -14 8.14
      vertex -5.9 -2 8.14
    endloop
  endfacet
  facet normal 0.974928 2.09071e-16 0.222521
    outer loop
      vertex -2.29108 -25 11.5229
      vertex -1.8373 -25 9.5348
      vertex -1.8373 -17.2 9.5348
    endloop
  endfacet
  facet normal 0.974928 2.09071e-16 0.222521
    outer loop
      vertex -2.29108 -17.2 11.5229
      vertex -2.29108 -25 11.5229
      vertex -1.8373 -17.2 9.5348
    endloop
  endfacet
  facet normal 0.433884 1.09304e-16 0.900969
    outer loop
      vertex -1.8373 -25 9.5348
      vertex 1.72327e-15 -25 8.65
      vertex 8.66738e-17 -17.2 8.65
    endloop
  endfacet
  facet normal 0.433884 1.09304e-16 0.900969
    outer loop
      vertex -1.8373 -17.2 9.5348
      vertex -1.8373 -25 9.5348
      vertex 8.66738e-17 -17.2 8.65
    endloop
  endfacet
  facet normal -0.433884 -7.27708e-17 0.900969
    outer loop
      vertex 1.72327e-15 -25 8.65
      vertex 1.8373 -25 9.5348
      vertex 1.8373 -17.2 9.5348
    endloop
  endfacet
  facet normal -0.433884 -7.27708e-17 0.900969
    outer loop
      vertex 8.66738e-17 -17.2 8.65
      vertex 1.72327e-15 -25 8.65
      vertex 1.8373 -17.2 9.5348
    endloop
  endfacet
  facet normal -0.974928 -2.00048e-16 0.222521
    outer loop
      vertex 2.29108 -25 11.5229
      vertex 2.29108 -17.2 11.5229
      vertex 1.8373 -25 9.5348
    endloop
  endfacet
  facet normal -0.974928 -2.00048e-16 0.222521
    outer loop
      vertex 1.8373 -25 9.5348
      vertex 2.29108 -17.2 11.5229
      vertex 2.17173 -17.2 11
    endloop
  endfacet
  facet normal -0.974928 -2.00048e-16 0.222521
    outer loop
      vertex 1.8373 -25 9.5348
      vertex 2.17173 -17.2 11
      vertex 1.8373 -17.2 9.5348
    endloop
  endfacet
  facet normal -0.781832 -1.76685e-16 -0.62349
    outer loop
      vertex 2.29108 -25 11.5229
      vertex 1.01963 -25 13.1173
      vertex 2.29108 -17.2 11.5229
    endloop
  endfacet
  facet normal -0.781832 -1.76685e-16 -0.62349
    outer loop
      vertex 2.29108 -17.2 11.5229
      vertex 1.01963 -25 13.1173
      vertex 1.01963 -17.2 13.1173
    endloop
  endfacet
  facet normal 2.0982e-16 -2.02746e-17 -1
    outer loop
      vertex 1.01963 -25 13.1173
      vertex -1.01963 -25 13.1173
      vertex 1.01963 -17.2 13.1173
    endloop
  endfacet
  facet normal 2.0982e-16 -2.02746e-17 -1
    outer loop
      vertex 1.01963 -17.2 13.1173
      vertex -1.01963 -25 13.1173
      vertex -1.01963 -17.2 13.1173
    endloop
  endfacet
  facet normal 0.781832 1.51403e-16 -0.62349
    outer loop
      vertex -1.01963 -25 13.1173
      vertex -2 -17.2 11.8879
      vertex -1.01963 -17.2 13.1173
    endloop
  endfacet
  facet normal 0.781832 1.51403e-16 -0.62349
    outer loop
      vertex -2.29108 -25 11.5229
      vertex -2 -17.2 11.8879
      vertex -1.01963 -25 13.1173
    endloop
  endfacet
  facet normal 0.781832 1.51403e-16 -0.62349
    outer loop
      vertex -2.29108 -17.2 11.5229
      vertex -2 -17.2 11.8879
      vertex -2.29108 -25 11.5229
    endloop
  endfacet
  facet normal 0 1 0
    outer loop
      vertex 5.9 -17.2 14.825
      vertex 5.9 -17.2 7.475
      vertex 4.075 -17.2 11
    endloop
  endfacet
  facet normal 0 1 0
    outer loop
      vertex -1.01963 -17.2 13.1173
      vertex -2 -17.2 14.825
      vertex 1.01963 -17.2 13.1173
    endloop
  endfacet
  facet normal 0 1 0
    outer loop
      vertex 1.01963 -17.2 13.1173
      vertex 4.075 -17.2 11
      vertex 2.29108 -17.2 11.5229
    endloop
  endfacet
  facet normal 0 1 0
    outer loop
      vertex 4.075 -17.2 11
      vertex 2.17173 -17.2 11
      vertex 2.29108 -17.2 11.5229
    endloop
  endfacet
  facet normal 0 1 0
    outer loop
      vertex 5.9 -17.2 14.825
      vertex 4.075 -17.2 11
      vertex 1.01963 -17.2 13.1173
    endloop
  endfacet
  facet normal 0 1 0
    outer loop
      vertex 5.9 -17.2 14.825
      vertex 1.01963 -17.2 13.1173
      vertex -2 -17.2 14.825
    endloop
  endfacet
  facet normal 0 1 0
    outer loop
      vertex 4.075 -17.2 11
      vertex 5.9 -17.2 7.475
      vertex 2.03984 -17.2 7.475
    endloop
  endfacet
  facet normal 0 1 0
    outer loop
      vertex -2 -17.2 11.8879
      vertex -2 -17.2 14.825
      vertex -1.01963 -17.2 13.1173
    endloop
  endfacet
  facet normal 0 0 1
    outer loop
      vertex 2.03984 -13.4 7.475
      vertex 2.03984 -17.2 7.475
      vertex 5.9 -17.2 7.475
    endloop
  endfacet
  facet normal 0 0 1
    outer loop
      vertex -2 -13.4 7.475
      vertex 2.03984 -13.4 7.475
      vertex 5.9 -13.4 7.475
    endloop
  endfacet
  facet normal 0 0 1
    outer loop
      vertex 5.9 -13.4 7.475
      vertex 2.03984 -13.4 7.475
      vertex 5.9 -17.2 7.475
    endloop
  endfacet
  facet normal 0 -1 0
    outer loop
      vertex 5.9 -13.4 7.475
      vertex 5.9 -13.4 8.14
      vertex -2 -13.4 8.14
    endloop
  endfacet
  facet normal 0 -1 0
    outer loop
      vertex -2 -13.4 7.475
      vertex 5.9 -13.4 7.475
      vertex -2 -13.4 8.14
    endloop
  endfacet
  facet normal 0 -1 0
    outer loop
      vertex 2.0375 -13.4 14.5291
      vertex 2.42378 -13.4 13.86
      vertex 5.9 -13.4 13.86
    endloop
  endfacet
  facet normal 0 -1 0
    outer loop
      vertex -2 -13.4 14.825
      vertex 2.0375 -13.4 14.5291
      vertex 5.9 -13.4 14.825
    endloop
  endfacet
  facet normal 0 -1 0
    outer loop
      vertex 5.9 -13.4 14.825
      vertex 2.0375 -13.4 14.5291
      vertex 5.9 -13.4 13.86
    endloop
  endfacet
  facet normal 0 -1 0
    outer loop
      vertex -2 -13.4 14.5291
      vertex 2.0375 -13.4 14.5291
      vertex -2 -13.4 14.825
    endloop
  endfacet
  facet normal 0 0 -1
    outer loop
      vertex 5.9 -13.4 14.825
      vertex 5.9 -17.2 14.825
      vertex -2 -13.4 14.825
    endloop
  endfacet
  facet normal 0 0 -1
    outer loop
      vertex -2 -13.4 14.825
      vertex 5.9 -17.2 14.825
      vertex -2 -17.2 14.825
    endloop
  endfacet
  facet normal -3.94577e-17 0.974928 0.222521
    outer loop
      vertex 10 37.4818 8.1943
      vertex 5.5 37.4818 8.1943
      vertex 10 36.6128 12.0013
    endloop
  endfacet
  facet normal -3.94577e-17 0.974928 0.222521
    outer loop
      vertex 10 36.6128 12.0013
      vertex 5.5 37.4818 8.1943
      vertex 5.5 36.6128 12.0013
    endloop
  endfacet
  facet normal -1.59761e-16 0.433884 0.900969
    outer loop
      vertex 10 37.4818 8.1943
      vertex 10 41 6.5
      vertex 5.5 41 6.5
    endloop
  endfacet
  facet normal -1.59761e-16 0.433884 0.900969
    outer loop
      vertex 5.5 37.4818 8.1943
      vertex 10 37.4818 8.1943
      vertex 5.5 41 6.5
    endloop
  endfacet
  facet normal -1.59761e-16 -0.433884 0.900969
    outer loop
      vertex 5.5 41 6.5
      vertex 10 41 6.5
      vertex 10 44.5182 8.1943
    endloop
  endfacet
  facet normal -1.59761e-16 -0.433884 0.900969
    outer loop
      vertex 5.5 44.5182 8.1943
      vertex 5.5 41 6.5
      vertex 10 44.5182 8.1943
    endloop
  endfacet
  facet normal -3.94577e-17 -0.974928 0.222521
    outer loop
      vertex 5.5 44.5182 8.1943
      vertex 10 44.5182 8.1943
      vertex 10 45.3872 12.0013
    endloop
  endfacet
  facet normal -3.94577e-17 -0.974928 0.222521
    outer loop
      vertex 5.5 45.1586 11
      vertex 5.5 44.5182 8.1943
      vertex 5.5 45.3872 12.0013
    endloop
  endfacet
  facet normal -3.94577e-17 -0.974928 0.222521
    outer loop
      vertex 5.5 45.3872 12.0013
      vertex 5.5 44.5182 8.1943
      vertex 10 45.3872 12.0013
    endloop
  endfacet
  facet normal 1.10558e-16 -0.781831 -0.62349
    outer loop
      vertex 5.5 45.3872 12.0013
      vertex 10 45.3872 12.0013
      vertex 10 42.9525 15.0544
    endloop
  endfacet
  facet normal 1.10558e-16 -0.781831 -0.62349
    outer loop
      vertex 5.5 42.9525 15.0544
      vertex 5.5 45.3872 12.0013
      vertex 10 42.9525 15.0544
    endloop
  endfacet
  facet normal 1.77321e-16 0 -1
    outer loop
      vertex 5.5 41 15.0544
      vertex 5.5 42.9525 15.0544
      vertex 10 42.9525 15.0544
    endloop
  endfacet
  facet normal 1.77321e-16 0 -1
    outer loop
      vertex 5.5 41 15.0544
      vertex 10 42.9525 15.0544
      vertex 10 39.0475 15.0544
    endloop
  endfacet
  facet normal 1.77321e-16 0 -1
    outer loop
      vertex 10 39.0475 15.0544
      vertex 5.5 39.0475 15.0544
      vertex 5.5 41 15.0544
    endloop
  endfacet
  facet normal 1.10558e-16 0.781831 -0.62349
    outer loop
      vertex 10 36.6128 12.0013
      vertex 5.5 36.6128 12.0013
      vertex 10 39.0475 15.0544
    endloop
  endfacet
  facet normal 1.10558e-16 0.781831 -0.62349
    outer loop
      vertex 10 39.0475 15.0544
      vertex 5.5 36.6128 12.0013
      vertex 5.5 39.0475 15.0544
    endloop
  endfacet
  facet normal 1.31775e-16 0.669131 -0.743145
    outer loop
      vertex 5.5 31.0047 19.9998
      vertex -5.5 31.0047 19.9998
      vertex 5.5 33.0943 21.8813
    endloop
  endfacet
  facet normal 1.31775e-16 0.669131 -0.743145
    outer loop
      vertex 5.5 33.0943 21.8813
      vertex -5.5 31.0047 19.9998
      vertex -5.5 33.0943 21.8813
    endloop
  endfacet
  facet normal 1.04227e-16 0.809017 -0.587785
    outer loop
      vertex 5.5 29.352 17.725
      vertex -5.5 29.352 17.725
      vertex 5.5 31.0047 19.9998
    endloop
  endfacet
  facet normal 1.04227e-16 0.809017 -0.587785
    outer loop
      vertex 5.5 31.0047 19.9998
      vertex -5.5 29.352 17.725
      vertex -5.5 31.0047 19.9998
    endloop
  endfacet
  facet normal 7.2123e-17 0.913545 -0.406737
    outer loop
      vertex 5.5 28.2083 15.1563
      vertex -5.5 28.2083 15.1563
      vertex 5.5 29.352 17.725
    endloop
  endfacet
  facet normal 7.2123e-17 0.913545 -0.406737
    outer loop
      vertex 5.5 29.352 17.725
      vertex -5.5 28.2083 15.1563
      vertex -5.5 29.352 17.725
    endloop
  endfacet
  facet normal 3.68671e-17 0.978148 -0.207912
    outer loop
      vertex 5.5 27.6237 12.4059
      vertex -5.5 27.6237 12.4059
      vertex 5.5 28.2083 15.1563
    endloop
  endfacet
  facet normal 3.68671e-17 0.978148 -0.207912
    outer loop
      vertex 5.5 28.2083 15.1563
      vertex -5.5 27.6237 12.4059
      vertex -5.5 28.2083 15.1563
    endloop
  endfacet
  facet normal 0 1 0
    outer loop
      vertex 5.5 27.6237 9.59409
      vertex -5.5 27.6237 9.59409
      vertex 5.5 27.6237 12.4059
    endloop
  endfacet
  facet normal 0 1 0
    outer loop
      vertex 5.5 27.6237 12.4059
      vertex -5.5 27.6237 9.59409
      vertex -5.5 27.6237 12.4059
    endloop
  endfacet
  facet normal -3.68671e-17 0.978148 0.207912
    outer loop
      vertex 5.5 28.2083 6.84372
      vertex -5.5 28.2083 6.84372
      vertex 5.5 27.6237 9.59409
    endloop
  endfacet
  facet normal -3.68671e-17 0.978148 0.207912
    outer loop
      vertex 5.5 27.6237 9.59409
      vertex -5.5 28.2083 6.84372
      vertex -5.5 27.6237 9.59409
    endloop
  endfacet
  facet normal -7.2123e-17 0.913545 0.406737
    outer loop
      vertex 5.5 29.352 4.275
      vertex -5.5 29.352 4.275
      vertex 5.5 28.2083 6.84372
    endloop
  endfacet
  facet normal -7.2123e-17 0.913545 0.406737
    outer loop
      vertex 5.5 28.2083 6.84372
      vertex -5.5 29.352 4.275
      vertex -5.5 28.2083 6.84372
    endloop
  endfacet
  facet normal -1.04227e-16 0.809017 0.587785
    outer loop
      vertex 5.5 31.0047 2.00019
      vertex -5.5 31.0047 2.00019
      vertex 5.5 29.352 4.275
    endloop
  endfacet
  facet normal -1.04227e-16 0.809017 0.587785
    outer loop
      vertex 5.5 29.352 4.275
      vertex -5.5 31.0047 2.00019
      vertex -5.5 29.352 4.275
    endloop
  endfacet
  facet normal -1.31775e-16 0.669131 0.743145
    outer loop
      vertex 5.5 31.0047 2.00019
      vertex 5.5 33.0943 0.118721
      vertex -5.5 33.0943 0.118721
    endloop
  endfacet
  facet normal -1.31775e-16 0.669131 0.743145
    outer loop
      vertex -5.5 31.0047 2.00019
      vertex 5.5 31.0047 2.00019
      vertex -5.5 33.0943 0.118721
    endloop
  endfacet
  facet normal 0.866025 1.11022e-16 0.5
    outer loop
      vertex -2.0375 -17.2 7.47095
      vertex -2.0375 -13.4 7.47095
      vertex -2.42378 -13.4 8.14
    endloop
  endfacet
  facet normal 0.866025 1.11022e-16 0.5
    outer loop
      vertex -4.075 -14 11
      vertex -2.0375 -17.2 7.47095
      vertex -2.42378 -14 8.14
    endloop
  endfacet
  facet normal 0.866025 1.11022e-16 0.5
    outer loop
      vertex -2.42378 -14 8.14
      vertex -2.0375 -17.2 7.47095
      vertex -2.42378 -13.4 8.14
    endloop
  endfacet
  facet normal 0.866025 1.11022e-16 0.5
    outer loop
      vertex -4.075 -17.2 11
      vertex -2.0375 -17.2 7.47095
      vertex -4.075 -14 11
    endloop
  endfacet
  facet normal 0.866025 -1.11022e-16 -0.5
    outer loop
      vertex -2.0375 -13.4 14.5291
      vertex -2.42378 -14 13.86
      vertex -2.42378 -13.4 13.86
    endloop
  endfacet
  facet normal 0.866025 -1.11022e-16 -0.5
    outer loop
      vertex -2.0375 -17.2 14.5291
      vertex -2.42378 -14 13.86
      vertex -2.0375 -13.4 14.5291
    endloop
  endfacet
  facet normal 0.866025 -1.11022e-16 -0.5
    outer loop
      vertex -4.075 -14 11
      vertex -2.42378 -14 13.86
      vertex -2.0375 -17.2 14.5291
    endloop
  endfacet
  facet normal 0.866025 -1.11022e-16 -0.5
    outer loop
      vertex -4.075 -17.2 11
      vertex -4.075 -14 11
      vertex -2.0375 -17.2 14.5291
    endloop
  endfacet
  facet normal 0 -1 2.22045e-16
    outer loop
      vertex 2.42378 -13.4 13.86
      vertex 2.0375 -13.4 14.5291
      vertex -2.0375 -13.4 14.5291
    endloop
  endfacet
  facet normal 0 -1 2.22045e-16
    outer loop
      vertex -2.42378 -13.4 13.86
      vertex 2.42378 -13.4 13.86
      vertex -2.0375 -13.4 14.5291
    endloop
  endfacet
  facet normal 0 -1 2.22045e-16
    outer loop
      vertex -2.0375 -13.4 7.47095
      vertex 2.0375 -13.4 7.47095
      vertex 2.03984 -13.4 7.475
    endloop
  endfacet
  facet normal 0 -1 2.22045e-16
    outer loop
      vertex -2 -13.4 8.14
      vertex -2.0375 -13.4 7.47095
      vertex -2 -13.4 7.475
    endloop
  endfacet
  facet normal 0 -1 2.22045e-16
    outer loop
      vertex -2 -13.4 7.475
      vertex -2.0375 -13.4 7.47095
      vertex 2.03984 -13.4 7.475
    endloop
  endfacet
  facet normal 0 -1 2.22045e-16
    outer loop
      vertex -2.42378 -13.4 8.14
      vertex -2.0375 -13.4 7.47095
      vertex -2 -13.4 8.14
    endloop
  endfacet
  facet normal 0 1 -2.22045e-16
    outer loop
      vertex -2 -17.2 14.5291
      vertex -2 -17.2 11.8879
      vertex -2.0375 -17.2 14.5291
    endloop
  endfacet
  facet normal 0 1 -2.22045e-16
    outer loop
      vertex -2.0375 -17.2 14.5291
      vertex -2 -17.2 11.8879
      vertex -2.29108 -17.2 11.5229
    endloop
  endfacet
  facet normal 0 1 -2.22045e-16
    outer loop
      vertex 8.66738e-17 -17.2 8.65
      vertex 2.0375 -17.2 7.47095
      vertex -1.8373 -17.2 9.5348
    endloop
  endfacet
  facet normal 0 1 -2.22045e-16
    outer loop
      vertex 1.8373 -17.2 9.5348
      vertex 2.17173 -17.2 11
      vertex 4.075 -17.2 11
    endloop
  endfacet
  facet normal 0 1 -2.22045e-16
    outer loop
      vertex 1.8373 -17.2 9.5348
      vertex 4.075 -17.2 11
      vertex 2.0375 -17.2 7.47095
    endloop
  endfacet
  facet normal 0 1 -2.22045e-16
    outer loop
      vertex 1.8373 -17.2 9.5348
      vertex 2.0375 -17.2 7.47095
      vertex 8.66738e-17 -17.2 8.65
    endloop
  endfacet
  facet normal 0 1 -2.22045e-16
    outer loop
      vertex -1.8373 -17.2 9.5348
      vertex 2.0375 -17.2 7.47095
      vertex -2.0375 -17.2 7.47095
    endloop
  endfacet
  facet normal 0 1 -2.22045e-16
    outer loop
      vertex -1.8373 -17.2 9.5348
      vertex -2.0375 -17.2 7.47095
      vertex -2.29108 -17.2 11.5229
    endloop
  endfacet
  facet normal 0 1 -2.22045e-16
    outer loop
      vertex -2.29108 -17.2 11.5229
      vertex -2.0375 -17.2 7.47095
      vertex -4.075 -17.2 11
    endloop
  endfacet
  facet normal 0 1 -2.22045e-16
    outer loop
      vertex -2.29108 -17.2 11.5229
      vertex -4.075 -17.2 11
      vertex -2.0375 -17.2 14.5291
    endloop
  endfacet
  facet normal 1 0 0
    outer loop
      vertex -2 -13.4 14.825
      vertex -2 -17.2 14.5291
      vertex -2 -13.4 14.5291
    endloop
  endfacet
  facet normal 1 0 0
    outer loop
      vertex -2 -17.2 14.825
      vertex -2 -17.2 14.5291
      vertex -2 -13.4 14.825
    endloop
  endfacet
  facet normal 1 0 0
    outer loop
      vertex -2 -17.2 11.8879
      vertex -2 -17.2 14.5291
      vertex -2 -17.2 14.825
    endloop
  endfacet
  facet normal -0.866025 1.11022e-16 0.5
    outer loop
      vertex 2.03984 -17.2 7.475
      vertex 2.03984 -13.4 7.475
      vertex 2.0375 -13.4 7.47095
    endloop
  endfacet
  facet normal -0.866025 1.11022e-16 0.5
    outer loop
      vertex 2.03984 -17.2 7.475
      vertex 2.0375 -13.4 7.47095
      vertex 2.0375 -17.2 7.47095
    endloop
  endfacet
  facet normal -0.866025 1.11022e-16 0.5
    outer loop
      vertex 2.03984 -17.2 7.475
      vertex 2.0375 -17.2 7.47095
      vertex 4.075 -17.2 11
    endloop
  endfacet
  facet normal 0 -2.22045e-16 -1
    outer loop
      vertex -2.0375 -13.4 14.5291
      vertex 2.0375 -13.4 14.5291
      vertex -2 -13.4 14.5291
    endloop
  endfacet
  facet normal 0 -2.22045e-16 -1
    outer loop
      vertex -2.0375 -13.4 14.5291
      vertex -2 -13.4 14.5291
      vertex -2 -17.2 14.5291
    endloop
  endfacet
  facet normal 0 -2.22045e-16 -1
    outer loop
      vertex -2.0375 -13.4 14.5291
      vertex -2 -17.2 14.5291
      vertex -2.0375 -17.2 14.5291
    endloop
  endfacet
  facet normal 0 2.22045e-16 1
    outer loop
      vertex 2.0375 -17.2 7.47095
      vertex 2.0375 -13.4 7.47095
      vertex -2.0375 -13.4 7.47095
    endloop
  endfacet
  facet normal 0 2.22045e-16 1
    outer loop
      vertex -2.0375 -17.2 7.47095
      vertex 2.0375 -17.2 7.47095
      vertex -2.0375 -13.4 7.47095
    endloop
  endfacet
endsolid OpenSCAD_Model
