999
dxfrw 0.5.11
0
SECTION
2
HEADER
9
$ACADVER
1
AC1021
9
$HANDSEED
5
20000
9
$DWGCODEPAGE
3
ANSI_1252
9
$INSBASE
10
0
20
0
30
0
9
$EXTMIN
10
6.096499
20
19.798851
30
0
9
$EXTMAX
10
602.217744
20
389.877187
30
0
9
$LIMMIN
10
0
20
0
9
$LIMMAX
10
420
20
297
9
$ORTHOMODE
70
0
9
$LTSCALE
40
1
9
$TEXTSTYLE
7
STANDARD
9
$CLAYER
8
0
9
$DIMASZ
40
2.5
9
$DIMLFAC
40
1
9
$DIMSCALE
40
1
9
$DIMEXO
40
0.625
9
$DIMEXE
40
1.25
9
$DIMTXT
40
2.5
9
$DIMTSZ
40
0
9
$DIMAUNIT
70
0
9
$DIMADEC
70
0
9
$DIMLUNIT
70
2
9
$DIMSTYLE
2
Standard
9
$DIMGAP
40
0.625
9
$DIMTIH
70
0
9
$LUNITS
70
2
9
$LUPREC
70
4
9
$AUNITS
70
0
9
$AUPREC
70
2
9
$SPLINESEGS
70
8
9
$GRIDMODE
70
0
9
$SNAPSTYLE
70
0
9
$PINSBASE
10
0
20
0
30
0
9
$PLIMMIN
10
0
20
0
9
$PLIMMAX
10
210
20
297
9
$INSUNITS
70
4
9
$PSVPSCALE
40
1
0
ENDSEC
0
SECTION
2
CLASSES
0
ENDSEC
0
SECTION
2
TABLES
0
TABLE
2
VPORT
5
8
330
0
100
AcDbSymbolTable
70
1
0
VPORT
5
31
330
2
100
AcDbSymbolTableRecord
100
AcDbViewportTableRecord
2
*ACTIVE
70
0
10
0
20
0
11
1
21
1
12
310.985609103
22
202.211972892
13
0
23
0
14
10
24
10
15
10
25
10
16
0
26
0
36
1
17
0
27
0
37
0
40
532.8125
41
1.40696117805
42
50
43
0
44
0
50
0
51
0
71
0
72
100
73
1
74
3
75
0
76
0
77
0
78
0
281
0
65
1
110
0
120
0
130
0
111
1
121
0
131
0
112
0
122
1
132
0
79
0
146
0
348
10020
60
7
61
5
292
1
282
1
141
0
142
0
63
250
421
3358443
0
ENDTAB
0
TABLE
2
LTYPE
5
5
330
0
100
AcDbSymbolTable
70
4
0
LTYPE
5
14
330
5
100
AcDbSymbolTableRecord
100
AcDbLinetypeTableRecord
2
ByBlock
70
0
3

72
65
73
0
40
0
0
LTYPE
5
15
330
5
100
AcDbSymbolTableRecord
100
AcDbLinetypeTableRecord
2
ByLayer
70
0
3

72
65
73
0
40
0
0
LTYPE
5
16
330
5
100
AcDbSymbolTableRecord
100
AcDbLinetypeTableRecord
2
Continuous
70
0
3
Solid line
72
65
73
0
40
0
0
LTYPE
5
32
330
5
100
AcDbSymbolTableRecord
100
AcDbLinetypeTableRecord
2
DOT
70
0
3
Dot . . . . . . . . . . . . . . . . . . . . . .
72
65
73
2
40
6.35
49
0
74
0
49
-6.35
74
0
0
LTYPE
5
33
330
5
100
AcDbSymbolTableRecord
100
AcDbLinetypeTableRecord
2
DOT2
70
0
3
Dot (.5x) .....................................
72
65
73
2
40
3.175
49
0
74
0
49
-3.175
74
0
0
LTYPE
5
34
330
5
100
AcDbSymbolTableRecord
100
AcDbLinetypeTableRecord
2
DOTX2
70
0
3
Dot (2x) .  .  .  .  .  .  .  .  .  .  .  .  .
72
65
73
2
40
12.7
49
0
74
0
49
-12.7
74
0
0
LTYPE
5
35
330
5
100
AcDbSymbolTableRecord
100
AcDbLinetypeTableRecord
2
DASHED
70
0
3
Dot . . . . . . . . . . . . . . . . . . . . . .
72
65
73
2
40
19.05
49
12.7
74
0
49
-6.35
74
0
0
LTYPE
5
36
330
5
100
AcDbSymbolTableRecord
100
AcDbLinetypeTableRecord
2
DASHED2
70
0
3
Dashed (.5x) _ _ _ _ _ _ _ _ _ _ _ _ _ _ _ _ _
72
65
73
2
40
9.525
49
6.35
74
0
49
-3.175
74
0
0
LTYPE
5
37
330
5
100
AcDbSymbolTableRecord
100
AcDbLinetypeTableRecord
2
DASHEDX2
70
0
3
Dashed (2x) ____  ____  ____  ____  ____  ___
72
65
73
2
40
38.1
49
25.4
74
0
49
-12.7
74
0
0
LTYPE
5
38
330
5
100
AcDbSymbolTableRecord
100
AcDbLinetypeTableRecord
2
DASHDOT
70
0
3
Dash dot __ . __ . __ . __ . __ . __ . __ . __
72
65
73
4
40
25.4
49
12.7
74
0
49
-6.35
74
0
49
0
74
0
49
-6.35
74
0
0
LTYPE
5
39
330
5
100
AcDbSymbolTableRecord
100
AcDbLinetypeTableRecord
2
DASHDOT2
70
0
3
Dash dot (.5x) _._._._._._._._._._._._._._._.
72
65
73
4
40
12.7
49
6.35
74
0
49
-3.175
74
0
49
0
74
0
49
-3.175
74
0
0
LTYPE
5
3A
330
5
100
AcDbSymbolTableRecord
100
AcDbLinetypeTableRecord
2
DASHDOTX2
70
0
3
Dash dot (2x) ____  .  ____  .  ____  .  ___
72
65
73
4
40
50.8
49
25.4
74
0
49
-12.7
74
0
49
0
74
0
49
-12.7
74
0
0
LTYPE
5
3B
330
5
100
AcDbSymbolTableRecord
100
AcDbLinetypeTableRecord
2
DIVIDE
70
0
3
Divide ____ . . ____ . . ____ . . ____ . . ____
72
65
73
6
40
31.75
49
12.7
74
0
49
-6.35
74
0
49
0
74
0
49
-6.35
74
0
49
0
74
0
49
-6.35
74
0
0
LTYPE
5
3C
330
5
100
AcDbSymbolTableRecord
100
AcDbLinetypeTableRecord
2
DIVIDE2
70
0
3
Divide (.5x) __..__..__..__..__..__..__..__.._
72
65
73
6
40
15.875
49
6.35
74
0
49
-3.175
74
0
49
0
74
0
49
-3.175
74
0
49
0
74
0
49
-3.175
74
0
0
LTYPE
5
3D
330
5
100
AcDbSymbolTableRecord
100
AcDbLinetypeTableRecord
2
DIVIDEX2
70
0
3
Divide (2x) ________  .  .  ________  .  .  _
72
65
73
6
40
63.5
49
25.4
74
0
49
-12.7
74
0
49
0
74
0
49
-12.7
74
0
49
0
74
0
49
-12.7
74
0
0
LTYPE
5
3E
330
5
100
AcDbSymbolTableRecord
100
AcDbLinetypeTableRecord
2
BORDER
70
0
3
Border __ __ . __ __ . __ __ . __ __ . __ __ .
72
65
73
6
40
44.45
49
12.7
74
0
49
-6.35
74
0
49
12.7
74
0
49
-6.35
74
0
49
0
74
0
49
-6.35
74
0
0
LTYPE
5
3F
330
5
100
AcDbSymbolTableRecord
100
AcDbLinetypeTableRecord
2
BORDER2
70
0
3
Border (.5x) __.__.__.__.__.__.__.__.__.__.__.
72
65
73
6
40
22.225
49
6.35
74
0
49
-3.175
74
0
49
6.35
74
0
49
-3.175
74
0
49
0
74
0
49
-3.175
74
0
0
LTYPE
5
40
330
5
100
AcDbSymbolTableRecord
100
AcDbLinetypeTableRecord
2
BORDERX2
70
0
3
Border (2x) ____  ____  .  ____  ____  .  ___
72
65
73
6
40
88.9
49
25.4
74
0
49
-12.7
74
0
49
25.4
74
0
49
-12.7
74
0
49
0
74
0
49
-12.7
74
0
0
LTYPE
5
41
330
5
100
AcDbSymbolTableRecord
100
AcDbLinetypeTableRecord
2
CENTER
70
0
3
Center ____ _ ____ _ ____ _ ____ _ ____ _ ____
72
65
73
4
40
50.8
49
31.75
74
0
49
-6.35
74
0
49
6.35
74
0
49
-6.35
74
0
0
LTYPE
5
42
330
5
100
AcDbSymbolTableRecord
100
AcDbLinetypeTableRecord
2
CENTER2
70
0
3
Center (.5x) ___ _ ___ _ ___ _ ___ _ ___ _ ___
72
65
73
4
40
28.575
49
19.05
74
0
49
-3.175
74
0
49
3.175
74
0
49
-3.175
74
0
0
LTYPE
5
43
330
5
100
AcDbSymbolTableRecord
100
AcDbLinetypeTableRecord
2
CENTERX2
70
0
3
Center (2x) ________  __  ________  __  _____
72
65
73
4
40
101.6
49
63.5
74
0
49
-12.7
74
0
49
12.7
74
0
49
-12.7
74
0
0
ENDTAB
0
TABLE
2
LAYER
5
2
330
0
100
AcDbSymbolTable
70
1
0
LAYER
5
10
330
2
100
AcDbSymbolTableRecord
100
AcDbLayerTableRecord
2
0
70
0
62
7
6
CONTINUOUS
370
-3
390
F
0
LAYER
5
44
330
2
100
AcDbSymbolTableRecord
100
AcDbLayerTableRecord
2
ProfileEdges
70
0
62
7
6
CONTINUOUS
370
-3
390
F
0
LAYER
5
45
330
2
100
AcDbSymbolTableRecord
100
AcDbLayerTableRecord
2
SectionCutEdges
70
0
62
7
6
CONTINUOUS
370
-3
390
F
0
ENDTAB
0
TABLE
2
STYLE
5
3
330
0
100
AcDbSymbolTable
70
3
0
STYLE
5
46
330
2
100
AcDbSymbolTableRecord
100
AcDbTextStyleTableRecord
2
Standard
70
0
40
0
41
1
50
0
71
0
42
1
3
txt
4

0
ENDTAB
0
TABLE
2
VIEW
5
6
330
0
100
AcDbSymbolTable
70
0
0
ENDTAB
0
TABLE
2
UCS
5
7
330
0
100
AcDbSymbolTable
70
0
0
ENDTAB
0
TABLE
2
APPID
5
9
330
0
100
AcDbSymbolTable
70
1
0
APPID
5
12
330
9
100
AcDbSymbolTableRecord
100
AcDbRegAppTableRecord
2
ACAD
70
0
0
ENDTAB
0
TABLE
2
DIMSTYLE
5
A
330
0
100
AcDbSymbolTable
70
1
100
AcDbDimStyleTable
71
1
0
DIMSTYLE
105
47
330
A
100
AcDbSymbolTableRecord
100
AcDbDimStyleTableRecord
2
Standard
70
0
40
1
41
2.5
42
0.625
43
0.38
44
1.25
45
0
46
0
47
0
48
0
140
2.5
141
0.09
142
0
143
25.4
144
1
145
0
146
1
147
0.625
148
0
71
0
72
0
73
0
74
1
75
0
76
0
77
0
78
0
79
0
170
0
171
2
172
0
173
0
174
0
175
0
176
0
177
0
178
0
179
0
271
4
272
4
273
2
274
2
275
0
276
0
277
2
278
46
279
0
280
0
281
0
282
0
283
1
284
0
285
0
286
0
288
0
289
3
340
Standard
341

371
-2
372
-2
0
ENDTAB
0
TABLE
2
BLOCK_RECORD
5
1
330
0
100
AcDbSymbolTable
70
2
0
BLOCK_RECORD
5
1F
330
1
100
AcDbSymbolTableRecord
100
AcDbBlockTableRecord
2
*Model_Space
70
0
280
1
281
0
0
BLOCK_RECORD
5
1E
330
1
100
AcDbSymbolTableRecord
100
AcDbBlockTableRecord
2
*Paper_Space
70
0
280
1
281
0
0
ENDTAB
0
ENDSEC
0
SECTION
2
BLOCKS
0
BLOCK
5
20
330
1F
100
AcDbEntity
8
0
100
AcDbBlockBegin
2
*Model_Space
70
0
10
0
20
0
30
0
3
*Model_Space
1

0
ENDBLK
5
21
330
1F
100
AcDbEntity
8
0
100
AcDbBlockEnd
0
BLOCK
5
1C
330
1B
100
AcDbEntity
8
0
100
AcDbBlockBegin
2
*Paper_Space
70
0
10
0
20
0
30
0
3
*Paper_Space
1

0
ENDBLK
5
1D
330
1F
100
AcDbEntity
8
0
100
AcDbBlockEnd
0
ENDSEC
0
SECTION
2
ENTITIES
0
LWPOLYLINE
5
48
100
AcDbEntity
8
0
6
ByLayer
62
2
370
-1
100
AcDbPolyline
90
2
70
0
43
0
10
204.096493
20
199.806171
10
204.026141
20
199.806171
0
LWPOLYLINE
5
49
100
AcDbEntity
8
0
6
ByLayer
62
2
370
-1
100
AcDbPolyline
90
2
70
0
43
0
10
244.096489
20
159.806194
10
244.026137
20
159.806194
0
LWPOLYLINE
5
4A
100
AcDbEntity
8
0
6
ByLayer
62
2
370
-1
100
AcDbPolyline
90
2
70
0
43
0
10
148.096498
20
199.806171
10
108.096502
20
159.806194
0
LWPOLYLINE
5
4B
100
AcDbEntity
8
0
6
ByLayer
62
2
370
-1
100
AcDbPolyline
90
2
70
0
43
0
10
204.096493
20
199.806171
10
244.096489
20
159.806194
0
LWPOLYLINE
5
4C
100
AcDbEntity
8
0
6
ByLayer
62
2
370
-1
100
AcDbPolyline
90
2
70
0
43
0
10
204.026141
20
199.806171
10
244.026137
20
159.806194
0
LWPOLYLINE
5
4D
100
AcDbEntity
8
0
6
ByLayer
62
2
370
-1
100
AcDbPolyline
90
2
70
0
43
0
10
148.026145
20
199.806171
10
108.026146
20
159.806194
0
LWPOLYLINE
5
4E
100
AcDbEntity
8
0
6
ByLayer
62
2
370
-1
100
AcDbPolyline
90
2
70
0
43
0
10
108.096502
20
159.806194
10
108.026146
20
159.806194
0
LWPOLYLINE
5
4F
100
AcDbEntity
8
0
6
ByLayer
62
2
370
-1
100
AcDbPolyline
90
2
70
0
43
0
10
148.096498
20
199.806171
10
148.026145
20
199.806171
0
LWPOLYLINE
5
50
100
AcDbEntity
8
0
6
ByLayer
62
1
370
-1
100
AcDbPolyline
90
2
70
0
43
0
10
11.096517
20
19.806192
10
6.096499
20
24.61444
0
LWPOLYLINE
5
51
100
AcDbEntity
8
0
6
ByLayer
62
1
370
-1
100
AcDbPolyline
90
4
70
0
43
0
10
6.096499
20
384.806167
10
11.096517
20
389.806169
10
371.096484
20
389.806169
10
376.096474
20
384.806167
0
LWPOLYLINE
5
52
100
AcDbEntity
8
0
6
ByLayer
62
1
370
-1
100
AcDbPolyline
90
2
70
0
43
0
10
376.096474
20
24.80621
10
371.096484
20
19.806192
0
LWPOLYLINE
5
53
100
AcDbEntity
8
0
6
ByLayer
62
1
370
-1
100
AcDbPolyline
90
4
70
0
43
0
10
351.096467
20
19.806192
10
349.096471
20
21.806188
10
33.096502
20
21.806188
10
31.096506
20
19.806192
0
LWPOLYLINE
5
54
100
AcDbEntity
8
0
6
ByLayer
62
7
370
-1
100
AcDbPolyline
90
10
70
0
43
0
10
86.096503
20
59.806197
10
66.096504
20
59.806197
10
61.096505
20
64.806187
10
61.096505
20
344.806171
10
66.096504
20
349.806173
10
316.096481
20
349.806173
10
321.096471
20
344.806171
10
321.096471
20
64.806187
10
316.096481
20
59.806197
10
296.096492
20
59.806197
0
LWPOLYLINE
5
55
100
AcDbEntity
8
0
6
ByLayer
62
7
370
-1
100
AcDbPolyline
90
3
70
0
43
0
10
186.096495
20
34.80619
10
196.096495
20
34.80619
10
221.096493
20
59.806197
0
LWPOLYLINE
5
56
100
AcDbEntity
8
0
6
ByLayer
62
7
370
-1
100
AcDbPolyline
90
2
70
0
43
0
10
186.096495
20
34.80619
10
161.096497
20
59.806197
0
LWPOLYLINE
5
57
100
AcDbEntity
8
0
6
ByLayer
62
7
370
-1
100
AcDbPolyline
90
2
70
0
43
0
10
116.0965
20
59.806197
10
161.096497
20
59.806197
0
LWPOLYLINE
5
58
100
AcDbEntity
8
0
6
ByLayer
62
7
370
-1
100
AcDbPolyline
90
2
70
0
43
0
10
221.096493
20
59.806197
10
266.096488
20
59.806197
0
LWPOLYLINE
5
59
100
AcDbEntity
8
0
6
ByLayer
62
2
370
-1
100
AcDbPolyline
90
2
70
0
43
0
10
236.096491
20
249.806178
10
236.096491
20
249.735825
0
LWPOLYLINE
5
5A
100
AcDbEntity
8
0
6
ByLayer
62
2
370
-1
100
AcDbPolyline
90
2
70
0
43
0
10
356.096485
20
25.806208
10
356.376168
20
25.84301
0
LWPOLYLINE
5
5B
100
AcDbEntity
8
0
6
ByLayer
62
1
370
-1
100
AcDbPolyline
90
2
70
0
43
0
10
6.096499
20
24.61444
10
6.096499
20
384.806167
0
LWPOLYLINE
5
5C
100
AcDbEntity
8
0
6
ByLayer
62
1
370
-1
100
AcDbPolyline
90
2
70
0
43
0
10
376.096474
20
384.806167
10
376.096474
20
24.80621
0
LWPOLYLINE
5
5D
100
AcDbEntity
8
0
6
ByLayer
62
1
370
-1
100
AcDbPolyline
90
2
70
0
43
0
10
371.096484
20
19.806192
10
351.096467
20
19.806192
0
LWPOLYLINE
5
5E
100
AcDbEntity
8
0
6
ByLayer
62
1
370
-1
100
AcDbPolyline
90
2
70
0
43
0
10
31.096506
20
19.806192
10
11.096517
20
19.806192
0
LWPOLYLINE
5
5F
100
AcDbEntity
8
0
6
ByLayer
62
2
370
-1
100
AcDbPolyline
90
2
70
0
43
0
10
348.19638
20
31.843026
10
347.796781
20
30.878306
0
LWPOLYLINE
5
60
100
AcDbEntity
8
0
6
ByLayer
62
2
370
-1
100
AcDbPolyline
90
2
70
0
43
0
10
347.660468
20
29.84303
10
347.796781
20
28.807754
0
LWPOLYLINE
5
61
100
AcDbEntity
8
0
6
ByLayer
62
2
370
-1
100
AcDbPolyline
90
2
70
0
43
0
10
350.625184
20
33.706709
10
349.660464
20
33.30711
0
LWPOLYLINE
5
62
100
AcDbEntity
8
0
6
ByLayer
62
2
370
-1
100
AcDbPolyline
90
2
70
0
43
0
10
360.691712
20
33.706709
10
359.656436
20
33.843022
0
LWPOLYLINE
5
63
100
AcDbEntity
8
0
6
ByLayer
62
2
370
-1
100
AcDbPolyline
90
2
70
0
43
0
10
362.484868
20
27.014599
10
363.120545
20
27.843006
0
LWPOLYLINE
5
64
100
AcDbEntity
8
0
6
ByLayer
62
2
370
-1
100
AcDbPolyline
90
2
70
0
43
0
10
361.656432
20
26.378922
10
362.484868
20
27.014599
0
LWPOLYLINE
5
65
100
AcDbEntity
8
0
6
ByLayer
62
2
370
-1
100
AcDbPolyline
90
2
70
0
43
0
10
360.691712
20
25.979323
10
361.656432
20
26.378922
0
LWPOLYLINE
5
66
100
AcDbEntity
8
0
6
ByLayer
62
2
370
-1
100
AcDbPolyline
90
3
70
0
43
0
10
349.660464
20
26.378922
10
350.625184
20
25.979323
10
351.66046
20
25.84301
0
LWPOLYLINE
5
67
100
AcDbEntity
8
0
6
ByLayer
62
2
370
-1
100
AcDbPolyline
90
2
70
0
43
0
10
347.796781
20
28.807754
10
348.19638
20
27.843006
0
LWPOLYLINE
5
68
100
AcDbEntity
8
0
6
ByLayer
62
2
370
-1
100
AcDbPolyline
90
2
70
0
43
0
10
362.484868
20
32.671433
10
361.656432
20
33.30711
0
LWPOLYLINE
5
69
100
AcDbEntity
8
0
6
ByLayer
62
2
370
-1
100
AcDbPolyline
90
2
70
0
43
0
10
363.120545
20
31.843026
10
362.484868
20
32.671433
0
LWPOLYLINE
5
6A
100
AcDbEntity
8
0
6
ByLayer
62
2
370
-1
100
AcDbPolyline
90
2
70
0
43
0
10
351.66046
20
33.843022
10
359.656436
20
33.843022
0
LWPOLYLINE
5
6B
100
AcDbEntity
8
0
6
ByLayer
62
2
370
-1
100
AcDbPolyline
90
3
70
0
43
0
10
349.660464
20
33.30711
10
348.832057
20
32.671433
10
348.19638
20
31.843026
0
LWPOLYLINE
5
6C
100
AcDbEntity
8
0
6
ByLayer
62
2
370
-1
100
AcDbPolyline
90
2
70
0
43
0
10
348.832057
20
27.014599
10
349.660464
20
26.378922
0
LWPOLYLINE
5
6D
100
AcDbEntity
8
0
6
ByLayer
62
2
370
-1
100
AcDbPolyline
90
2
70
0
43
0
10
363.520143
20
30.878306
10
363.120545
20
31.843026
0
LWPOLYLINE
5
6E
100
AcDbEntity
8
0
6
ByLayer
62
2
370
-1
100
AcDbPolyline
90
2
70
0
43
0
10
347.796781
20
30.878306
10
347.660468
20
29.84303
0
LWPOLYLINE
5
6F
100
AcDbEntity
8
0
6
ByLayer
62
2
370
-1
100
AcDbPolyline
90
2
70
0
43
0
10
348.19638
20
27.843006
10
348.832057
20
27.014599
0
LWPOLYLINE
5
70
100
AcDbEntity
8
0
6
ByLayer
62
2
370
-1
100
AcDbPolyline
90
2
70
0
43
0
10
363.520143
20
28.807754
10
363.656428
20
29.84303
0
LWPOLYLINE
5
71
100
AcDbEntity
8
0
6
ByLayer
62
2
370
-1
100
AcDbPolyline
90
2
70
0
43
0
10
363.120545
20
27.843006
10
363.520143
20
28.807754
0
LWPOLYLINE
5
72
100
AcDbEntity
8
0
6
ByLayer
62
2
370
-1
100
AcDbPolyline
90
2
70
0
43
0
10
351.66046
20
33.843022
10
350.625184
20
33.706709
0
LWPOLYLINE
5
73
100
AcDbEntity
8
0
6
ByLayer
62
2
370
-1
100
AcDbPolyline
90
2
70
0
43
0
10
359.723295
20
25.84301
10
360.691712
20
25.979323
0
LWPOLYLINE
5
74
100
AcDbEntity
8
0
6
ByLayer
62
2
370
-1
100
AcDbPolyline
90
2
70
0
43
0
10
351.66046
20
25.84301
10
355.816803
20
25.84301
0
LWPOLYLINE
5
75
100
AcDbEntity
8
0
6
ByLayer
62
2
370
-1
100
AcDbPolyline
90
2
70
0
43
0
10
363.656428
20
29.84303
10
363.520143
20
30.878306
0
LWPOLYLINE
5
76
100
AcDbEntity
8
0
6
ByLayer
62
2
370
-1
100
AcDbPolyline
90
2
70
0
43
0
10
361.656432
20
33.30711
10
360.691712
20
33.706709
0
LWPOLYLINE
5
77
100
AcDbEntity
8
0
6
ByLayer
62
2
370
-1
100
AcDbPolyline
90
2
70
0
43
0
10
355.816803
20
25.84301
10
356.096485
20
25.806208
0
LWPOLYLINE
5
78
100
AcDbEntity
8
0
6
ByLayer
62
2
370
-1
100
AcDbPolyline
90
3
70
0
43
0
10
355.816803
20
25.84301
10
356.376168
20
25.84301
10
359.723295
20
25.84301
0
LWPOLYLINE
5
79
100
AcDbEntity
8
0
6
ByLayer
62
2
370
-1
100
AcDbPolyline
90
2
70
0
43
0
10
18.122976
20
29.84303
10
18.259261
20
28.807754
0
LWPOLYLINE
5
7A
100
AcDbEntity
8
0
6
ByLayer
62
2
370
-1
100
AcDbPolyline
90
2
70
0
43
0
10
18.658887
20
31.843026
10
18.259261
20
30.878306
0
LWPOLYLINE
5
7B
100
AcDbEntity
8
0
6
ByLayer
62
2
370
-1
100
AcDbPolyline
90
2
70
0
43
0
10
21.087692
20
33.706709
10
20.122972
20
33.30711
0
LWPOLYLINE
5
7C
100
AcDbEntity
8
0
6
ByLayer
62
2
370
-1
100
AcDbPolyline
90
2
70
0
43
0
10
31.15422
20
33.706709
10
30.118945
20
33.843022
0
LWPOLYLINE
5
7D
100
AcDbEntity
8
0
6
ByLayer
62
2
370
-1
100
AcDbPolyline
90
2
70
0
43
0
10
32.947376
20
27.014599
10
33.583053
20
27.843006
0
LWPOLYLINE
5
7E
100
AcDbEntity
8
0
6
ByLayer
62
2
370
-1
100
AcDbPolyline
90
2
70
0
43
0
10
32.118941
20
26.378922
10
32.947376
20
27.014599
0
LWPOLYLINE
5
7F
100
AcDbEntity
8
0
6
ByLayer
62
2
370
-1
100
AcDbPolyline
90
2
70
0
43
0
10
31.15422
20
25.979323
10
32.118941
20
26.378922
0
LWPOLYLINE
5
80
100
AcDbEntity
8
0
6
ByLayer
62
2
370
-1
100
AcDbPolyline
90
3
70
0
43
0
10
20.122972
20
26.378922
10
21.087692
20
25.979323
10
22.122968
20
25.84301
0
LWPOLYLINE
5
81
100
AcDbEntity
8
0
6
ByLayer
62
2
370
-1
100
AcDbPolyline
90
2
70
0
43
0
10
18.259261
20
28.807754
10
18.658887
20
27.843006
0
LWPOLYLINE
5
82
100
AcDbEntity
8
0
6
ByLayer
62
2
370
-1
100
AcDbPolyline
90
2
70
0
43
0
10
32.947376
20
32.671433
10
32.118941
20
33.30711
0
LWPOLYLINE
5
83
100
AcDbEntity
8
0
6
ByLayer
62
2
370
-1
100
AcDbPolyline
90
2
70
0
43
0
10
33.583053
20
31.843026
10
32.947376
20
32.671433
0
LWPOLYLINE
5
84
100
AcDbEntity
8
0
6
ByLayer
62
2
370
-1
100
AcDbPolyline
90
2
70
0
43
0
10
22.122968
20
33.843022
10
30.118945
20
33.843022
0
LWPOLYLINE
5
85
100
AcDbEntity
8
0
6
ByLayer
62
2
370
-1
100
AcDbPolyline
90
3
70
0
43
0
10
20.122972
20
33.30711
10
19.294537
20
32.671433
10
18.658887
20
31.843026
0
LWPOLYLINE
5
86
100
AcDbEntity
8
0
6
ByLayer
62
2
370
-1
100
AcDbPolyline
90
2
70
0
43
0
10
19.294537
20
27.014599
10
20.122972
20
26.378922
0
LWPOLYLINE
5
87
100
AcDbEntity
8
0
6
ByLayer
62
2
370
-1
100
AcDbPolyline
90
2
70
0
43
0
10
33.982652
20
30.878306
10
33.583053
20
31.843026
0
LWPOLYLINE
5
88
100
AcDbEntity
8
0
6
ByLayer
62
2
370
-1
100
AcDbPolyline
90
2
70
0
43
0
10
18.259261
20
30.878306
10
18.122976
20
29.84303
0
LWPOLYLINE
5
89
100
AcDbEntity
8
0
6
ByLayer
62
2
370
-1
100
AcDbPolyline
90
2
70
0
43
0
10
18.658887
20
27.843006
10
19.294537
20
27.014599
0
LWPOLYLINE
5
8A
100
AcDbEntity
8
0
6
ByLayer
62
2
370
-1
100
AcDbPolyline
90
2
70
0
43
0
10
33.982652
20
28.807754
10
34.118937
20
29.84303
0
LWPOLYLINE
5
8B
100
AcDbEntity
8
0
6
ByLayer
62
2
370
-1
100
AcDbPolyline
90
2
70
0
43
0
10
33.583053
20
27.843006
10
33.982652
20
28.807754
0
LWPOLYLINE
5
8C
100
AcDbEntity
8
0
6
ByLayer
62
2
370
-1
100
AcDbPolyline
90
2
70
0
43
0
10
22.122968
20
33.843022
10
21.087692
20
33.706709
0
LWPOLYLINE
5
8D
100
AcDbEntity
8
0
6
ByLayer
62
2
370
-1
100
AcDbPolyline
90
2
70
0
43
0
10
30.185803
20
25.84301
10
31.15422
20
25.979323
0
LWPOLYLINE
5
8E
100
AcDbEntity
8
0
6
ByLayer
62
2
370
-1
100
AcDbPolyline
90
2
70
0
43
0
10
22.122968
20
25.84301
10
30.185803
20
25.84301
0
LWPOLYLINE
5
8F
100
AcDbEntity
8
0
6
ByLayer
62
2
370
-1
100
AcDbPolyline
90
2
70
0
43
0
10
34.118937
20
29.84303
10
33.982652
20
30.878306
0
LWPOLYLINE
5
90
100
AcDbEntity
8
0
6
ByLayer
62
2
370
-1
100
AcDbPolyline
90
2
70
0
43
0
10
32.118941
20
33.30711
10
31.15422
20
33.706709
0
LWPOLYLINE
5
91
100
AcDbEntity
8
0
6
ByLayer
62
2
370
-1
100
AcDbPolyline
90
5
70
0
43
0
10
329.846488
20
371.548939
10
329.846488
20
380.548941
10
336.34649
20
380.548941
10
336.34649
20
371.548939
10
329.846488
20
371.548939
0
LWPOLYLINE
5
92
100
AcDbEntity
8
0
6
ByLayer
62
2
370
-1
100
AcDbPolyline
90
5
70
0
43
0
10
329.846488
20
339.248945
10
329.846488
20
348.248944
10
336.34649
20
348.248944
10
336.34649
20
339.248945
10
329.846488
20
339.248945
0
LWPOLYLINE
5
93
100
AcDbEntity
8
0
6
ByLayer
62
2
370
-1
100
AcDbPolyline
90
5
70
0
43
0
10
329.846488
20
216.456181
10
329.846488
20
225.45618
10
336.34649
20
225.45618
10
336.34649
20
216.456181
10
329.846488
20
216.456181
0
LWPOLYLINE
5
94
100
AcDbEntity
8
0
6
ByLayer
62
2
370
-1
100
AcDbPolyline
90
5
70
0
43
0
10
329.846488
20
184.156186
10
329.846488
20
193.156197
10
336.34649
20
193.156197
10
336.34649
20
184.156186
10
329.846488
20
184.156186
0
LWPOLYLINE
5
95
100
AcDbEntity
8
0
6
ByLayer
62
2
370
-1
100
AcDbPolyline
90
5
70
0
43
0
10
329.846488
20
56.456134
10
329.846488
20
65.456144
10
336.34649
20
65.456144
10
336.34649
20
56.456134
10
329.846488
20
56.456134
0
LWPOLYLINE
5
96
100
AcDbEntity
8
0
6
ByLayer
62
2
370
-1
100
AcDbPolyline
90
5
70
0
43
0
10
45.846506
20
371.548939
10
45.846506
20
380.548941
10
52.346504
20
380.548941
10
52.346504
20
371.548939
10
45.846506
20
371.548939
0
LWPOLYLINE
5
97
100
AcDbEntity
8
0
6
ByLayer
62
2
370
-1
100
AcDbPolyline
90
5
70
0
43
0
10
45.846506
20
339.248945
10
45.846506
20
348.248944
10
52.346504
20
348.248944
10
52.346504
20
339.248945
10
45.846506
20
339.248945
0
LWPOLYLINE
5
98
100
AcDbEntity
8
0
6
ByLayer
62
2
370
-1
100
AcDbPolyline
90
5
70
0
43
0
10
45.846506
20
216.456181
10
45.846506
20
225.45618
10
52.346504
20
225.45618
10
52.346504
20
216.456181
10
45.846506
20
216.456181
0
LWPOLYLINE
5
99
100
AcDbEntity
8
0
6
ByLayer
62
2
370
-1
100
AcDbPolyline
90
5
70
0
43
0
10
45.846506
20
184.156186
10
45.846506
20
193.156197
10
52.346504
20
193.156197
10
52.346504
20
184.156186
10
45.846506
20
184.156186
0
LWPOLYLINE
5
9A
100
AcDbEntity
8
0
6
ByLayer
62
2
370
-1
100
AcDbPolyline
90
5
70
0
43
0
10
45.846506
20
56.456134
10
45.846506
20
65.456144
10
52.346504
20
65.456144
10
52.346504
20
56.456134
10
45.846506
20
56.456134
0
LWPOLYLINE
5
9B
100
AcDbEntity
8
0
6
ByLayer
62
2
370
-1
100
AcDbPolyline
90
25
70
0
43
0
10
334.895754
20
204.806161
10
334.834371
20
205.272053
10
334.654483
20
205.706139
10
334.368366
20
206.078898
10
333.99555
20
206.364902
10
333.56138
20
206.544649
10
333.095515
20
206.60592
10
332.629623
20
206.544508
10
332.195537
20
206.36462
10
331.822778
20
206.078531
10
331.536774
20
205.705687
10
331.357026
20
205.271545
10
331.295756
20
204.805653
10
331.357168
20
204.339788
10
331.537056
20
203.905702
10
331.823145
20
203.532943
10
332.195988
20
203.246939
10
332.630131
20
203.067192
10
333.096023
20
203.005921
10
333.561888
20
203.067305
10
333.995974
20
203.247193
10
334.368733
20
203.53331
10
334.654737
20
203.906126
10
334.834484
20
204.340296
10
334.895754
20
204.806161
0
LWPOLYLINE
5
9C
100
AcDbEntity
8
0
6
ByLayer
62
2
370
-1
100
AcDbPolyline
90
25
70
0
43
0
10
334.908483
20
359.806251
10
334.844136
20
360.27172
10
334.66151
20
360.704672
10
334.373051
20
361.075602
10
333.998401
20
361.359233
10
333.563129
20
361.536237
10
333.09687
20
361.59455
10
332.631401
20
361.530197
10
332.198444
20
361.347566
10
331.827519
20
361.059103
10
331.543886
20
360.684465
10
331.366876
20
360.249182
10
331.308569
20
359.78292
10
331.372916
20
359.317454
10
331.555542
20
358.884502
10
331.844001
20
358.513572
10
332.218651
20
358.229941
10
332.653922
20
358.052937
10
333.120182
20
357.994625
10
333.585651
20
358.058977
10
334.018608
20
358.241606
10
334.389532
20
358.530071
10
334.673166
20
358.904709
10
334.850176
20
359.339992
10
334.908483
20
359.806251
0
LWPOLYLINE
5
9D
100
AcDbEntity
8
0
6
ByLayer
62
2
370
-1
100
AcDbPolyline
90
2
70
0
43
0
10
346.099497
20
381.596527
10
345.633633
20
381.535127
0
LWPOLYLINE
5
9E
100
AcDbEntity
8
0
6
ByLayer
62
2
370
-1
100
AcDbPolyline
90
5
70
0
43
0
10
347.899736
20
379.796785
10
347.838353
20
380.262652
10
347.658464
20
380.696752
10
347.372347
20
381.069503
10
346.999532
20
381.355501
0
LWPOLYLINE
5
9F
100
AcDbEntity
8
0
6
ByLayer
62
2
370
-1
100
AcDbPolyline
90
4
70
0
43
0
10
345.633633
20
381.535127
10
345.199518
20
381.355244
10
344.826788
20
381.069139
10
344.540784
20
380.696306
0
LWPOLYLINE
5
A0
100
AcDbEntity
8
0
6
ByLayer
62
2
370
-1
100
AcDbPolyline
90
3
70
0
43
0
10
346.100005
20
377.996529
10
346.565869
20
378.057929
10
346.999983
20
378.237812
0
LWPOLYLINE
5
A1
100
AcDbEntity
8
0
6
ByLayer
62
2
370
-1
100
AcDbPolyline
90
3
70
0
43
0
10
346.999532
20
381.355501
10
346.565361
20
381.53526
10
346.099497
20
381.596527
0
LWPOLYLINE
5
A2
100
AcDbEntity
8
0
6
ByLayer
62
2
370
-1
100
AcDbPolyline
90
5
70
0
43
0
10
344.540784
20
380.696306
10
344.361008
20
380.262153
10
344.299738
20
379.796271
10
344.361149
20
379.330404
10
344.541038
20
378.896304
0
LWPOLYLINE
5
A3
100
AcDbEntity
8
0
6
ByLayer
62
2
370
-1
100
AcDbPolyline
90
5
70
0
43
0
10
346.999983
20
378.237812
10
347.372714
20
378.523918
10
347.658718
20
378.89675
10
347.838494
20
379.330901
10
347.899736
20
379.796785
0
LWPOLYLINE
5
A4
100
AcDbEntity
8
0
6
ByLayer
62
2
370
-1
100
AcDbPolyline
90
5
70
0
43
0
10
344.541038
20
378.896304
10
344.827126
20
378.523554
10
345.19997
20
378.237552
10
345.634112
20
378.057794
10
346.100005
20
377.996529
0
LWPOLYLINE
5
A5
100
AcDbEntity
8
0
6
ByLayer
62
2
370
-1
100
AcDbPolyline
90
2
70
0
43
0
10
367.812687
20
380.295666
10
367.632798
20
380.729767
0
LWPOLYLINE
5
A6
100
AcDbEntity
8
0
6
ByLayer
62
2
370
-1
100
AcDbPolyline
90
3
70
0
43
0
10
365.173853
20
381.388259
10
364.801094
20
381.102153
10
364.51509
20
380.729321
0
LWPOLYLINE
5
A7
100
AcDbEntity
8
0
6
ByLayer
62
2
370
-1
100
AcDbPolyline
90
4
70
0
43
0
10
364.80146
20
378.556568
10
365.174304
20
378.27057
10
365.608447
20
378.090811
10
366.074339
20
378.029543
0
LWPOLYLINE
5
A8
100
AcDbEntity
8
0
6
ByLayer
62
2
370
-1
100
AcDbPolyline
90
3
70
0
43
0
10
364.335483
20
379.363422
10
364.515372
20
378.929321
10
364.80146
20
378.556568
0
LWPOLYLINE
5
A9
100
AcDbEntity
8
0
6
ByLayer
62
2
370
-1
100
AcDbPolyline
90
4
70
0
43
0
10
364.51509
20
380.729321
10
364.335342
20
380.29517
10
364.274072
20
379.829286
10
364.335483
20
379.363422
0
LWPOLYLINE
5
AA
100
AcDbEntity
8
0
6
ByLayer
62
2
370
-1
100
AcDbPolyline
90
2
70
0
43
0
10
366.973866
20
381.388518
10
366.539695
20
381.568277
0
LWPOLYLINE
5
AB
100
AcDbEntity
8
0
6
ByLayer
62
2
370
-1
100
AcDbPolyline
90
2
70
0
43
0
10
367.346682
20
381.102517
10
366.973866
20
381.388518
0
LWPOLYLINE
5
AC
100
AcDbEntity
8
0
6
ByLayer
62
2
370
-1
100
AcDbPolyline
90
2
70
0
43
0
10
367.632798
20
380.729767
10
367.346682
20
381.102517
0
LWPOLYLINE
5
AD
100
AcDbEntity
8
0
6
ByLayer
62
2
370
-1
100
AcDbPolyline
90
4
70
0
43
0
10
366.539695
20
381.568277
10
366.073831
20
381.629542
10
365.607967
20
381.568144
10
365.173853
20
381.388259
0
LWPOLYLINE
5
AE
100
AcDbEntity
8
0
6
ByLayer
62
2
370
-1
100
AcDbPolyline
90
2
70
0
43
0
10
367.87407
20
379.829802
10
367.812687
20
380.295666
0
LWPOLYLINE
5
AF
100
AcDbEntity
8
0
6
ByLayer
62
2
370
-1
100
AcDbPolyline
90
2
70
0
43
0
10
367.8128
20
379.363918
10
367.87407
20
379.829802
0
LWPOLYLINE
5
B0
100
AcDbEntity
8
0
6
ByLayer
62
2
370
-1
100
AcDbPolyline
90
6
70
0
43
0
10
366.074339
20
378.029543
10
366.540203
20
378.090944
10
366.974289
20
378.270826
10
367.347048
20
378.556935
10
367.633052
20
378.929767
10
367.8128
20
379.363918
0
LWPOLYLINE
5
B1
100
AcDbEntity
8
0
6
ByLayer
62
2
370
-1
100
AcDbPolyline
90
2
70
0
43
0
10
345.644555
20
61.535824
10
345.210469
20
61.355935
0
LWPOLYLINE
5
B2
100
AcDbEntity
8
0
6
ByLayer
62
2
370
-1
100
AcDbPolyline
90
2
70
0
43
0
10
347.669386
20
60.697454
10
347.383298
20
61.070213
0
LWPOLYLINE
5
B3
100
AcDbEntity
8
0
6
ByLayer
62
2
370
-1
100
AcDbPolyline
90
2
70
0
43
0
10
344.371958
20
60.26286
10
344.310688
20
59.796968
0
LWPOLYLINE
5
B4
100
AcDbEntity
8
0
6
ByLayer
62
2
370
-1
100
AcDbPolyline
90
2
70
0
43
0
10
347.849275
20
60.26334
10
347.669386
20
60.697454
0
LWPOLYLINE
5
B5
100
AcDbEntity
8
0
6
ByLayer
62
2
370
-1
100
AcDbPolyline
90
2
70
0
43
0
10
344.83771
20
61.069847
10
344.551706
20
60.697003
0
LWPOLYLINE
5
B6
100
AcDbEntity
8
0
6
ByLayer
62
2
370
-1
100
AcDbPolyline
90
2
70
0
43
0
10
347.910686
20
59.797476
10
347.849275
20
60.26334
0
LWPOLYLINE
5
B7
100
AcDbEntity
8
0
6
ByLayer
62
2
370
-1
100
AcDbPolyline
90
2
70
0
43
0
10
345.210469
20
61.355935
10
344.83771
20
61.069847
0
LWPOLYLINE
5
B8
100
AcDbEntity
8
0
6
ByLayer
62
2
370
-1
100
AcDbPolyline
90
2
70
0
43
0
10
346.576311
20
61.535965
10
346.110419
20
61.597235
0
LWPOLYLINE
5
B9
100
AcDbEntity
8
0
6
ByLayer
62
2
370
-1
100
AcDbPolyline
90
2
70
0
43
0
10
345.210892
20
58.238255
10
345.645063
20
58.058507
0
LWPOLYLINE
5
BA
100
AcDbEntity
8
0
6
ByLayer
62
2
370
-1
100
AcDbPolyline
90
3
70
0
43
0
10
346.576819
20
58.05862
10
347.010905
20
58.238509
10
347.383664
20
58.524625
0
LWPOLYLINE
5
BB
100
AcDbEntity
8
0
6
ByLayer
62
2
370
-1
100
AcDbPolyline
90
3
70
0
43
0
10
344.55196
20
58.897018
10
344.838076
20
58.524259
10
345.210892
20
58.238255
0
LWPOLYLINE
5
BC
100
AcDbEntity
8
0
6
ByLayer
62
2
370
-1
100
AcDbPolyline
90
2
70
0
43
0
10
346.110419
20
61.597235
10
345.644555
20
61.535824
0
LWPOLYLINE
5
BD
100
AcDbEntity
8
0
6
ByLayer
62
2
370
-1
100
AcDbPolyline
90
3
70
0
43
0
10
345.645063
20
58.058507
10
346.110927
20
57.997237
10
346.576819
20
58.05862
0
LWPOLYLINE
5
BE
100
AcDbEntity
8
0
6
ByLayer
62
2
370
-1
100
AcDbPolyline
90
3
70
0
43
0
10
347.383298
20
61.070213
10
347.010454
20
61.356189
10
346.576311
20
61.535965
0
LWPOLYLINE
5
BF
100
AcDbEntity
8
0
6
ByLayer
62
2
370
-1
100
AcDbPolyline
90
3
70
0
43
0
10
347.669668
20
58.897441
10
347.849416
20
59.331612
10
347.910686
20
59.797476
0
LWPOLYLINE
5
C0
100
AcDbEntity
8
0
6
ByLayer
62
2
370
-1
100
AcDbPolyline
90
3
70
0
43
0
10
344.310688
20
59.796968
10
344.372071
20
59.331104
10
344.55196
20
58.897018
0
LWPOLYLINE
5
C1
100
AcDbEntity
8
0
6
ByLayer
62
2
370
-1
100
AcDbPolyline
90
2
70
0
43
0
10
347.383664
20
58.524625
10
347.669668
20
58.897441
0
LWPOLYLINE
5
C2
100
AcDbEntity
8
0
6
ByLayer
62
2
370
-1
100
AcDbPolyline
90
2
70
0
43
0
10
344.551706
20
60.697003
10
344.371958
20
60.26286
0
LWPOLYLINE
5
C3
100
AcDbEntity
8
0
6
ByLayer
62
2
370
-1
100
AcDbPolyline
90
4
70
0
43
0
10
366.555641
20
58.013831
10
366.989755
20
58.19372
10
367.362514
20
58.479837
10
367.64849
20
58.852652
0
LWPOLYLINE
5
C4
100
AcDbEntity
8
0
6
ByLayer
62
2
370
-1
100
AcDbPolyline
90
3
70
0
43
0
10
365.623404
20
61.491035
10
365.18929
20
61.311147
10
364.816559
20
61.02503
0
LWPOLYLINE
5
C5
100
AcDbEntity
8
0
6
ByLayer
62
2
370
-1
100
AcDbPolyline
90
3
70
0
43
0
10
364.530809
20
58.852201
10
364.816926
20
58.47947
10
365.189742
20
58.193466
0
LWPOLYLINE
5
C6
100
AcDbEntity
8
0
6
ByLayer
62
2
370
-1
100
AcDbPolyline
90
3
70
0
43
0
10
364.289538
20
59.752179
10
364.350921
20
59.286315
10
364.530809
20
58.852201
0
LWPOLYLINE
5
C7
100
AcDbEntity
8
0
6
ByLayer
62
2
370
-1
100
AcDbPolyline
90
4
70
0
43
0
10
364.816559
20
61.02503
10
364.530555
20
60.652214
10
364.35078
20
60.218072
10
364.289538
20
59.752179
0
LWPOLYLINE
5
C8
100
AcDbEntity
8
0
6
ByLayer
62
2
370
-1
100
AcDbPolyline
90
4
70
0
43
0
10
365.189742
20
58.193466
10
365.623912
20
58.01369
10
366.089777
20
57.95242
10
366.555641
20
58.013831
0
LWPOLYLINE
5
C9
100
AcDbEntity
8
0
6
ByLayer
62
2
370
-1
100
AcDbPolyline
90
2
70
0
43
0
10
366.555161
20
61.491176
10
366.089269
20
61.552447
0
LWPOLYLINE
5
CA
100
AcDbEntity
8
0
6
ByLayer
62
2
370
-1
100
AcDbPolyline
90
2
70
0
43
0
10
367.648236
20
60.652666
10
367.362147
20
61.025397
0
LWPOLYLINE
5
CB
100
AcDbEntity
8
0
6
ByLayer
62
2
370
-1
100
AcDbPolyline
90
2
70
0
43
0
10
367.828124
20
60.218551
10
367.648236
20
60.652666
0
LWPOLYLINE
5
CC
100
AcDbEntity
8
0
6
ByLayer
62
2
370
-1
100
AcDbPolyline
90
3
70
0
43
0
10
367.362147
20
61.025397
10
366.989304
20
61.311401
10
366.555161
20
61.491176
0
LWPOLYLINE
5
CD
100
AcDbEntity
8
0
6
ByLayer
62
2
370
-1
100
AcDbPolyline
90
2
70
0
43
0
10
367.889536
20
59.752687
10
367.828124
20
60.218551
0
LWPOLYLINE
5
CE
100
AcDbEntity
8
0
6
ByLayer
62
2
370
-1
100
AcDbPolyline
90
2
70
0
43
0
10
366.089269
20
61.552447
10
365.623404
20
61.491035
0
LWPOLYLINE
5
CF
100
AcDbEntity
8
0
6
ByLayer
62
2
370
-1
100
AcDbPolyline
90
3
70
0
43
0
10
367.64849
20
58.852652
10
367.828266
20
59.286795
10
367.889536
20
59.752687
0
LWPOLYLINE
5
D0
100
AcDbEntity
8
0
6
ByLayer
62
2
370
-1
100
AcDbPolyline
90
2
70
0
43
0
10
357.658811
20
40.673816
10
357.372722
20
41.046575
0
LWPOLYLINE
5
D1
100
AcDbEntity
8
0
6
ByLayer
62
2
370
-1
100
AcDbPolyline
90
2
70
0
43
0
10
357.838841
20
39.307973
10
357.900111
20
39.773837
0
LWPOLYLINE
5
D2
100
AcDbEntity
8
0
6
ByLayer
62
2
370
-1
100
AcDbPolyline
90
4
70
0
43
0
10
354.827134
20
41.046208
10
354.54113
20
40.673364
10
354.361383
20
40.239222
10
354.300113
20
39.773329
0
LWPOLYLINE
5
D3
100
AcDbEntity
8
0
6
ByLayer
62
2
370
-1
100
AcDbPolyline
90
9
70
0
43
0
10
354.827501
20
38.50062
10
355.200317
20
38.214616
10
355.634488
20
38.034869
10
356.100352
20
37.973598
10
356.566216
20
38.034982
10
357.00033
20
38.21487
10
357.373089
20
38.500987
10
357.659065
20
38.873803
10
357.838841
20
39.307973
0
LWPOLYLINE
5
D4
100
AcDbEntity
8
0
6
ByLayer
62
2
370
-1
100
AcDbPolyline
90
4
70
0
43
0
10
356.099844
20
41.573597
10
355.63398
20
41.512185
10
355.199894
20
41.332297
10
354.827134
20
41.046208
0
LWPOLYLINE
5
D5
100
AcDbEntity
8
0
6
ByLayer
62
2
370
-1
100
AcDbPolyline
90
4
70
0
43
0
10
354.300113
20
39.773329
10
354.361496
20
39.307465
10
354.541384
20
38.873379
10
354.827501
20
38.50062
0
LWPOLYLINE
5
D6
100
AcDbEntity
8
0
6
ByLayer
62
2
370
-1
100
AcDbPolyline
90
3
70
0
43
0
10
357.900111
20
39.773837
10
357.8387
20
40.239702
10
357.658811
20
40.673816
0
LWPOLYLINE
5
D7
100
AcDbEntity
8
0
6
ByLayer
62
2
370
-1
100
AcDbPolyline
90
4
70
0
43
0
10
357.372722
20
41.046575
10
356.999879
20
41.332551
10
356.565736
20
41.512326
10
356.099844
20
41.573597
0
LWPOLYLINE
5
D8
100
AcDbEntity
8
0
6
ByLayer
62
2
370
-1
100
AcDbPolyline
90
25
70
0
43
0
10
334.895754
20
44.806198
10
334.834456
20
45.271893
10
334.654708
20
45.705838
10
334.368761
20
46.078484
10
333.996115
20
46.364404
10
333.56217
20
46.544151
10
333.096475
20
46.605478
10
332.630808
20
46.544151
10
332.196835
20
46.364404
10
331.824189
20
46.078484
10
331.53827
20
45.705838
10
331.358522
20
45.271893
10
331.297195
20
44.806198
10
331.358522
20
44.340503
10
331.53827
20
43.906559
10
331.824189
20
43.533912
10
332.196835
20
43.247965
10
332.630808
20
43.068217
10
333.096475
20
43.006919
10
333.56217
20
43.068217
10
333.996115
20
43.247965
10
334.368761
20
43.533912
10
334.654708
20
43.906559
10
334.834456
20
44.340503
10
334.895754
20
44.806198
0
LWPOLYLINE
5
D9
100
AcDbEntity
8
0
6
ByLayer
62
2
370
-1
100
AcDbPolyline
90
7
70
0
43
0
10
16.531017
20
61.565626
10
16.065152
20
61.626869
10
15.599288
20
61.565485
10
15.165174
20
61.385597
10
14.792415
20
61.09948
10
14.506439
20
60.726664
10
14.326663
20
60.292494
0
LWPOLYLINE
5
DA
100
AcDbEntity
8
0
6
ByLayer
62
2
370
-1
100
AcDbPolyline
90
4
70
0
43
0
10
17.33837
20
58.554259
10
17.624374
20
58.927103
10
17.804121
20
59.361245
10
17.865391
20
59.827137
0
LWPOLYLINE
5
DB
100
AcDbEntity
8
0
6
ByLayer
62
2
370
-1
100
AcDbPolyline
90
4
70
0
43
0
10
14.326663
20
60.292494
10
14.265393
20
59.826629
10
14.326805
20
59.360765
10
14.506693
20
58.926651
0
LWPOLYLINE
5
DC
100
AcDbEntity
8
0
6
ByLayer
62
2
370
-1
100
AcDbPolyline
90
2
70
0
43
0
10
17.804008
20
60.293002
10
17.62412
20
60.727116
0
LWPOLYLINE
5
DD
100
AcDbEntity
8
0
6
ByLayer
62
2
370
-1
100
AcDbPolyline
90
2
70
0
43
0
10
17.865391
20
59.827137
10
17.804008
20
60.293002
0
LWPOLYLINE
5
DE
100
AcDbEntity
8
0
6
ByLayer
62
2
370
-1
100
AcDbPolyline
90
8
70
0
43
0
10
14.506693
20
58.926651
10
14.792782
20
58.55392
10
15.165625
20
58.267916
10
15.599768
20
58.088141
10
16.06566
20
58.02687
10
16.531525
20
58.088282
10
16.965611
20
58.26817
10
17.33837
20
58.554259
0
LWPOLYLINE
5
DF
100
AcDbEntity
8
0
6
ByLayer
62
2
370
-1
100
AcDbPolyline
90
2
70
0
43
0
10
16.965187
20
61.385851
10
16.531017
20
61.565626
0
LWPOLYLINE
5
E0
100
AcDbEntity
8
0
6
ByLayer
62
2
370
-1
100
AcDbPolyline
90
2
70
0
43
0
10
17.338003
20
61.099847
10
16.965187
20
61.385851
0
LWPOLYLINE
5
E1
100
AcDbEntity
8
0
6
ByLayer
62
2
370
-1
100
AcDbPolyline
90
2
70
0
43
0
10
17.62412
20
60.727116
10
17.338003
20
61.099847
0
LWPOLYLINE
5
E2
100
AcDbEntity
8
0
6
ByLayer
62
2
370
-1
100
AcDbPolyline
90
4
70
0
43
0
10
35.613123
20
61.565485
10
35.179023
20
61.385597
10
34.806272
20
61.09948
10
34.520271
20
60.726664
0
LWPOLYLINE
5
E3
100
AcDbEntity
8
0
6
ByLayer
62
2
370
-1
100
AcDbPolyline
90
4
70
0
43
0
10
37.879246
20
59.827137
10
37.817846
20
60.293002
10
37.637963
20
60.727116
10
37.351857
20
61.099847
0
LWPOLYLINE
5
E4
100
AcDbEntity
8
0
6
ByLayer
62
2
370
-1
100
AcDbPolyline
90
3
70
0
43
0
10
36.544871
20
61.565626
10
36.07899
20
61.626869
10
35.613123
20
61.565485
0
LWPOLYLINE
5
E5
100
AcDbEntity
8
0
6
ByLayer
62
2
370
-1
100
AcDbPolyline
90
7
70
0
43
0
10
34.806636
20
58.55392
10
35.179468
20
58.267916
10
35.613622
20
58.088141
10
36.079503
20
58.02687
10
36.54537
20
58.088282
10
36.979471
20
58.26817
10
37.352221
20
58.554259
0
LWPOLYLINE
5
E6
100
AcDbEntity
8
0
6
ByLayer
62
2
370
-1
100
AcDbPolyline
90
3
70
0
43
0
10
37.351857
20
61.099847
10
36.979025
20
61.385851
10
36.544871
20
61.565626
0
LWPOLYLINE
5
E7
100
AcDbEntity
8
0
6
ByLayer
62
2
370
-1
100
AcDbPolyline
90
6
70
0
43
0
10
34.520271
20
60.726664
10
34.340509
20
60.292494
10
34.279239
20
59.826629
10
34.34065
20
59.360765
10
34.52053
20
58.926651
10
34.806636
20
58.55392
0
LWPOLYLINE
5
E8
100
AcDbEntity
8
0
6
ByLayer
62
2
370
-1
100
AcDbPolyline
90
4
70
0
43
0
10
37.352221
20
58.554259
10
37.638222
20
58.927103
10
37.817978
20
59.361245
10
37.879246
20
59.827137
0
LWPOLYLINE
5
E9
100
AcDbEntity
8
0
6
ByLayer
62
2
370
-1
100
AcDbPolyline
90
2
70
0
43
0
10
27.631042
20
40.713271
10
27.344925
20
41.086001
0
LWPOLYLINE
5
EA
100
AcDbEntity
8
0
6
ByLayer
62
2
370
-1
100
AcDbPolyline
90
2
70
0
43
0
10
27.810931
20
40.279156
10
27.631042
20
40.713271
0
LWPOLYLINE
5
EB
100
AcDbEntity
8
0
6
ByLayer
62
2
370
-1
100
AcDbPolyline
90
2
70
0
43
0
10
27.872314
20
39.813292
10
27.810931
20
40.279156
0
LWPOLYLINE
5
EC
100
AcDbEntity
8
0
6
ByLayer
62
2
370
-1
100
AcDbPolyline
90
2
70
0
43
0
10
27.344925
20
41.086001
10
26.97211
20
41.372005
0
LWPOLYLINE
5
ED
100
AcDbEntity
8
0
6
ByLayer
62
2
370
-1
100
AcDbPolyline
90
15
70
0
43
0
10
24.513362
20
40.712819
10
24.333586
20
40.278677
10
24.272316
20
39.812784
10
24.333727
20
39.34692
10
24.513616
20
38.912806
10
24.799704
20
38.540075
10
25.172548
20
38.254071
10
25.606691
20
38.074295
10
26.072583
20
38.013025
10
26.538447
20
38.074436
10
26.972533
20
38.254325
10
27.345292
20
38.540413
10
27.631296
20
38.913257
10
27.811044
20
39.3474
10
27.872314
20
39.813292
0
LWPOLYLINE
5
EE
100
AcDbEntity
8
0
6
ByLayer
62
2
370
-1
100
AcDbPolyline
90
7
70
0
43
0
10
26.97211
20
41.372005
10
26.537939
20
41.551781
10
26.072075
20
41.613023
10
25.606211
20
41.55164
10
25.172097
20
41.371751
10
24.799337
20
41.085635
10
24.513362
20
40.712819
0
LWPOLYLINE
5
EF
100
AcDbEntity
8
0
6
ByLayer
62
2
370
-1
100
AcDbPolyline
90
6
70
0
43
0
10
47.807081
20
43.543536
10
48.179917
20
43.257532
10
48.614068
20
43.077757
10
49.079949
20
43.016486
10
49.545816
20
43.077898
10
49.979916
20
43.257786
0
LWPOLYLINE
5
F0
100
AcDbEntity
8
0
6
ByLayer
62
2
370
-1
100
AcDbPolyline
90
2
70
0
43
0
10
50.818291
20
45.282618
10
50.638408
20
45.716732
0
LWPOLYLINE
5
F1
100
AcDbEntity
8
0
6
ByLayer
62
2
370
-1
100
AcDbPolyline
90
6
70
0
43
0
10
49.97947
20
46.375467
10
49.545319
20
46.555242
10
49.079435
20
46.616485
10
48.613568
20
46.555101
10
48.179468
20
46.375213
10
47.806717
20
46.089096
0
LWPOLYLINE
5
F2
100
AcDbEntity
8
0
6
ByLayer
62
2
370
-1
100
AcDbPolyline
90
2
70
0
43
0
10
50.879691
20
44.816753
10
50.818291
20
45.282618
0
LWPOLYLINE
5
F3
100
AcDbEntity
8
0
6
ByLayer
62
2
370
-1
100
AcDbPolyline
90
5
70
0
43
0
10
49.979916
20
43.257786
10
50.352666
20
43.543875
10
50.638668
20
43.916719
10
50.818426
20
44.350861
10
50.879691
20
44.816753
0
LWPOLYLINE
5
F4
100
AcDbEntity
8
0
6
ByLayer
62
2
370
-1
100
AcDbPolyline
90
7
70
0
43
0
10
47.806717
20
46.089096
10
47.520719
20
45.71628
10
47.34096
20
45.28211
10
47.279693
20
44.816245
10
47.341093
20
44.350381
10
47.520976
20
43.916267
10
47.807081
20
43.543536
0
LWPOLYLINE
5
F5
100
AcDbEntity
8
0
6
ByLayer
62
2
370
-1
100
AcDbPolyline
90
3
70
0
43
0
10
50.638408
20
45.716732
10
50.352302
20
46.089463
10
49.97947
20
46.375467
0
LWPOLYLINE
5
F6
100
AcDbEntity
8
0
6
ByLayer
62
2
370
-1
100
AcDbPolyline
90
4
70
0
43
0
10
48.656116
20
203.064313
10
49.122
20
203.003043
10
49.587864
20
203.064454
10
50.021964
20
203.244343
0
LWPOLYLINE
5
F7
100
AcDbEntity
8
0
6
ByLayer
62
2
370
-1
100
AcDbPolyline
90
4
70
0
43
0
10
49.121483
20
206.603041
10
48.655616
20
206.541658
10
48.221519
20
206.361769
10
47.848766
20
206.075653
0
LWPOLYLINE
5
F8
100
AcDbEntity
8
0
6
ByLayer
62
2
370
-1
100
AcDbPolyline
90
2
70
0
43
0
10
50.860339
20
205.269174
10
50.680456
20
205.703289
0
LWPOLYLINE
5
F9
100
AcDbEntity
8
0
6
ByLayer
62
2
370
-1
100
AcDbPolyline
90
3
70
0
43
0
10
47.562767
20
205.702837
10
47.383009
20
205.268666
10
47.321741
20
204.802802
0
LWPOLYLINE
5
FA
100
AcDbEntity
8
0
6
ByLayer
62
2
370
-1
100
AcDbPolyline
90
3
70
0
43
0
10
50.021964
20
203.244343
10
50.394715
20
203.530431
10
50.680716
20
203.903275
0
LWPOLYLINE
5
FB
100
AcDbEntity
8
0
6
ByLayer
62
2
370
-1
100
AcDbPolyline
90
3
70
0
43
0
10
47.383141
20
204.336938
10
47.563024
20
203.902824
10
47.849132
20
203.530093
0
LWPOLYLINE
5
FC
100
AcDbEntity
8
0
6
ByLayer
62
2
370
-1
100
AcDbPolyline
90
2
70
0
43
0
10
47.321741
20
204.802802
10
47.383141
20
204.336938
0
LWPOLYLINE
5
FD
100
AcDbEntity
8
0
6
ByLayer
62
2
370
-1
100
AcDbPolyline
90
2
70
0
43
0
10
50.021518
20
206.362023
10
49.587367
20
206.541799
0
LWPOLYLINE
5
FE
100
AcDbEntity
8
0
6
ByLayer
62
2
370
-1
100
AcDbPolyline
90
2
70
0
43
0
10
47.848766
20
206.075653
10
47.562767
20
205.702837
0
LWPOLYLINE
5
FF
100
AcDbEntity
8
0
6
ByLayer
62
2
370
-1
100
AcDbPolyline
90
2
70
0
43
0
10
50.394351
20
206.076019
10
50.021518
20
206.362023
0
LWPOLYLINE
5
100
100
AcDbEntity
8
0
6
ByLayer
62
2
370
-1
100
AcDbPolyline
90
2
70
0
43
0
10
50.680456
20
205.703289
10
50.394351
20
206.076019
0
LWPOLYLINE
5
101
100
AcDbEntity
8
0
6
ByLayer
62
2
370
-1
100
AcDbPolyline
90
2
70
0
43
0
10
49.587367
20
206.541799
10
49.121483
20
206.603041
0
LWPOLYLINE
5
102
100
AcDbEntity
8
0
6
ByLayer
62
2
370
-1
100
AcDbPolyline
90
2
70
0
43
0
10
50.921742
20
204.80331
10
50.860339
20
205.269174
0
LWPOLYLINE
5
103
100
AcDbEntity
8
0
6
ByLayer
62
2
370
-1
100
AcDbPolyline
90
3
70
0
43
0
10
47.849132
20
203.530093
10
48.221965
20
203.244089
10
48.656116
20
203.064313
0
LWPOLYLINE
5
104
100
AcDbEntity
8
0
6
ByLayer
62
2
370
-1
100
AcDbPolyline
90
3
70
0
43
0
10
50.680716
20
203.903275
10
50.860475
20
204.337418
10
50.921742
20
204.80331
0
LWPOLYLINE
5
105
100
AcDbEntity
8
0
6
ByLayer
62
2
370
-1
100
AcDbPolyline
90
5
70
0
43
0
10
16.10122
20
378.019649
10
16.567085
20
378.081049
10
17.001171
20
378.260932
10
17.37393
20
378.547037
10
17.659934
20
378.91987
0
LWPOLYLINE
5
106
100
AcDbEntity
8
0
6
ByLayer
62
2
370
-1
100
AcDbPolyline
90
3
70
0
43
0
10
14.362223
20
380.285272
10
14.300953
20
379.819391
10
14.362365
20
379.353524
0
LWPOLYLINE
5
107
100
AcDbEntity
8
0
6
ByLayer
62
2
370
-1
100
AcDbPolyline
90
2
70
0
43
0
10
15.200734
20
381.378364
10
14.827975
20
381.092258
0
LWPOLYLINE
5
108
100
AcDbEntity
8
0
6
ByLayer
62
2
370
-1
100
AcDbPolyline
90
2
70
0
43
0
10
16.566577
20
381.558382
10
16.100712
20
381.619647
0
LWPOLYLINE
5
109
100
AcDbEntity
8
0
6
ByLayer
62
2
370
-1
100
AcDbPolyline
90
2
70
0
43
0
10
17.000719
20
381.378624
10
16.566577
20
381.558382
0
LWPOLYLINE
5
10A
100
AcDbEntity
8
0
6
ByLayer
62
2
370
-1
100
AcDbPolyline
90
3
70
0
43
0
10
17.659934
20
378.91987
10
17.839681
20
379.354024
10
17.900951
20
379.819905
0
LWPOLYLINE
5
10B
100
AcDbEntity
8
0
6
ByLayer
62
2
370
-1
100
AcDbPolyline
90
3
70
0
43
0
10
14.362365
20
379.353524
10
14.542253
20
378.919424
10
14.828342
20
378.546673
0
LWPOLYLINE
5
10C
100
AcDbEntity
8
0
6
ByLayer
62
2
370
-1
100
AcDbPolyline
90
3
70
0
43
0
10
16.100712
20
381.619647
10
15.63482
20
381.558247
10
15.200734
20
381.378364
0
LWPOLYLINE
5
10D
100
AcDbEntity
8
0
6
ByLayer
62
2
370
-1
100
AcDbPolyline
90
3
70
0
43
0
10
14.827975
20
381.092258
10
14.541971
20
380.719423
10
14.362223
20
380.285272
0
LWPOLYLINE
5
10E
100
AcDbEntity
8
0
6
ByLayer
62
2
370
-1
100
AcDbPolyline
90
2
70
0
43
0
10
17.373563
20
381.092623
10
17.000719
20
381.378624
0
LWPOLYLINE
5
10F
100
AcDbEntity
8
0
6
ByLayer
62
2
370
-1
100
AcDbPolyline
90
2
70
0
43
0
10
17.65968
20
380.719872
10
17.373563
20
381.092623
0
LWPOLYLINE
5
110
100
AcDbEntity
8
0
6
ByLayer
62
2
370
-1
100
AcDbPolyline
90
2
70
0
43
0
10
17.839568
20
380.285772
10
17.65968
20
380.719872
0
LWPOLYLINE
5
111
100
AcDbEntity
8
0
6
ByLayer
62
2
370
-1
100
AcDbPolyline
90
2
70
0
43
0
10
17.900951
20
379.819905
10
17.839568
20
380.285772
0
LWPOLYLINE
5
112
100
AcDbEntity
8
0
6
ByLayer
62
2
370
-1
100
AcDbPolyline
90
4
70
0
43
0
10
14.828342
20
378.546673
10
15.201185
20
378.260672
10
15.635328
20
378.080916
10
16.10122
20
378.019649
0
LWPOLYLINE
5
113
100
AcDbEntity
8
0
6
ByLayer
62
2
370
-1
100
AcDbPolyline
90
6
70
0
43
0
10
34.846429
20
381.092258
10
34.560431
20
380.719423
10
34.380672
20
380.285272
10
34.319399
20
379.819391
10
34.380805
20
379.353524
10
34.560688
20
378.919424
0
LWPOLYLINE
5
114
100
AcDbEntity
8
0
6
ByLayer
62
2
370
-1
100
AcDbPolyline
90
2
70
0
43
0
10
36.585031
20
381.558382
10
36.119147
20
381.619647
0
LWPOLYLINE
5
115
100
AcDbEntity
8
0
6
ByLayer
62
2
370
-1
100
AcDbPolyline
90
5
70
0
43
0
10
37.019628
20
378.260932
10
37.392379
20
378.547037
10
37.67838
20
378.91987
10
37.858138
20
379.354024
10
37.919403
20
379.819905
0
LWPOLYLINE
5
116
100
AcDbEntity
8
0
6
ByLayer
62
2
370
-1
100
AcDbPolyline
90
2
70
0
43
0
10
37.019182
20
381.378624
10
36.585031
20
381.558382
0
LWPOLYLINE
5
117
100
AcDbEntity
8
0
6
ByLayer
62
2
370
-1
100
AcDbPolyline
90
2
70
0
43
0
10
36.119147
20
381.619647
10
35.653283
20
381.558247
0
LWPOLYLINE
5
118
100
AcDbEntity
8
0
6
ByLayer
62
2
370
-1
100
AcDbPolyline
90
5
70
0
43
0
10
37.919403
20
379.819905
10
37.858006
20
380.285772
10
37.678123
20
380.719872
10
37.392015
20
381.092623
10
37.019182
20
381.378624
0
LWPOLYLINE
5
119
100
AcDbEntity
8
0
6
ByLayer
62
2
370
-1
100
AcDbPolyline
90
7
70
0
43
0
10
34.560688
20
378.919424
10
34.846793
20
378.546673
10
35.219629
20
378.260672
10
35.65378
20
378.080916
10
36.119664
20
378.019649
10
36.585528
20
378.081049
10
37.019628
20
378.260932
0
LWPOLYLINE
5
11A
100
AcDbEntity
8
0
6
ByLayer
62
2
370
-1
100
AcDbPolyline
90
3
70
0
43
0
10
35.653283
20
381.558247
10
35.219183
20
381.378364
10
34.846429
20
381.092258
0
LWPOLYLINE
5
11B
100
AcDbEntity
8
0
6
ByLayer
62
2
370
-1
100
AcDbPolyline
90
2
70
0
43
0
10
50.394351
20
361.074174
10
50.021518
20
361.360175
0
LWPOLYLINE
5
11C
100
AcDbEntity
8
0
6
ByLayer
62
2
370
-1
100
AcDbPolyline
90
6
70
0
43
0
10
47.563024
20
358.900976
10
47.849132
20
358.528225
10
48.221965
20
358.242224
10
48.656116
20
358.062468
10
49.122
20
358.0012
10
49.587864
20
358.062601
0
LWPOLYLINE
5
11D
100
AcDbEntity
8
0
6
ByLayer
62
2
370
-1
100
AcDbPolyline
90
10
70
0
43
0
10
49.587367
20
361.539934
10
49.121483
20
361.601199
10
48.655616
20
361.539798
10
48.221519
20
361.359916
10
47.848766
20
361.07381
10
47.562767
20
360.700978
10
47.383009
20
360.266824
10
47.321741
20
359.800943
10
47.383141
20
359.335076
10
47.563024
20
358.900976
0
LWPOLYLINE
5
11E
100
AcDbEntity
8
0
6
ByLayer
62
2
370
-1
100
AcDbPolyline
90
2
70
0
43
0
10
50.680456
20
360.701423
10
50.394351
20
361.074174
0
LWPOLYLINE
5
11F
100
AcDbEntity
8
0
6
ByLayer
62
2
370
-1
100
AcDbPolyline
90
2
70
0
43
0
10
50.860339
20
360.267323
10
50.680456
20
360.701423
0
LWPOLYLINE
5
120
100
AcDbEntity
8
0
6
ByLayer
62
2
370
-1
100
AcDbPolyline
90
2
70
0
43
0
10
50.921742
20
359.801456
10
50.860339
20
360.267323
0
LWPOLYLINE
5
121
100
AcDbEntity
8
0
6
ByLayer
62
2
370
-1
100
AcDbPolyline
90
6
70
0
43
0
10
49.587864
20
358.062601
10
50.021964
20
358.242483
10
50.394715
20
358.528589
10
50.680716
20
358.901424
10
50.860475
20
359.335575
10
50.921742
20
359.801456
0
LWPOLYLINE
5
122
100
AcDbEntity
8
0
6
ByLayer
62
2
370
-1
100
AcDbPolyline
90
2
70
0
43
0
10
50.021518
20
361.360175
10
49.587367
20
361.539934
0
LWPOLYLINE
5
123
100
AcDbEntity
8
0
6
ByLayer
62
2
370
-1
100
AcDbPolyline
90
3
70
0
43
0
10
176.962935
20
215.371573
10
176.528784
20
215.55132
10
176.0629
20
215.612591
0
LWPOLYLINE
5
124
100
AcDbEntity
8
0
6
ByLayer
62
2
370
-1
100
AcDbPolyline
90
2
70
0
43
0
10
174.324558
20
213.346459
10
174.50444
20
212.912373
0
LWPOLYLINE
5
125
100
AcDbEntity
8
0
6
ByLayer
62
2
370
-1
100
AcDbPolyline
90
2
70
0
43
0
10
174.790549
20
212.539614
10
175.163381
20
212.25361
0
LWPOLYLINE
5
126
100
AcDbEntity
8
0
6
ByLayer
62
2
370
-1
100
AcDbPolyline
90
2
70
0
43
0
10
177.863159
20
213.812831
10
177.801758
20
214.278724
0
LWPOLYLINE
5
127
100
AcDbEntity
8
0
6
ByLayer
62
2
370
-1
100
AcDbPolyline
90
2
70
0
43
0
10
176.0629
20
215.612591
10
176.026143
20
215.607793
0
LWPOLYLINE
5
128
100
AcDbEntity
8
0
6
ByLayer
62
2
370
-1
100
AcDbPolyline
90
2
70
0
43
0
10
175.597035
20
215.551179
10
175.162935
20
215.371291
0
LWPOLYLINE
5
129
100
AcDbEntity
8
0
6
ByLayer
62
2
370
-1
100
AcDbPolyline
90
3
70
0
43
0
10
174.790185
20
215.085202
10
174.504183
20
214.712358
10
174.324425
20
214.278216
0
LWPOLYLINE
5
12A
100
AcDbEntity
8
0
6
ByLayer
62
2
370
-1
100
AcDbPolyline
90
2
70
0
43
0
10
177.335767
20
215.085569
10
176.962935
20
215.371573
0
LWPOLYLINE
5
12B
100
AcDbEntity
8
0
6
ByLayer
62
2
370
-1
100
AcDbPolyline
90
2
70
0
43
0
10
177.801758
20
214.278724
10
177.621875
20
214.71281
0
LWPOLYLINE
5
12C
100
AcDbEntity
8
0
6
ByLayer
62
2
370
-1
100
AcDbPolyline
90
2
70
0
43
0
10
175.163381
20
212.25361
10
175.597532
20
212.073863
0
LWPOLYLINE
5
12D
100
AcDbEntity
8
0
6
ByLayer
62
2
370
-1
100
AcDbPolyline
90
4
70
0
43
0
10
176.063416
20
212.012592
10
176.52928
20
212.073975
10
176.96338
20
212.253864
10
177.336131
20
212.539981
0
LWPOLYLINE
5
12E
100
AcDbEntity
8
0
6
ByLayer
62
2
370
-1
100
AcDbPolyline
90
2
70
0
43
0
10
177.801891
20
213.346967
10
177.863159
20
213.812831
0
LWPOLYLINE
5
12F
100
AcDbEntity
8
0
6
ByLayer
62
1
370
-1
100
AcDbPolyline
90
2
70
0
43
0
10
602.217744
20
339.354281
10
602.217744
20
348.154631
0
LWPOLYLINE
5
130
100
AcDbEntity
8
0
6
ByLayer
62
1
370
-1
100
AcDbPolyline
90
5
70
0
43
0
10
596.736085
20
56.550244
10
602.217744
20
56.550244
10
602.217744
20
65.35059
10
596.736085
20
65.35059
10
596.736085
20
184.255362
0
LWPOLYLINE
5
131
100
AcDbEntity
8
0
6
ByLayer
62
2
370
-1
100
AcDbPolyline
90
2
70
0
43
0
10
402.529238
20
381.876873
10
403.100455
20
382.705331
0
LWPOLYLINE
5
132
100
AcDbEntity
8
0
6
ByLayer
62
2
370
-1
100
AcDbPolyline
90
2
70
0
43
0
10
416.29965
20
380.912108
10
416.422106
20
379.876789
0
LWPOLYLINE
5
133
100
AcDbEntity
8
0
6
ByLayer
62
2
370
-1
100
AcDbPolyline
90
2
70
0
43
0
10
415.940522
20
381.876873
10
416.29965
20
380.912108
0
LWPOLYLINE
5
134
100
AcDbEntity
8
0
6
ByLayer
62
1
370
-1
100
AcDbPolyline
90
2
70
0
43
0
10
398.509829
20
207.069952
10
387.726287
20
207.069952
0
LWPOLYLINE
5
135
100
AcDbEntity
8
0
6
ByLayer
62
1
370
-1
100
AcDbPolyline
90
2
70
0
43
0
10
476.286181
20
361.014848
10
476.681179
20
362.076086
0
LWPOLYLINE
5
136
100
AcDbEntity
8
0
6
ByLayer
62
2
370
-1
100
AcDbPolyline
90
2
70
0
43
0
10
405.642177
20
375.876634
10
404.71186
20
376.012936
0
LWPOLYLINE
5
137
100
AcDbEntity
8
0
6
ByLayer
62
2
370
-1
100
AcDbPolyline
90
2
70
0
43
0
10
412.887668
20
383.876951
10
413.757928
20
383.740649
0
LWPOLYLINE
5
138
100
AcDbEntity
8
0
6
ByLayer
62
2
370
-1
100
AcDbPolyline
90
2
70
0
43
0
10
405.642177
20
383.876951
10
412.887668
20
383.876951
0
LWPOLYLINE
5
139
100
AcDbEntity
8
0
6
ByLayer
62
1
370
-1
100
AcDbPolyline
90
2
70
0
43
0
10
477.309519
20
356.764607
10
476.681179
20
357.675911
0
LWPOLYLINE
5
13A
100
AcDbEntity
8
0
6
ByLayer
62
1
370
-1
100
AcDbPolyline
90
2
70
0
43
0
10
476.15142
20
359.876
10
476.286181
20
361.014848
0
LWPOLYLINE
5
13B
100
AcDbEntity
8
0
6
ByLayer
62
1
370
-1
100
AcDbPolyline
90
2
70
0
43
0
10
398.509829
20
200.869708
10
403.092864
20
200.869708
0
LWPOLYLINE
5
13C
100
AcDbEntity
8
0
6
ByLayer
62
1
370
-1
100
AcDbPolyline
90
2
70
0
43
0
10
525.036881
20
389.877187
10
543.009497
20
389.877187
0
LWPOLYLINE
5
13D
100
AcDbEntity
8
0
6
ByLayer
62
1
370
-1
100
AcDbPolyline
90
2
70
0
43
0
10
476.681179
20
362.076086
10
477.309519
20
362.987392
0
LWPOLYLINE
5
13E
100
AcDbEntity
8
0
6
ByLayer
62
1
370
-1
100
AcDbPolyline
90
2
70
0
43
0
10
403.092864
20
367.081844
10
403.092864
20
368.881914
0
LWPOLYLINE
5
13F
100
AcDbEntity
8
0
6
ByLayer
62
1
370
-1
100
AcDbPolyline
90
2
70
0
43
0
10
398.509829
20
367.081844
10
387.726287
20
367.081844
0
LWPOLYLINE
5
140
100
AcDbEntity
8
0
6
ByLayer
62
1
370
-1
100
AcDbPolyline
90
2
70
0
43
0
10
398.509829
20
368.881914
10
398.509829
20
367.081844
0
LWPOLYLINE
5
141
100
AcDbEntity
8
0
6
ByLayer
62
1
370
-1
100
AcDbPolyline
90
2
70
0
43
0
10
387.726287
20
362.68167
10
387.726287
20
353.125789
0
LWPOLYLINE
5
142
100
AcDbEntity
8
0
6
ByLayer
62
1
370
-1
100
AcDbPolyline
90
2
70
0
43
0
10
398.509829
20
53.778909
10
398.509829
20
51.978851
0
LWPOLYLINE
5
143
100
AcDbEntity
8
0
6
ByLayer
62
1
370
-1
100
AcDbPolyline
90
2
70
0
43
0
10
398.509829
20
47.578662
10
398.509829
20
45.778606
0
LWPOLYLINE
5
144
100
AcDbEntity
8
0
6
ByLayer
62
1
370
-1
100
AcDbPolyline
90
2
70
0
43
0
10
406.687359
20
47.578662
10
406.687359
20
51.978851
0
LWPOLYLINE
5
145
100
AcDbEntity
8
0
6
ByLayer
62
1
370
-1
100
AcDbPolyline
90
2
70
0
43
0
10
403.092864
20
47.578662
10
406.687359
20
47.578662
0
LWPOLYLINE
5
146
100
AcDbEntity
8
0
6
ByLayer
62
1
370
-1
100
AcDbPolyline
90
2
70
0
43
0
10
403.092864
20
47.578662
10
403.092864
20
45.778606
0
LWPOLYLINE
5
147
100
AcDbEntity
8
0
6
ByLayer
62
1
370
-1
100
AcDbPolyline
90
2
70
0
43
0
10
387.726287
20
47.578662
10
398.509829
20
47.578662
0
LWPOLYLINE
5
148
100
AcDbEntity
8
0
6
ByLayer
62
1
370
-1
100
AcDbPolyline
90
2
70
0
43
0
10
406.687359
20
51.978851
10
403.092864
20
51.978851
0
LWPOLYLINE
5
149
100
AcDbEntity
8
0
6
ByLayer
62
1
370
-1
100
AcDbPolyline
90
2
70
0
43
0
10
398.509829
20
51.978851
10
387.726287
20
51.978851
0
LWPOLYLINE
5
14A
100
AcDbEntity
8
0
6
ByLayer
62
1
370
-1
100
AcDbPolyline
90
2
70
0
43
0
10
403.092864
20
53.778909
10
398.509829
20
53.778909
0
LWPOLYLINE
5
14B
100
AcDbEntity
8
0
6
ByLayer
62
1
370
-1
100
AcDbPolyline
90
2
70
0
43
0
10
596.736085
20
21.798926
10
461.222739
20
21.798926
0
LWPOLYLINE
5
14C
100
AcDbEntity
8
0
6
ByLayer
62
2
370
-1
100
AcDbPolyline
90
2
70
0
43
0
10
569.093068
20
32.627799
10
569.837514
20
33.263501
0
LWPOLYLINE
5
14D
100
AcDbEntity
8
0
6
ByLayer
62
2
370
-1
100
AcDbPolyline
90
2
70
0
43
0
10
568.52185
20
31.799332
10
569.093068
20
32.627799
0
LWPOLYLINE
5
14E
100
AcDbEntity
8
0
6
ByLayer
62
2
370
-1
100
AcDbPolyline
90
2
70
0
43
0
10
578.820195
20
33.799407
10
571.634761
20
33.799407
0
LWPOLYLINE
5
14F
100
AcDbEntity
8
0
6
ByLayer
62
1
370
-1
100
AcDbPolyline
90
2
70
0
43
0
10
506.333929
20
53.610696
10
507.152825
20
52.911434
0
LWPOLYLINE
5
150
100
AcDbEntity
8
0
6
ByLayer
62
1
370
-1
100
AcDbPolyline
90
2
70
0
43
0
10
577.774985
20
202.606094
10
581.369509
20
202.606094
0
LWPOLYLINE
5
151
100
AcDbEntity
8
0
6
ByLayer
62
1
370
-1
100
AcDbPolyline
90
2
70
0
43
0
10
505.380329
20
54.050274
10
506.333929
20
53.610696
0
LWPOLYLINE
5
152
100
AcDbEntity
8
0
6
ByLayer
62
1
370
-1
100
AcDbPolyline
90
2
70
0
43
0
10
581.369509
20
200.806036
10
585.952515
20
200.806036
0
LWPOLYLINE
5
153
100
AcDbEntity
8
0
6
ByLayer
62
2
370
-1
100
AcDbPolyline
90
2
70
0
43
0
10
580.617471
20
33.263501
10
581.361889
20
32.627799
0
LWPOLYLINE
5
154
100
AcDbEntity
8
0
6
ByLayer
62
1
370
-1
100
AcDbPolyline
90
3
70
0
43
0
10
596.736085
20
46.994383
10
585.952515
20
46.994383
10
585.952515
20
48.794441
0
LWPOLYLINE
5
155
100
AcDbEntity
8
0
6
ByLayer
62
1
370
-1
100
AcDbPolyline
90
2
70
0
43
0
10
577.774985
20
42.594194
10
581.369509
20
42.594194
0
LWPOLYLINE
5
156
100
AcDbEntity
8
0
6
ByLayer
62
1
370
-1
100
AcDbPolyline
90
2
70
0
43
0
10
581.369509
20
40.794138
10
585.952515
20
40.794138
0
LWPOLYLINE
5
157
100
AcDbEntity
8
0
6
ByLayer
62
1
370
-1
100
AcDbPolyline
90
2
70
0
43
0
10
585.952515
20
48.794441
10
581.369509
20
48.794441
0
LWPOLYLINE
5
158
100
AcDbEntity
8
0
6
ByLayer
62
1
370
-1
100
AcDbPolyline
90
2
70
0
43
0
10
581.369509
20
42.594194
10
581.369509
20
40.794138
0
LWPOLYLINE
5
159
100
AcDbEntity
8
0
6
ByLayer
62
1
370
-1
100
AcDbPolyline
90
2
70
0
43
0
10
585.952515
20
42.594194
10
596.736085
20
42.594194
0
LWPOLYLINE
5
15A
100
AcDbEntity
8
0
6
ByLayer
62
1
370
-1
100
AcDbPolyline
90
2
70
0
43
0
10
585.952515
20
40.794138
10
585.952515
20
42.594194
0
LWPOLYLINE
5
15B
100
AcDbEntity
8
0
6
ByLayer
62
1
370
-1
100
AcDbPolyline
90
2
70
0
43
0
10
596.736085
20
46.994383
10
596.736085
20
56.550244
0
LWPOLYLINE
5
15C
100
AcDbEntity
8
0
6
ByLayer
62
2
370
-1
100
AcDbPolyline
90
2
70
0
43
0
10
416.29965
20
378.841474
10
415.940522
20
377.876712
0
LWPOLYLINE
5
15D
100
AcDbEntity
8
0
6
ByLayer
62
2
370
-1
100
AcDbPolyline
90
2
70
0
43
0
10
569.093068
20
26.970713
10
568.52185
20
27.79918
0
LWPOLYLINE
5
15E
100
AcDbEntity
8
0
6
ByLayer
62
2
370
-1
100
AcDbPolyline
90
2
70
0
43
0
10
569.837514
20
26.335011
10
569.093068
20
26.970713
0
LWPOLYLINE
5
15F
100
AcDbEntity
8
0
6
ByLayer
62
2
370
-1
100
AcDbPolyline
90
2
70
0
43
0
10
570.704444
20
25.935395
10
569.837514
20
26.335011
0
LWPOLYLINE
5
160
100
AcDbEntity
8
0
6
ByLayer
62
1
370
-1
100
AcDbPolyline
90
2
70
0
43
0
10
596.736085
20
207.00628
10
585.952515
20
207.00628
0
LWPOLYLINE
5
161
100
AcDbEntity
8
0
6
ByLayer
62
2
370
-1
100
AcDbPolyline
90
3
70
0
43
0
10
580.617471
20
26.335011
10
579.750513
20
25.935395
10
578.820195
20
25.799105
0
LWPOLYLINE
5
162
100
AcDbEntity
8
0
6
ByLayer
62
2
370
-1
100
AcDbPolyline
90
2
70
0
43
0
10
582.292234
20
28.763939
10
581.933135
20
27.79918
0
LWPOLYLINE
5
163
100
AcDbEntity
8
0
6
ByLayer
62
1
370
-1
100
AcDbPolyline
90
2
70
0
43
0
10
506.333929
20
45.989378
10
505.380329
20
45.5498
0
LWPOLYLINE
5
164
100
AcDbEntity
8
0
6
ByLayer
62
1
370
-1
100
AcDbPolyline
90
2
70
0
43
0
10
387.726287
20
29.22014
10
387.726287
20
19.862552
0
LWPOLYLINE
5
165
100
AcDbEntity
8
0
6
ByLayer
62
1
370
-1
100
AcDbPolyline
90
2
70
0
43
0
10
382.244656
20
61.521416
10
387.726287
20
61.521416
0
LWPOLYLINE
5
166
100
AcDbEntity
8
0
6
ByLayer
62
1
370
-1
100
AcDbPolyline
90
3
70
0
43
0
10
387.726287
20
70.321765
10
382.244656
20
70.321765
10
382.244656
20
61.521416
0
LWPOLYLINE
5
167
100
AcDbEntity
8
0
6
ByLayer
62
1
370
-1
100
AcDbPolyline
90
5
70
0
43
0
10
387.726287
20
353.125789
10
382.244656
20
353.125789
10
382.244656
20
344.325442
10
387.726287
20
344.325442
10
387.726287
20
225.420676
0
LWPOLYLINE
5
168
100
AcDbEntity
8
0
6
ByLayer
62
1
370
-1
100
AcDbPolyline
90
2
70
0
43
0
10
398.509829
20
202.669767
10
398.509829
20
200.869708
0
LWPOLYLINE
5
169
100
AcDbEntity
8
0
6
ByLayer
62
1
370
-1
100
AcDbPolyline
90
2
70
0
43
0
10
543.009497
20
389.877187
10
547.502616
20
384.876991
0
LWPOLYLINE
5
16A
100
AcDbEntity
8
0
6
ByLayer
62
1
370
-1
100
AcDbPolyline
90
2
70
0
43
0
10
523.239633
20
387.877109
10
525.036881
20
389.877187
0
LWPOLYLINE
5
16B
100
AcDbEntity
8
0
6
ByLayer
62
2
370
-1
100
AcDbPolyline
90
2
70
0
43
0
10
402.170138
20
378.841474
10
402.047654
20
379.876789
0
LWPOLYLINE
5
16C
100
AcDbEntity
8
0
6
ByLayer
62
1
370
-1
100
AcDbPolyline
90
3
70
0
43
0
10
602.217744
20
225.356993
10
596.736085
20
225.356993
10
596.736085
20
339.354281
0
LWPOLYLINE
5
16D
100
AcDbEntity
8
0
6
ByLayer
62
1
370
-1
100
AcDbPolyline
90
2
70
0
43
0
10
602.217744
20
193.055708
10
596.736085
20
193.055708
0
LWPOLYLINE
5
16E
100
AcDbEntity
8
0
6
ByLayer
62
1
370
-1
100
AcDbPolyline
90
3
70
0
43
0
10
596.736085
20
184.255362
10
602.217744
20
184.255362
10
602.217744
20
193.055708
0
LWPOLYLINE
5
16F
100
AcDbEntity
8
0
6
ByLayer
62
1
370
-1
100
AcDbPolyline
90
2
70
0
43
0
10
596.736085
20
216.556638
10
596.736085
20
207.00628
0
LWPOLYLINE
5
170
100
AcDbEntity
8
0
6
ByLayer
62
1
370
-1
100
AcDbPolyline
90
2
70
0
43
0
10
596.736085
20
202.606094
10
596.736085
20
193.055708
0
LWPOLYLINE
5
171
100
AcDbEntity
8
0
6
ByLayer
62
1
370
-1
100
AcDbPolyline
90
5
70
0
43
0
10
596.736085
20
371.65556
10
602.217744
20
371.65556
10
602.217744
20
380.455909
10
596.736085
20
380.455909
10
596.736085
20
389.813506
0
LWPOLYLINE
5
172
100
AcDbEntity
8
0
6
ByLayer
62
1
370
-1
100
AcDbPolyline
90
2
70
0
43
0
10
602.217744
20
348.154631
10
596.736085
20
348.154631
0
LWPOLYLINE
5
173
100
AcDbEntity
8
0
6
ByLayer
62
1
370
-1
100
AcDbPolyline
90
2
70
0
43
0
10
596.736085
20
339.354281
10
602.217744
20
339.354281
0
LWPOLYLINE
5
174
100
AcDbEntity
8
0
6
ByLayer
62
1
370
-1
100
AcDbPolyline
90
2
70
0
43
0
10
406.687359
20
202.669767
10
406.687359
20
207.069952
0
LWPOLYLINE
5
175
100
AcDbEntity
8
0
6
ByLayer
62
1
370
-1
100
AcDbPolyline
90
2
70
0
43
0
10
547.502616
20
342.875325
10
410.551461
20
19.862552
0
LWPOLYLINE
5
176
100
AcDbEntity
8
0
6
ByLayer
62
1
370
-1
100
AcDbPolyline
90
2
70
0
43
0
10
403.092864
20
202.669767
10
406.687359
20
202.669767
0
LWPOLYLINE
5
177
100
AcDbEntity
8
0
6
ByLayer
62
1
370
-1
100
AcDbPolyline
90
2
70
0
43
0
10
403.092864
20
202.669767
10
403.092864
20
200.869708
0
LWPOLYLINE
5
178
100
AcDbEntity
8
0
6
ByLayer
62
2
370
-1
100
AcDbPolyline
90
2
70
0
43
0
10
413.757928
20
376.012936
10
412.827583
20
375.876634
0
LWPOLYLINE
5
179
100
AcDbEntity
8
0
6
ByLayer
62
1
370
-1
100
AcDbPolyline
90
2
70
0
43
0
10
387.726287
20
19.862552
10
410.551461
20
19.862552
0
LWPOLYLINE
5
17A
100
AcDbEntity
8
0
6
ByLayer
62
1
370
-1
100
AcDbPolyline
90
2
70
0
43
0
10
387.726287
20
207.069952
10
387.726287
20
216.620338
0
LWPOLYLINE
5
17B
100
AcDbEntity
8
0
6
ByLayer
62
1
370
-1
100
AcDbPolyline
90
4
70
0
43
0
10
387.726287
20
38.02049
10
382.244656
20
38.02049
10
382.244656
20
29.22014
10
387.726287
20
29.22014
0
LWPOLYLINE
5
17C
100
AcDbEntity
8
0
6
ByLayer
62
1
370
-1
100
AcDbPolyline
90
2
70
0
43
0
10
436.959728
20
24.799067
10
436.959728
20
40.399662
0
LWPOLYLINE
5
17D
100
AcDbEntity
8
0
6
ByLayer
62
2
370
-1
100
AcDbPolyline
90
2
70
0
43
0
10
581.933135
20
31.799332
10
582.292234
20
30.834573
0
LWPOLYLINE
5
17E
100
AcDbEntity
8
0
6
ByLayer
62
2
370
-1
100
AcDbPolyline
90
2
70
0
43
0
10
582.414719
20
29.799257
10
582.292234
20
28.763939
0
LWPOLYLINE
5
17F
100
AcDbEntity
8
0
6
ByLayer
62
2
370
-1
100
AcDbPolyline
90
2
70
0
43
0
10
579.750513
20
33.663117
10
580.617471
20
33.263501
0
LWPOLYLINE
5
180
100
AcDbEntity
8
0
6
ByLayer
62
1
370
-1
100
AcDbPolyline
90
2
70
0
43
0
10
585.952515
20
200.806036
10
585.952515
20
202.606094
0
LWPOLYLINE
5
181
100
AcDbEntity
8
0
6
ByLayer
62
1
370
-1
100
AcDbPolyline
90
2
70
0
43
0
10
398.509829
20
45.778606
10
403.092864
20
45.778606
0
LWPOLYLINE
5
182
100
AcDbEntity
8
0
6
ByLayer
62
1
370
-1
100
AcDbPolyline
90
2
70
0
43
0
10
403.092864
20
51.978851
10
403.092864
20
53.778909
0
LWPOLYLINE
5
183
100
AcDbEntity
8
0
6
ByLayer
62
1
370
-1
100
AcDbPolyline
90
2
70
0
43
0
10
387.726287
20
47.578662
10
387.726287
20
38.02049
0
LWPOLYLINE
5
184
100
AcDbEntity
8
0
6
ByLayer
62
1
370
-1
100
AcDbPolyline
90
2
70
0
43
0
10
387.726287
20
51.978851
10
387.726287
20
61.521416
0
LWPOLYLINE
5
185
100
AcDbEntity
8
0
6
ByLayer
62
1
370
-1
100
AcDbPolyline
90
2
70
0
43
0
10
406.687359
20
362.68167
10
406.687359
20
367.081844
0
LWPOLYLINE
5
186
100
AcDbEntity
8
0
6
ByLayer
62
1
370
-1
100
AcDbPolyline
90
2
70
0
43
0
10
403.092864
20
362.68167
10
406.687359
20
362.68167
0
LWPOLYLINE
5
187
100
AcDbEntity
8
0
6
ByLayer
62
1
370
-1
100
AcDbPolyline
90
2
70
0
43
0
10
403.092864
20
362.68167
10
403.092864
20
360.881597
0
LWPOLYLINE
5
188
100
AcDbEntity
8
0
6
ByLayer
62
1
370
-1
100
AcDbPolyline
90
3
70
0
43
0
10
387.726287
20
362.68167
10
398.509829
20
362.68167
10
398.509829
20
360.881597
0
LWPOLYLINE
5
189
100
AcDbEntity
8
0
6
ByLayer
62
1
370
-1
100
AcDbPolyline
90
2
70
0
43
0
10
406.687359
20
367.081844
10
403.092864
20
367.081844
0
LWPOLYLINE
5
18A
100
AcDbEntity
8
0
6
ByLayer
62
1
370
-1
100
AcDbPolyline
90
2
70
0
43
0
10
480.10541
20
355.475825
10
479.082044
20
355.625758
0
LWPOLYLINE
5
18B
100
AcDbEntity
8
0
6
ByLayer
62
2
370
-1
100
AcDbPolyline
90
2
70
0
43
0
10
415.369304
20
382.705331
10
415.940522
20
381.876873
0
LWPOLYLINE
5
18C
100
AcDbEntity
8
0
6
ByLayer
62
2
370
-1
100
AcDbPolyline
90
2
70
0
43
0
10
414.624859
20
383.341031
10
415.369304
20
382.705331
0
LWPOLYLINE
5
18D
100
AcDbEntity
8
0
6
ByLayer
62
2
370
-1
100
AcDbPolyline
90
2
70
0
43
0
10
413.757928
20
383.740649
10
414.624859
20
383.341031
0
LWPOLYLINE
5
18E
100
AcDbEntity
8
0
6
ByLayer
62
1
370
-1
100
AcDbPolyline
90
2
70
0
43
0
10
387.726287
20
202.669767
10
398.509829
20
202.669767
0
LWPOLYLINE
5
18F
100
AcDbEntity
8
0
6
ByLayer
62
2
370
-1
100
AcDbPolyline
90
3
70
0
43
0
10
403.844929
20
383.341031
10
404.71186
20
383.740649
10
405.642177
20
383.876951
0
LWPOLYLINE
5
190
100
AcDbEntity
8
0
6
ByLayer
62
2
370
-1
100
AcDbPolyline
90
2
70
0
43
0
10
402.170138
20
380.912108
10
402.529238
20
381.876873
0
LWPOLYLINE
5
191
100
AcDbEntity
8
0
6
ByLayer
62
1
370
-1
100
AcDbPolyline
90
2
70
0
43
0
10
478.128415
20
363.686663
10
479.082044
20
364.126241
0
LWPOLYLINE
5
192
100
AcDbEntity
8
0
6
ByLayer
62
1
370
-1
100
AcDbPolyline
90
2
70
0
43
0
10
577.774985
20
207.00628
10
577.774985
20
202.606094
0
LWPOLYLINE
5
193
100
AcDbEntity
8
0
6
ByLayer
62
1
370
-1
100
AcDbPolyline
90
2
70
0
43
0
10
436.959728
20
66.800707
10
573.910883
20
389.813506
0
LWPOLYLINE
5
194
100
AcDbEntity
8
0
6
ByLayer
62
1
370
-1
100
AcDbPolyline
90
2
70
0
43
0
10
581.369509
20
207.00628
10
577.774985
20
207.00628
0
LWPOLYLINE
5
195
100
AcDbEntity
8
0
6
ByLayer
62
1
370
-1
100
AcDbPolyline
90
2
70
0
43
0
10
581.369509
20
207.00628
10
581.369509
20
208.806339
0
LWPOLYLINE
5
196
100
AcDbEntity
8
0
6
ByLayer
62
2
370
-1
100
AcDbPolyline
90
2
70
0
43
0
10
570.704444
20
33.663117
10
571.634761
20
33.799407
0
LWPOLYLINE
5
197
100
AcDbEntity
8
0
6
ByLayer
62
1
370
-1
100
AcDbPolyline
90
2
70
0
43
0
10
596.736085
20
389.813506
10
573.910883
20
389.813506
0
LWPOLYLINE
5
198
100
AcDbEntity
8
0
6
ByLayer
62
1
370
-1
100
AcDbPolyline
90
2
70
0
43
0
10
504.356963
20
54.200227
10
505.380329
20
54.050274
0
LWPOLYLINE
5
199
100
AcDbEntity
8
0
6
ByLayer
62
2
370
-1
100
AcDbPolyline
90
2
70
0
43
0
10
568.52185
20
27.79918
10
568.16275
20
28.763939
0
LWPOLYLINE
5
19A
100
AcDbEntity
8
0
6
ByLayer
62
1
370
-1
100
AcDbPolyline
90
2
70
0
43
0
10
585.952515
20
202.606094
10
596.736085
20
202.606094
0
LWPOLYLINE
5
19B
100
AcDbEntity
8
0
6
ByLayer
62
1
370
-1
100
AcDbPolyline
90
2
70
0
43
0
10
508.176191
20
48.661199
10
507.781193
20
47.599944
0
LWPOLYLINE
5
19C
100
AcDbEntity
8
0
6
ByLayer
62
2
370
-1
100
AcDbPolyline
90
2
70
0
43
0
10
578.820195
20
33.799407
10
579.750513
20
33.663117
0
LWPOLYLINE
5
19D
100
AcDbEntity
8
0
6
ByLayer
62
2
370
-1
100
AcDbPolyline
90
2
70
0
43
0
10
571.574676
20
25.799105
10
570.704444
20
25.935395
0
LWPOLYLINE
5
19E
100
AcDbEntity
8
0
6
ByLayer
62
2
370
-1
100
AcDbPolyline
90
2
70
0
43
0
10
578.820195
20
25.799105
10
571.574676
20
25.799105
0
LWPOLYLINE
5
19F
100
AcDbEntity
8
0
6
ByLayer
62
1
370
-1
100
AcDbPolyline
90
2
70
0
43
0
10
507.152825
20
52.911434
10
507.781193
20
52.000133
0
LWPOLYLINE
5
1A0
100
AcDbEntity
8
0
6
ByLayer
62
1
370
-1
100
AcDbPolyline
90
2
70
0
43
0
10
508.310924
20
49.800039
10
508.176191
20
48.661199
0
LWPOLYLINE
5
1A1
100
AcDbEntity
8
0
6
ByLayer
62
1
370
-1
100
AcDbPolyline
90
2
70
0
43
0
10
585.952515
20
208.806339
10
581.369509
20
208.806339
0
LWPOLYLINE
5
1A2
100
AcDbEntity
8
0
6
ByLayer
62
1
370
-1
100
AcDbPolyline
90
2
70
0
43
0
10
459.425492
20
19.798851
10
441.452875
20
19.798851
0
LWPOLYLINE
5
1A3
100
AcDbEntity
8
0
6
ByLayer
62
1
370
-1
100
AcDbPolyline
90
2
70
0
43
0
10
507.781193
20
47.599944
10
507.152825
20
46.68864
0
LWPOLYLINE
5
1A4
100
AcDbEntity
8
0
6
ByLayer
62
1
370
-1
100
AcDbPolyline
90
2
70
0
43
0
10
581.369509
20
202.606094
10
581.369509
20
200.806036
0
LWPOLYLINE
5
1A5
100
AcDbEntity
8
0
6
ByLayer
62
1
370
-1
100
AcDbPolyline
90
2
70
0
43
0
10
577.774985
20
362.097379
10
577.774985
20
357.697205
0
LWPOLYLINE
5
1A6
100
AcDbEntity
8
0
6
ByLayer
62
1
370
-1
100
AcDbPolyline
90
2
70
0
43
0
10
581.369509
20
362.097379
10
577.774985
20
362.097379
0
LWPOLYLINE
5
1A7
100
AcDbEntity
8
0
6
ByLayer
62
1
370
-1
100
AcDbPolyline
90
2
70
0
43
0
10
581.369509
20
362.097379
10
581.369509
20
363.897449
0
LWPOLYLINE
5
1A8
100
AcDbEntity
8
0
6
ByLayer
62
1
370
-1
100
AcDbPolyline
90
2
70
0
43
0
10
596.736085
20
362.097379
10
585.952515
20
362.097379
0
LWPOLYLINE
5
1A9
100
AcDbEntity
8
0
6
ByLayer
62
1
370
-1
100
AcDbPolyline
90
2
70
0
43
0
10
577.774985
20
357.697205
10
581.369509
20
357.697205
0
LWPOLYLINE
5
1AA
100
AcDbEntity
8
0
6
ByLayer
62
1
370
-1
100
AcDbPolyline
90
2
70
0
43
0
10
585.952515
20
357.697205
10
596.736085
20
357.697205
0
LWPOLYLINE
5
1AB
100
AcDbEntity
8
0
6
ByLayer
62
1
370
-1
100
AcDbPolyline
90
2
70
0
43
0
10
581.369509
20
355.897132
10
585.952515
20
355.897132
0
LWPOLYLINE
5
1AC
100
AcDbEntity
8
0
6
ByLayer
62
1
370
-1
100
AcDbPolyline
90
2
70
0
43
0
10
585.952515
20
363.897449
10
581.369509
20
363.897449
0
LWPOLYLINE
5
1AD
100
AcDbEntity
8
0
6
ByLayer
62
1
370
-1
100
AcDbPolyline
90
2
70
0
43
0
10
581.369509
20
357.697205
10
581.369509
20
355.897132
0
LWPOLYLINE
5
1AE
100
AcDbEntity
8
0
6
ByLayer
62
1
370
-1
100
AcDbPolyline
90
2
70
0
43
0
10
596.736085
20
362.097379
10
596.736085
20
371.65556
0
LWPOLYLINE
5
1AF
100
AcDbEntity
8
0
6
ByLayer
62
1
370
-1
100
AcDbPolyline
90
2
70
0
43
0
10
596.736085
20
357.697205
10
596.736085
20
348.154631
0
LWPOLYLINE
5
1B0
100
AcDbEntity
8
0
6
ByLayer
62
1
370
-1
100
AcDbPolyline
90
2
70
0
43
0
10
577.774985
20
46.994383
10
577.774985
20
42.594194
0
LWPOLYLINE
5
1B1
100
AcDbEntity
8
0
6
ByLayer
62
1
370
-1
100
AcDbPolyline
90
2
70
0
43
0
10
581.369509
20
46.994383
10
577.774985
20
46.994383
0
LWPOLYLINE
5
1B2
100
AcDbEntity
8
0
6
ByLayer
62
1
370
-1
100
AcDbPolyline
90
2
70
0
43
0
10
581.369509
20
46.994383
10
581.369509
20
48.794441
0
LWPOLYLINE
5
1B3
100
AcDbEntity
8
0
6
ByLayer
62
1
370
-1
100
AcDbPolyline
90
2
70
0
43
0
10
585.952515
20
355.897132
10
585.952515
20
357.697205
0
LWPOLYLINE
5
1B4
100
AcDbEntity
8
0
6
ByLayer
62
1
370
-1
100
AcDbPolyline
90
2
70
0
43
0
10
585.952515
20
362.097379
10
585.952515
20
363.897449
0
LWPOLYLINE
5
1B5
100
AcDbEntity
8
0
6
ByLayer
62
1
370
-1
100
AcDbPolyline
90
2
70
0
43
0
10
403.092864
20
207.069952
10
403.092864
20
208.870011
0
LWPOLYLINE
5
1B6
100
AcDbEntity
8
0
6
ByLayer
62
1
370
-1
100
AcDbPolyline
90
2
70
0
43
0
10
477.309519
20
362.987392
10
478.128415
20
363.686663
0
LWPOLYLINE
5
1B7
100
AcDbEntity
8
0
6
ByLayer
62
2
370
-1
100
AcDbPolyline
90
2
70
0
43
0
10
416.422106
20
379.876789
10
416.29965
20
378.841474
0
LWPOLYLINE
5
1B8
100
AcDbEntity
8
0
6
ByLayer
62
2
370
-1
100
AcDbPolyline
90
2
70
0
43
0
10
414.624859
20
376.412554
10
413.757928
20
376.012936
0
LWPOLYLINE
5
1B9
100
AcDbEntity
8
0
6
ByLayer
62
1
370
-1
100
AcDbPolyline
90
2
70
0
43
0
10
543.009497
20
364.276174
10
480.10541
20
364.276174
0
LWPOLYLINE
5
1BA
100
AcDbEntity
8
0
6
ByLayer
62
1
370
-1
100
AcDbPolyline
90
2
70
0
43
0
10
543.009497
20
364.276174
10
547.502616
20
369.27637
0
LWPOLYLINE
5
1BB
100
AcDbEntity
8
0
6
ByLayer
62
1
370
-1
100
AcDbPolyline
90
2
70
0
43
0
10
543.009497
20
355.475825
10
480.10541
20
355.475825
0
LWPOLYLINE
5
1BC
100
AcDbEntity
8
0
6
ByLayer
62
1
370
-1
100
AcDbPolyline
90
2
70
0
43
0
10
547.502616
20
350.475626
10
547.502616
20
342.875325
0
LWPOLYLINE
5
1BD
100
AcDbEntity
8
0
6
ByLayer
62
1
370
-1
100
AcDbPolyline
90
2
70
0
43
0
10
543.009497
20
355.475825
10
547.502616
20
350.475626
0
LWPOLYLINE
5
1BE
100
AcDbEntity
8
0
6
ByLayer
62
1
370
-1
100
AcDbPolyline
90
5
70
0
43
0
10
387.726287
20
193.119409
10
382.244656
20
193.119409
10
382.244656
20
184.319062
10
387.726287
20
184.319062
10
387.726287
20
70.321765
0
LWPOLYLINE
5
1BF
100
AcDbEntity
8
0
6
ByLayer
62
1
370
-1
100
AcDbPolyline
90
2
70
0
43
0
10
382.244656
20
216.620338
10
387.726287
20
216.620338
0
LWPOLYLINE
5
1C0
100
AcDbEntity
8
0
6
ByLayer
62
1
370
-1
100
AcDbPolyline
90
3
70
0
43
0
10
387.726287
20
225.420676
10
382.244656
20
225.420676
10
382.244656
20
216.620338
0
LWPOLYLINE
5
1C1
100
AcDbEntity
8
0
6
ByLayer
62
1
370
-1
100
AcDbPolyline
90
2
70
0
43
0
10
387.726287
20
193.119409
10
387.726287
20
202.669767
0
LWPOLYLINE
5
1C2
100
AcDbEntity
8
0
6
ByLayer
62
1
370
-1
100
AcDbPolyline
90
2
70
0
43
0
10
403.092864
20
368.881914
10
398.509829
20
368.881914
0
LWPOLYLINE
5
1C3
100
AcDbEntity
8
0
6
ByLayer
62
2
370
-1
100
AcDbPolyline
90
2
70
0
43
0
10
405.642177
20
375.876634
10
412.827583
20
375.876634
0
LWPOLYLINE
5
1C4
100
AcDbEntity
8
0
6
ByLayer
62
1
370
-1
100
AcDbPolyline
90
2
70
0
43
0
10
478.128415
20
356.065336
10
477.309519
20
356.764607
0
LWPOLYLINE
5
1C5
100
AcDbEntity
8
0
6
ByLayer
62
1
370
-1
100
AcDbPolyline
90
2
70
0
43
0
10
406.687359
20
207.069952
10
403.092864
20
207.069952
0
LWPOLYLINE
5
1C6
100
AcDbEntity
8
0
6
ByLayer
62
1
370
-1
100
AcDbPolyline
90
2
70
0
43
0
10
479.082044
20
355.625758
10
478.128415
20
356.065336
0
LWPOLYLINE
5
1C7
100
AcDbEntity
8
0
6
ByLayer
62
1
370
-1
100
AcDbPolyline
90
2
70
0
43
0
10
403.092864
20
208.870011
10
398.509829
20
208.870011
0
LWPOLYLINE
5
1C8
100
AcDbEntity
8
0
6
ByLayer
62
1
370
-1
100
AcDbPolyline
90
2
70
0
43
0
10
398.509829
20
360.881597
10
403.092864
20
360.881597
0
LWPOLYLINE
5
1C9
100
AcDbEntity
8
0
6
ByLayer
62
2
370
-1
100
AcDbPolyline
90
3
70
0
43
0
10
403.844929
20
376.412554
10
403.100455
20
377.048254
10
402.529238
20
377.876712
0
LWPOLYLINE
5
1CA
100
AcDbEntity
8
0
6
ByLayer
62
2
370
-1
100
AcDbPolyline
90
2
70
0
43
0
10
403.100455
20
382.705331
10
403.844929
20
383.341031
0
LWPOLYLINE
5
1CB
100
AcDbEntity
8
0
6
ByLayer
62
1
370
-1
100
AcDbPolyline
90
3
70
0
43
0
10
476.681179
20
357.675911
10
476.286181
20
358.737151
10
476.15142
20
359.876
0
LWPOLYLINE
5
1CC
100
AcDbEntity
8
0
6
ByLayer
62
1
370
-1
100
AcDbPolyline
90
2
70
0
43
0
10
387.726287
20
387.877109
10
387.726287
20
367.081844
0
LWPOLYLINE
5
1CD
100
AcDbEntity
8
0
6
ByLayer
62
1
370
-1
100
AcDbPolyline
90
2
70
0
43
0
10
479.082044
20
364.126241
10
480.10541
20
364.276174
0
LWPOLYLINE
5
1CE
100
AcDbEntity
8
0
6
ByLayer
62
1
370
-1
100
AcDbPolyline
90
2
70
0
43
0
10
547.502616
20
384.876991
10
547.502616
20
369.27637
0
LWPOLYLINE
5
1CF
100
AcDbEntity
8
0
6
ByLayer
62
2
370
-1
100
AcDbPolyline
90
2
70
0
43
0
10
402.529238
20
377.876712
10
402.170138
20
378.841474
0
LWPOLYLINE
5
1D0
100
AcDbEntity
8
0
6
ByLayer
62
2
370
-1
100
AcDbPolyline
90
2
70
0
43
0
10
402.047654
20
379.876789
10
402.170138
20
380.912108
0
LWPOLYLINE
5
1D1
100
AcDbEntity
8
0
6
ByLayer
62
2
370
-1
100
AcDbPolyline
90
2
70
0
43
0
10
404.71186
20
376.012936
10
403.844929
20
376.412554
0
LWPOLYLINE
5
1D2
100
AcDbEntity
8
0
6
ByLayer
62
1
370
-1
100
AcDbPolyline
90
2
70
0
43
0
10
398.509829
20
208.870011
10
398.509829
20
207.069952
0
LWPOLYLINE
5
1D3
100
AcDbEntity
8
0
6
ByLayer
62
1
370
-1
100
AcDbPolyline
90
2
70
0
43
0
10
507.152825
20
46.68864
10
506.333929
20
45.989378
0
LWPOLYLINE
5
1D4
100
AcDbEntity
8
0
6
ByLayer
62
2
370
-1
100
AcDbPolyline
90
2
70
0
43
0
10
568.040266
20
29.799257
10
568.16275
20
30.834573
0
LWPOLYLINE
5
1D5
100
AcDbEntity
8
0
6
ByLayer
62
2
370
-1
100
AcDbPolyline
90
2
70
0
43
0
10
569.837514
20
33.263501
10
570.704444
20
33.663117
0
LWPOLYLINE
5
1D6
100
AcDbEntity
8
0
6
ByLayer
62
1
370
-1
100
AcDbPolyline
90
2
70
0
43
0
10
441.452875
20
45.399878
10
504.356963
20
45.399878
0
LWPOLYLINE
5
1D7
100
AcDbEntity
8
0
6
ByLayer
62
1
370
-1
100
AcDbPolyline
90
2
70
0
43
0
10
441.452875
20
45.399878
10
436.959728
20
40.399662
0
LWPOLYLINE
5
1D8
100
AcDbEntity
8
0
6
ByLayer
62
1
370
-1
100
AcDbPolyline
90
2
70
0
43
0
10
441.452875
20
54.200227
10
504.356963
20
54.200227
0
LWPOLYLINE
5
1D9
100
AcDbEntity
8
0
6
ByLayer
62
1
370
-1
100
AcDbPolyline
90
2
70
0
43
0
10
436.959728
20
59.200415
10
436.959728
20
66.800707
0
LWPOLYLINE
5
1DA
100
AcDbEntity
8
0
6
ByLayer
62
1
370
-1
100
AcDbPolyline
90
2
70
0
43
0
10
441.452875
20
54.200227
10
436.959728
20
59.200415
0
LWPOLYLINE
5
1DB
100
AcDbEntity
8
0
6
ByLayer
62
1
370
-1
100
AcDbPolyline
90
3
70
0
43
0
10
596.736085
20
216.556638
10
602.217744
20
216.556638
10
602.217744
20
225.356993
0
LWPOLYLINE
5
1DC
100
AcDbEntity
8
0
6
ByLayer
62
2
370
-1
100
AcDbPolyline
90
2
70
0
43
0
10
581.361889
20
32.627799
10
581.933135
20
31.799332
0
LWPOLYLINE
5
1DD
100
AcDbEntity
8
0
6
ByLayer
62
2
370
-1
100
AcDbPolyline
90
2
70
0
43
0
10
581.361889
20
26.970713
10
580.617471
20
26.335011
0
LWPOLYLINE
5
1DE
100
AcDbEntity
8
0
6
ByLayer
62
1
370
-1
100
AcDbPolyline
90
3
70
0
43
0
10
507.781193
20
52.000133
10
508.176191
20
50.938907
10
508.310924
20
49.800039
0
LWPOLYLINE
5
1DF
100
AcDbEntity
8
0
6
ByLayer
62
2
370
-1
100
AcDbPolyline
90
2
70
0
43
0
10
568.16275
20
30.834573
10
568.52185
20
31.799332
0
LWPOLYLINE
5
1E0
100
AcDbEntity
8
0
6
ByLayer
62
1
370
-1
100
AcDbPolyline
90
2
70
0
43
0
10
585.952515
20
207.00628
10
585.952515
20
208.806339
0
LWPOLYLINE
5
1E1
100
AcDbEntity
8
0
6
ByLayer
62
1
370
-1
100
AcDbPolyline
90
2
70
0
43
0
10
441.452875
20
19.798851
10
436.959728
20
24.799067
0
LWPOLYLINE
5
1E2
100
AcDbEntity
8
0
6
ByLayer
62
1
370
-1
100
AcDbPolyline
90
2
70
0
43
0
10
461.222739
20
21.798926
10
459.425492
20
19.798851
0
LWPOLYLINE
5
1E3
100
AcDbEntity
8
0
6
ByLayer
62
2
370
-1
100
AcDbPolyline
90
2
70
0
43
0
10
582.292234
20
30.834573
10
582.414719
20
29.799257
0
LWPOLYLINE
5
1E4
100
AcDbEntity
8
0
6
ByLayer
62
2
370
-1
100
AcDbPolyline
90
2
70
0
43
0
10
581.933135
20
27.79918
10
581.361889
20
26.970713
0
LWPOLYLINE
5
1E5
100
AcDbEntity
8
0
6
ByLayer
62
2
370
-1
100
AcDbPolyline
90
2
70
0
43
0
10
568.16275
20
28.763939
10
568.040266
20
29.799257
0
LWPOLYLINE
5
1E6
100
AcDbEntity
8
0
6
ByLayer
62
1
370
-1
100
AcDbPolyline
90
2
70
0
43
0
10
596.736085
20
21.798926
10
596.736085
20
42.594194
0
LWPOLYLINE
5
1E7
100
AcDbEntity
8
0
6
ByLayer
62
1
370
-1
100
AcDbPolyline
90
2
70
0
43
0
10
505.380329
20
45.5498
10
504.356963
20
45.399878
0
LWPOLYLINE
5
1E8
100
AcDbEntity
8
0
6
ByLayer
62
1
370
-1
100
AcDbPolyline
90
2
70
0
43
0
10
387.726287
20
387.877109
10
523.239633
20
387.877109
0
LWPOLYLINE
5
1E9
100
AcDbEntity
8
0
6
ByLayer
62
2
370
-1
100
AcDbPolyline
90
2
70
0
43
0
10
415.369304
20
377.048254
10
414.624859
20
376.412554
0
LWPOLYLINE
5
1EA
100
AcDbEntity
8
0
6
ByLayer
62
2
370
-1
100
AcDbPolyline
90
2
70
0
43
0
10
415.940522
20
377.876712
10
415.369304
20
377.048254
0
LWPOLYLINE
5
1EB
100
AcDbEntity
8
0
6
ByLayer
62
7
370
-1
100
AcDbPolyline
90
5
70
0
43
0
10
173.832695
20
359.806169
10
170.312447
20
359.806169
10
170.312447
20
371.10114
10
173.832695
20
371.10114
10
173.832695
20
359.806169
0
LWPOLYLINE
5
1EC
100
AcDbEntity
8
0
6
ByLayer
62
7
370
-1
100
AcDbPolyline
90
5
70
0
43
0
10
173.933273
20
372.710397
10
170.211869
20
372.710397
10
170.211869
20
375.45619
10
173.933273
20
375.45619
10
173.933273
20
372.710397
0
LWPOLYLINE
5
1ED
100
AcDbEntity
8
0
6
ByLayer
62
7
370
-1
100
AcDbPolyline
90
71
70
0
43
0
10
187.330337
20
364.654056
10
187.2285
20
363.605524
10
186.922994
20
362.652544
10
186.421358
20
361.815228
10
185.731139
20
361.113691
10
184.86742
20
360.554222
10
183.865407
20
360.143109
10
182.677322
20
359.890404
10
181.255393
20
359.806169
10
179.629791
20
359.87909
10
178.253122
20
360.097849
10
176.216406
20
360.751608
10
176.216406
20
364.000296
10
176.578491
20
364.000296
10
177.474897
20
363.512489
10
178.514626
20
363.095088
10
179.57699
20
362.808441
10
180.541284
20
362.712889
10
181.723084
20
362.808441
10
182.31021
20
362.960564
10
182.794244
20
363.225842
10
183.342399
20
363.8444
10
183.497037
20
364.288203
10
183.548584
20
364.885388
10
183.475664
20
365.472514
10
183.256905
20
365.906259
10
182.917454
20
366.214282
10
182.48245
20
366.424238
10
181.325797
20
366.615337
10
180.13897
20
366.635459
10
179.495269
20
366.635453
10
179.495269
20
369.27061
10
180.088681
20
369.27061
10
181.345913
20
369.330958
10
182.321525
20
369.572348
10
182.950141
20
370.105412
10
183.119866
20
370.507728
10
183.176443
20
371.030737
10
183.12364
20
371.44185
10
182.965228
20
371.769987
10
182.44222
20
372.217563
10
181.597359
20
372.458951
10
180.772616
20
372.519298
10
179.646137
20
372.388548
10
178.529714
20
372.056637
10
177.644623
20
371.639236
10
176.960688
20
371.252008
10
176.648895
20
371.252008
10
176.648895
20
374.460465
10
178.7359
20
375.099137
10
180.062279
20
375.329213
10
181.416319
20
375.405904
10
182.664749
20
375.348071
10
183.734654
20
375.174572
10
184.643632
20
374.890436
10
185.409287
20
374.500696
10
186.078134
20
373.963859
10
186.555882
20
373.298782
10
186.84253
20
372.523069
10
186.938079
20
371.654324
10
186.753269
20
370.456181
10
186.198829
20
369.416451
10
185.342654
20
368.625651
10
184.252633
20
368.174304
10
184.252633
20
368.033495
10
185.293621
20
367.761932
10
186.28432
20
367.138345
10
186.69795
20
366.689516
10
187.033631
20
366.127532
10
187.25616
20
365.449883
10
187.330337
20
364.654056
0
LWPOLYLINE
5
1EE
100
AcDbEntity
8
0
6
ByLayer
62
2
370
-1
100
AcDbPolyline
90
2
70
0
43
0
10
81.02615
20
198.306188
10
81.414377
20
198.357298
0
LWPOLYLINE
5
1EF
100
AcDbEntity
8
0
6
ByLayer
62
1
370
-1
100
AcDbPolyline
90
2
70
0
43
0
10
86.026148
20
317.806174
10
86.026148
20
297.806175
0
LWPOLYLINE
5
1F0
100
AcDbEntity
8
0
6
ByLayer
62
1
370
-1
100
AcDbPolyline
90
2
70
0
43
0
10
276.026135
20
221.80618
10
266.026135
20
211.806175
0
LWPOLYLINE
5
1F1
100
AcDbEntity
8
0
6
ByLayer
62
2
370
-1
100
AcDbPolyline
90
2
70
0
43
0
10
96.026148
20
281.813214
10
96.026148
20
258.813215
0
LWPOLYLINE
5
1F2
100
AcDbEntity
8
0
6
ByLayer
62
2
370
-1
100
AcDbPolyline
90
2
70
0
43
0
10
99.526149
20
269.806177
10
99.57726
20
269.41795
0
LWPOLYLINE
5
1F3
100
AcDbEntity
8
0
6
ByLayer
62
2
370
-1
100
AcDbPolyline
90
3
70
0
43
0
10
100.276149
20
268.507139
10
100.637919
20
268.357288
10
101.026149
20
268.306177
0
LWPOLYLINE
5
1F4
100
AcDbEntity
8
0
6
ByLayer
62
2
370
-1
100
AcDbPolyline
90
2
70
0
43
0
10
88.990873
20
215.669882
10
88.495415
20
215.501705
0
LWPOLYLINE
5
1F5
100
AcDbEntity
8
0
6
ByLayer
62
2
370
-1
100
AcDbPolyline
90
2
70
0
43
0
10
92.026147
20
254.813215
10
90.026149
20
254.813215
0
LWPOLYLINE
5
1F6
100
AcDbEntity
8
0
6
ByLayer
62
2
370
-1
100
AcDbPolyline
90
2
70
0
43
0
10
88.990873
20
285.676916
10
88.495415
20
285.508731
0
LWPOLYLINE
5
1F7
100
AcDbEntity
8
0
6
ByLayer
62
2
370
-1
100
AcDbPolyline
90
2
70
0
43
0
10
88.495415
20
215.501705
10
88.02615
20
215.270283
0
LWPOLYLINE
5
1F8
100
AcDbEntity
8
0
6
ByLayer
62
2
370
-1
100
AcDbPolyline
90
2
70
0
43
0
10
87.591104
20
214.979594
10
87.197723
20
214.634606
0
LWPOLYLINE
5
1F9
100
AcDbEntity
8
0
6
ByLayer
62
2
370
-1
100
AcDbPolyline
90
2
70
0
43
0
10
88.02615
20
215.270283
10
87.591104
20
214.979594
0
LWPOLYLINE
5
1FA
100
AcDbEntity
8
0
6
ByLayer
62
1
370
-1
100
AcDbPolyline
90
2
70
0
43
0
10
73.026151
20
124.806179
10
98.026149
20
149.806186
0
LWPOLYLINE
5
1FB
100
AcDbEntity
8
0
6
ByLayer
62
2
370
-1
100
AcDbPolyline
90
2
70
0
43
0
10
90.026149
20
285.813212
10
89.504043
20
285.778993
0
LWPOLYLINE
5
1FC
100
AcDbEntity
8
0
6
ByLayer
62
2
370
-1
100
AcDbPolyline
90
2
70
0
43
0
10
93.556881
20
255.117699
10
94.026149
20
255.349115
0
LWPOLYLINE
5
1FD
100
AcDbEntity
8
0
6
ByLayer
62
1
370
-1
100
AcDbPolyline
90
2
70
0
43
0
10
76.026151
20
181.806178
10
86.026148
20
171.806198
0
LWPOLYLINE
5
1FE
100
AcDbEntity
8
0
6
ByLayer
62
1
370
-1
100
AcDbPolyline
90
2
70
0
43
0
10
86.026148
20
297.806175
10
76.026151
20
287.806175
0
LWPOLYLINE
5
1FF
100
AcDbEntity
8
0
6
ByLayer
62
2
370
-1
100
AcDbPolyline
90
2
70
0
43
0
10
99.727111
20
200.556176
10
99.57726
20
200.194424
0
LWPOLYLINE
5
200
100
AcDbEntity
8
0
6
ByLayer
62
1
370
-1
100
AcDbPolyline
90
2
70
0
43
0
10
66.026151
20
131.806194
10
66.026151
20
127.806202
0
LWPOLYLINE
5
201
100
AcDbEntity
8
0
6
ByLayer
62
2
370
-1
100
AcDbPolyline
90
2
70
0
43
0
10
108.026146
20
309.806173
10
244.026137
20
309.806173
0
LWPOLYLINE
5
202
100
AcDbEntity
8
0
6
ByLayer
62
2
370
-1
100
AcDbPolyline
90
2
70
0
43
0
10
86.852735
20
214.241216
10
86.562049
20
213.806171
0
LWPOLYLINE
5
203
100
AcDbEntity
8
0
6
ByLayer
62
2
370
-1
100
AcDbPolyline
90
2
70
0
43
0
10
87.197723
20
214.634606
10
86.852735
20
214.241216
0
LWPOLYLINE
5
204
100
AcDbEntity
8
0
6
ByLayer
62
2
370
-1
100
AcDbPolyline
90
2
70
0
43
0
10
249.727099
20
234.05618
10
249.965475
20
233.745521
0
LWPOLYLINE
5
205
100
AcDbEntity
8
0
6
ByLayer
62
1
370
-1
100
AcDbPolyline
90
2
70
0
43
0
10
66.026151
20
339.806173
10
66.026151
20
337.806171
0
LWPOLYLINE
5
206
100
AcDbEntity
8
0
6
ByLayer
62
2
370
-1
100
AcDbPolyline
90
2
70
0
43
0
10
256.162432
20
221.633782
10
256.330617
20
221.138324
0
LWPOLYLINE
5
207
100
AcDbEntity
8
0
6
ByLayer
62
2
370
-1
100
AcDbPolyline
90
2
70
0
43
0
10
249.577248
20
234.417952
10
249.727099
20
234.05618
0
LWPOLYLINE
5
208
100
AcDbEntity
8
0
6
ByLayer
62
2
370
-1
100
AcDbPolyline
90
2
70
0
43
0
10
256.060358
20
222.146952
10
256.162432
20
221.633782
0
LWPOLYLINE
5
209
100
AcDbEntity
8
0
6
ByLayer
62
2
370
-1
100
AcDbPolyline
90
2
70
0
43
0
10
251.776137
20
236.105217
10
251.414365
20
236.255069
0
LWPOLYLINE
5
20A
100
AcDbEntity
8
0
6
ByLayer
62
2
370
-1
100
AcDbPolyline
90
2
70
0
43
0
10
93.556881
20
285.508731
10
93.061426
20
285.676916
0
LWPOLYLINE
5
20B
100
AcDbEntity
8
0
6
ByLayer
62
2
370
-1
100
AcDbPolyline
90
3
70
0
43
0
10
99.526149
20
199.806171
10
99.57726
20
199.417946
10
99.727111
20
199.056193
0
LWPOLYLINE
5
20C
100
AcDbEntity
8
0
6
ByLayer
62
2
370
-1
100
AcDbPolyline
90
2
70
0
43
0
10
82.086811
20
198.745523
10
82.325187
20
199.056193
0
LWPOLYLINE
5
20D
100
AcDbEntity
8
0
6
ByLayer
62
2
370
-1
100
AcDbPolyline
90
2
70
0
43
0
10
95.199561
20
214.241216
10
94.854576
20
214.634606
0
LWPOLYLINE
5
20E
100
AcDbEntity
8
0
6
ByLayer
62
2
370
-1
100
AcDbPolyline
90
3
70
0
43
0
10
102.475036
20
270.194405
10
102.325187
20
270.556177
10
102.086808
20
270.866839
0
LWPOLYLINE
5
20F
100
AcDbEntity
8
0
6
ByLayer
62
2
370
-1
100
AcDbPolyline
90
2
70
0
43
0
10
258.495402
20
218.973547
10
258.99086
20
218.805342
0
LWPOLYLINE
5
210
100
AcDbEntity
8
0
6
ByLayer
62
2
370
-1
100
AcDbPolyline
90
2
70
0
43
0
10
82.325187
20
270.556177
10
82.086811
20
270.866839
0
LWPOLYLINE
5
211
100
AcDbEntity
8
0
6
ByLayer
62
2
370
-1
100
AcDbPolyline
90
3
70
0
43
0
10
81.02615
20
268.306177
10
81.414377
20
268.357288
10
81.776149
20
268.507139
0
LWPOLYLINE
5
212
100
AcDbEntity
8
0
6
ByLayer
62
2
370
-1
100
AcDbPolyline
90
4
70
0
43
0
10
99.965487
20
270.866839
10
99.727111
20
270.556177
10
99.57726
20
270.194405
10
99.526149
20
269.806177
0
LWPOLYLINE
5
213
100
AcDbEntity
8
0
6
ByLayer
62
2
370
-1
100
AcDbPolyline
90
2
70
0
43
0
10
102.325187
20
199.056193
10
102.475036
20
199.417946
0
LWPOLYLINE
5
214
100
AcDbEntity
8
0
6
ByLayer
62
2
370
-1
100
AcDbPolyline
90
5
70
0
43
0
10
86.330632
20
257.282482
10
86.562049
20
256.813217
10
86.852735
20
256.378168
10
87.197723
20
255.984787
10
87.591104
20
255.639801
0
LWPOLYLINE
5
215
100
AcDbEntity
8
0
6
ByLayer
62
1
370
-1
100
AcDbPolyline
90
2
70
0
43
0
10
66.026151
20
131.806194
10
86.026148
20
151.806182
0
LWPOLYLINE
5
216
100
AcDbEntity
8
0
6
ByLayer
62
2
370
-1
100
AcDbPolyline
90
3
70
0
43
0
10
252.086796
20
233.745521
10
252.325175
20
234.05618
10
252.475024
20
234.417952
0
LWPOLYLINE
5
217
100
AcDbEntity
8
0
6
ByLayer
62
2
370
-1
100
AcDbPolyline
90
3
70
0
43
0
10
102.086808
20
268.745518
10
102.325187
20
269.056177
10
102.475036
20
269.41795
0
LWPOLYLINE
5
218
100
AcDbEntity
8
0
6
ByLayer
62
2
370
-1
100
AcDbPolyline
90
2
70
0
43
0
10
263.06141
20
218.805342
10
263.556869
20
218.973547
0
LWPOLYLINE
5
219
100
AcDbEntity
8
0
6
ByLayer
62
2
370
-1
100
AcDbPolyline
90
2
70
0
43
0
10
262.54824
20
218.703291
10
263.06141
20
218.805342
0
LWPOLYLINE
5
21A
100
AcDbEntity
8
0
6
ByLayer
62
2
370
-1
100
AcDbPolyline
90
2
70
0
43
0
10
262.026135
20
218.669057
10
262.54824
20
218.703291
0
LWPOLYLINE
5
21B
100
AcDbEntity
8
0
6
ByLayer
62
2
370
-1
100
AcDbPolyline
90
2
70
0
43
0
10
101.026149
20
198.306188
10
101.414377
20
198.357298
0
LWPOLYLINE
5
21C
100
AcDbEntity
8
0
6
ByLayer
62
2
370
-1
100
AcDbPolyline
90
2
70
0
43
0
10
156.026144
20
239.806181
10
156.026144
20
229.806181
0
LWPOLYLINE
5
21D
100
AcDbEntity
8
0
6
ByLayer
62
2
370
-1
100
AcDbPolyline
90
2
70
0
43
0
10
251.026137
20
236.306179
10
250.637906
20
236.255069
0
LWPOLYLINE
5
21E
100
AcDbEntity
8
0
6
ByLayer
62
1
370
-1
100
AcDbPolyline
90
2
70
0
43
0
10
86.026148
20
239.806181
10
86.026148
20
229.806181
0
LWPOLYLINE
5
21F
100
AcDbEntity
8
0
6
ByLayer
62
2
370
-1
100
AcDbPolyline
90
2
70
0
43
0
10
269.727096
20
234.05618
10
269.965475
20
233.745521
0
LWPOLYLINE
5
220
100
AcDbEntity
8
0
6
ByLayer
62
2
370
-1
100
AcDbPolyline
90
2
70
0
43
0
10
80.27615
20
198.507158
10
80.637922
20
198.357298
0
LWPOLYLINE
5
221
100
AcDbEntity
8
0
6
ByLayer
62
2
370
-1
100
AcDbPolyline
90
2
70
0
43
0
10
100.637919
20
198.357298
10
101.026149
20
198.306188
0
LWPOLYLINE
5
222
100
AcDbEntity
8
0
6
ByLayer
62
2
370
-1
100
AcDbPolyline
90
2
70
0
43
0
10
86.026148
20
258.813215
10
86.026148
20
281.813214
0
LWPOLYLINE
5
223
100
AcDbEntity
8
0
6
ByLayer
62
1
370
-1
100
AcDbPolyline
90
2
70
0
43
0
10
279.026135
20
124.806179
10
281.096486
20
124.806179
0
LWPOLYLINE
5
224
100
AcDbEntity
8
0
6
ByLayer
62
2
370
-1
100
AcDbPolyline
90
2
70
0
43
0
10
80.637922
20
268.357288
10
81.02615
20
268.306177
0
LWPOLYLINE
5
225
100
AcDbEntity
8
0
6
ByLayer
62
2
370
-1
100
AcDbPolyline
90
2
70
0
43
0
10
88.02615
20
255.349115
10
88.495415
20
255.117699
0
LWPOLYLINE
5
226
100
AcDbEntity
8
0
6
ByLayer
62
2
370
-1
100
AcDbPolyline
90
2
70
0
43
0
10
87.591104
20
255.639801
10
88.02615
20
255.349115
0
LWPOLYLINE
5
227
100
AcDbEntity
8
0
6
ByLayer
62
2
370
-1
100
AcDbPolyline
90
2
70
0
43
0
10
86.162447
20
257.77794
10
86.330632
20
257.282482
0
LWPOLYLINE
5
228
100
AcDbEntity
8
0
6
ByLayer
62
2
370
-1
100
AcDbPolyline
90
2
70
0
43
0
10
86.026148
20
258.813215
10
86.06037
20
258.29111
0
LWPOLYLINE
5
229
100
AcDbEntity
8
0
6
ByLayer
62
2
370
-1
100
AcDbPolyline
90
2
70
0
43
0
10
92.548253
20
285.778993
10
92.026147
20
285.813212
0
LWPOLYLINE
5
22A
100
AcDbEntity
8
0
6
ByLayer
62
2
370
-1
100
AcDbPolyline
90
2
70
0
43
0
10
93.061426
20
285.676916
10
92.548253
20
285.778993
0
LWPOLYLINE
5
22B
100
AcDbEntity
8
0
6
ByLayer
62
2
370
-1
100
AcDbPolyline
90
2
70
0
43
0
10
94.461195
20
284.986626
10
94.026149
20
285.277314
0
LWPOLYLINE
5
22C
100
AcDbEntity
8
0
6
ByLayer
62
2
370
-1
100
AcDbPolyline
90
2
70
0
43
0
10
94.854576
20
284.64164
10
94.461195
20
284.986626
0
LWPOLYLINE
5
22D
100
AcDbEntity
8
0
6
ByLayer
62
2
370
-1
100
AcDbPolyline
90
2
70
0
43
0
10
95.49025
20
283.813213
10
95.199561
20
284.248259
0
LWPOLYLINE
5
22E
100
AcDbEntity
8
0
6
ByLayer
62
2
370
-1
100
AcDbPolyline
90
3
70
0
43
0
10
82.325187
20
199.056193
10
82.475039
20
199.417946
10
82.526149
20
199.806171
0
LWPOLYLINE
5
22F
100
AcDbEntity
8
0
6
ByLayer
62
2
370
-1
100
AcDbPolyline
90
2
70
0
43
0
10
93.061426
20
184.942486
10
93.556881
20
185.110662
0
LWPOLYLINE
5
230
100
AcDbEntity
8
0
6
ByLayer
62
1
370
-1
100
AcDbPolyline
90
2
70
0
43
0
10
283.026132
20
124.806179
10
286.026126
20
127.806202
0
LWPOLYLINE
5
231
100
AcDbEntity
8
0
6
ByLayer
62
2
370
-1
100
AcDbPolyline
90
4
70
0
43
0
10
95.721667
20
187.275447
10
95.889851
20
187.770917
10
95.991928
20
188.284081
10
96.026148
20
188.806193
0
LWPOLYLINE
5
232
100
AcDbEntity
8
0
6
ByLayer
62
2
370
-1
100
AcDbPolyline
90
2
70
0
43
0
10
101.776149
20
271.105215
10
101.414377
20
271.255067
0
LWPOLYLINE
5
233
100
AcDbEntity
8
0
6
ByLayer
62
2
370
-1
100
AcDbPolyline
90
2
70
0
43
0
10
271.026134
20
233.30618
10
271.414364
20
233.357293
0
LWPOLYLINE
5
234
100
AcDbEntity
8
0
6
ByLayer
62
1
370
-1
100
AcDbPolyline
90
2
70
0
43
0
10
98.026149
20
319.806173
10
254.026137
20
319.806173
0
LWPOLYLINE
5
235
100
AcDbEntity
8
0
6
ByLayer
62
2
370
-1
100
AcDbPolyline
90
2
70
0
43
0
10
99.965487
20
268.745518
10
100.276149
20
268.507139
0
LWPOLYLINE
5
236
100
AcDbEntity
8
0
6
ByLayer
62
2
370
-1
100
AcDbPolyline
90
3
70
0
43
0
10
81.02615
20
201.306182
10
80.637922
20
201.255071
10
80.27615
20
201.105211
0
LWPOLYLINE
5
237
100
AcDbEntity
8
0
6
ByLayer
62
2
370
-1
100
AcDbPolyline
90
4
70
0
43
0
10
93.556881
20
185.110662
10
94.026149
20
185.342084
10
94.461195
20
185.632773
10
94.854576
20
185.977761
0
LWPOLYLINE
5
238
100
AcDbEntity
8
0
6
ByLayer
62
2
370
-1
100
AcDbPolyline
90
2
70
0
43
0
10
272.325171
20
234.05618
10
272.377713
20
234.183024
0
LWPOLYLINE
5
239
100
AcDbEntity
8
0
6
ByLayer
62
2
370
-1
100
AcDbPolyline
90
2
70
0
43
0
10
272.475023
20
234.417952
10
272.526133
20
234.80618
0
LWPOLYLINE
5
23A
100
AcDbEntity
8
0
6
ByLayer
62
2
370
-1
100
AcDbPolyline
90
2
70
0
43
0
10
252.526137
20
234.80618
10
252.475024
20
235.19441
0
LWPOLYLINE
5
23B
100
AcDbEntity
8
0
6
ByLayer
62
2
370
-1
100
AcDbPolyline
90
3
70
0
43
0
10
79.52615
20
269.806177
10
79.57726
20
269.41795
10
79.727112
20
269.056177
0
LWPOLYLINE
5
23C
100
AcDbEntity
8
0
6
ByLayer
62
2
370
-1
100
AcDbPolyline
90
2
70
0
43
0
10
96.026148
20
229.806181
10
96.026148
20
239.806181
0
LWPOLYLINE
5
23D
100
AcDbEntity
8
0
6
ByLayer
62
2
370
-1
100
AcDbPolyline
90
2
70
0
43
0
10
269.577247
20
234.417952
10
269.727096
20
234.05618
0
LWPOLYLINE
5
23E
100
AcDbEntity
8
0
6
ByLayer
62
1
370
-1
100
AcDbPolyline
90
2
70
0
43
0
10
86.026148
20
229.806181
10
76.026151
20
219.806181
0
LWPOLYLINE
5
23F
100
AcDbEntity
8
0
6
ByLayer
62
2
370
-1
100
AcDbPolyline
90
2
70
0
43
0
10
80.637922
20
198.357298
10
81.02615
20
198.306188
0
LWPOLYLINE
5
240
100
AcDbEntity
8
0
6
ByLayer
62
2
370
-1
100
AcDbPolyline
90
3
70
0
43
0
10
258.99086
20
218.805342
10
259.50403
20
218.703291
10
260.026136
20
218.669057
0
LWPOLYLINE
5
241
100
AcDbEntity
8
0
6
ByLayer
62
2
370
-1
100
AcDbPolyline
90
2
70
0
43
0
10
262.026135
20
218.669057
10
260.026136
20
218.669057
0
LWPOLYLINE
5
242
100
AcDbEntity
8
0
6
ByLayer
62
2
370
-1
100
AcDbPolyline
90
4
70
0
43
0
10
94.854576
20
185.977761
10
95.199561
20
186.371151
10
95.49025
20
186.806197
10
95.721667
20
187.275447
0
LWPOLYLINE
5
243
100
AcDbEntity
8
0
6
ByLayer
62
2
370
-1
100
AcDbPolyline
90
2
70
0
43
0
10
136.026144
20
259.806178
10
156.026144
20
239.806181
0
LWPOLYLINE
5
244
100
AcDbEntity
8
0
6
ByLayer
62
2
370
-1
100
AcDbPolyline
90
2
70
0
43
0
10
86.162447
20
187.770917
10
86.330632
20
187.275447
0
LWPOLYLINE
5
245
100
AcDbEntity
8
0
6
ByLayer
62
2
370
-1
100
AcDbPolyline
90
2
70
0
43
0
10
256.852722
20
220.234013
10
257.197708
20
219.840632
0
LWPOLYLINE
5
246
100
AcDbEntity
8
0
6
ByLayer
62
1
370
-1
100
AcDbPolyline
90
2
70
0
43
0
10
76.026151
20
249.806178
10
86.026148
20
239.806181
0
LWPOLYLINE
5
247
100
AcDbEntity
8
0
6
ByLayer
62
2
370
-1
100
AcDbPolyline
90
4
70
0
43
0
10
93.556881
20
215.501705
10
93.061426
20
215.669882
10
92.548253
20
215.771961
10
92.026147
20
215.806195
0
LWPOLYLINE
5
248
100
AcDbEntity
8
0
6
ByLayer
62
1
370
-1
100
AcDbPolyline
90
2
70
0
43
0
10
66.026151
20
341.806172
10
66.026151
20
339.806173
0
LWPOLYLINE
5
249
100
AcDbEntity
8
0
6
ByLayer
62
1
370
-1
100
AcDbPolyline
90
2
70
0
43
0
10
66.026151
20
127.806202
10
69.026151
20
124.806179
0
LWPOLYLINE
5
24A
100
AcDbEntity
8
0
6
ByLayer
62
2
370
-1
100
AcDbPolyline
90
2
70
0
43
0
10
256.026135
20
222.669058
10
256.060358
20
222.146952
0
LWPOLYLINE
5
24B
100
AcDbEntity
8
0
6
ByLayer
62
2
370
-1
100
AcDbPolyline
90
2
70
0
43
0
10
79.52615
20
199.806171
10
79.57726
20
199.417946
0
LWPOLYLINE
5
24C
100
AcDbEntity
8
0
6
ByLayer
62
2
370
-1
100
AcDbPolyline
90
3
70
0
43
0
10
90.026149
20
215.806195
10
89.504043
20
215.771961
10
88.990873
20
215.669882
0
LWPOLYLINE
5
24D
100
AcDbEntity
8
0
6
ByLayer
62
2
370
-1
100
AcDbPolyline
90
2
70
0
43
0
10
101.776149
20
268.507139
10
102.086808
20
268.745518
0
LWPOLYLINE
5
24E
100
AcDbEntity
8
0
6
ByLayer
62
2
370
-1
100
AcDbPolyline
90
2
70
0
43
0
10
86.026148
20
188.806193
10
86.026148
20
211.806175
0
LWPOLYLINE
5
24F
100
AcDbEntity
8
0
6
ByLayer
62
2
370
-1
100
AcDbPolyline
90
3
70
0
43
0
10
86.026148
20
188.806193
10
86.06037
20
188.284081
10
86.162447
20
187.770917
0
LWPOLYLINE
5
250
100
AcDbEntity
8
0
6
ByLayer
62
1
370
-1
100
AcDbPolyline
90
2
70
0
43
0
10
266.026135
20
211.806175
10
246.026136
20
191.806187
0
LWPOLYLINE
5
251
100
AcDbEntity
8
0
6
ByLayer
62
2
370
-1
100
AcDbPolyline
90
2
70
0
43
0
10
272.526133
20
234.80618
10
272.475023
20
235.19441
0
LWPOLYLINE
5
252
100
AcDbEntity
8
0
6
ByLayer
62
1
370
-1
100
AcDbPolyline
90
2
70
0
43
0
10
286.026126
20
341.806172
10
283.026132
20
344.806171
0
LWPOLYLINE
5
253
100
AcDbEntity
8
0
6
ByLayer
62
1
370
-1
100
AcDbPolyline
90
2
70
0
43
0
10
76.026151
20
287.806175
10
76.026151
20
249.806178
0
LWPOLYLINE
5
254
100
AcDbEntity
8
0
6
ByLayer
62
2
370
-1
100
AcDbPolyline
90
3
70
0
43
0
10
81.414377
20
271.255067
10
81.02615
20
271.306177
10
80.637922
20
271.255067
0
LWPOLYLINE
5
255
100
AcDbEntity
8
0
6
ByLayer
62
2
370
-1
100
AcDbPolyline
90
2
70
0
43
0
10
92.026147
20
184.806172
10
92.548253
20
184.840406
0
LWPOLYLINE
5
256
100
AcDbEntity
8
0
6
ByLayer
62
2
370
-1
100
AcDbPolyline
90
3
70
0
43
0
10
88.990873
20
184.942486
10
89.504043
20
184.840406
10
90.026149
20
184.806172
0
LWPOLYLINE
5
257
100
AcDbEntity
8
0
6
ByLayer
62
1
370
-1
100
AcDbPolyline
90
2
70
0
43
0
10
286.026126
20
131.806194
10
266.026135
20
151.806182
0
LWPOLYLINE
5
258
100
AcDbEntity
8
0
6
ByLayer
62
2
370
-1
100
AcDbPolyline
90
2
70
0
43
0
10
100.276149
20
198.507158
10
100.637919
20
198.357298
0
LWPOLYLINE
5
259
100
AcDbEntity
8
0
6
ByLayer
62
1
370
-1
100
AcDbPolyline
90
3
70
0
43
0
10
266.026135
20
151.806182
10
246.026136
20
171.806198
10
246.026136
20
191.806187
0
LWPOLYLINE
5
25A
100
AcDbEntity
8
0
6
ByLayer
62
2
370
-1
100
AcDbPolyline
90
2
70
0
43
0
10
265.991916
20
246.191159
10
265.889839
20
246.704333
0
LWPOLYLINE
5
25B
100
AcDbEntity
8
0
6
ByLayer
62
2
370
-1
100
AcDbPolyline
90
2
70
0
43
0
10
266.026135
20
245.669057
10
265.991916
20
246.191159
0
LWPOLYLINE
5
25C
100
AcDbEntity
8
0
6
ByLayer
62
2
370
-1
100
AcDbPolyline
90
2
70
0
43
0
10
94.026149
20
215.270283
10
93.556881
20
215.501705
0
LWPOLYLINE
5
25D
100
AcDbEntity
8
0
6
ByLayer
62
2
370
-1
100
AcDbPolyline
90
2
70
0
43
0
10
94.461195
20
214.979594
10
94.026149
20
215.270283
0
LWPOLYLINE
5
25E
100
AcDbEntity
8
0
6
ByLayer
62
2
370
-1
100
AcDbPolyline
90
2
70
0
43
0
10
94.854576
20
214.634606
10
94.461195
20
214.979594
0
LWPOLYLINE
5
25F
100
AcDbEntity
8
0
6
ByLayer
62
2
370
-1
100
AcDbPolyline
90
2
70
0
43
0
10
102.475036
20
200.194424
10
102.325187
20
200.556176
0
LWPOLYLINE
5
260
100
AcDbEntity
8
0
6
ByLayer
62
1
370
-1
100
AcDbPolyline
90
2
70
0
43
0
10
279.026135
20
344.806171
10
256.026135
20
321.806172
0
LWPOLYLINE
5
261
100
AcDbEntity
8
0
6
ByLayer
62
2
370
-1
100
AcDbPolyline
90
4
70
0
43
0
10
82.086811
20
200.866846
10
81.776149
20
201.105211
10
81.414377
20
201.255071
10
81.02615
20
201.306182
0
LWPOLYLINE
5
262
100
AcDbEntity
8
0
6
ByLayer
62
2
370
-1
100
AcDbPolyline
90
2
70
0
43
0
10
102.475036
20
269.41795
10
102.526149
20
269.806177
0
LWPOLYLINE
5
263
100
AcDbEntity
8
0
6
ByLayer
62
2
370
-1
100
AcDbPolyline
90
2
70
0
43
0
10
82.526149
20
199.806171
10
82.475039
20
200.194424
0
LWPOLYLINE
5
264
100
AcDbEntity
8
0
6
ByLayer
62
2
370
-1
100
AcDbPolyline
90
2
70
0
43
0
10
136.026144
20
209.806179
10
116.026147
20
209.806179
0
LWPOLYLINE
5
265
100
AcDbEntity
8
0
6
ByLayer
62
2
370
-1
100
AcDbPolyline
90
2
70
0
43
0
10
99.57726
20
200.194424
10
99.526149
20
199.806171
0
LWPOLYLINE
5
266
100
AcDbEntity
8
0
6
ByLayer
62
2
370
-1
100
AcDbPolyline
90
2
70
0
43
0
10
81.776149
20
198.507158
10
82.086811
20
198.745523
0
LWPOLYLINE
5
267
100
AcDbEntity
8
0
6
ByLayer
62
1
370
-1
100
AcDbPolyline
90
2
70
0
43
0
10
69.026151
20
344.806171
10
66.026151
20
341.806172
0
LWPOLYLINE
5
268
100
AcDbEntity
8
0
6
ByLayer
62
1
370
-1
100
AcDbPolyline
90
2
70
0
43
0
10
283.026132
20
344.806171
10
279.026135
20
344.806171
0
LWPOLYLINE
5
269
100
AcDbEntity
8
0
6
ByLayer
62
1
370
-1
100
AcDbPolyline
90
2
70
0
43
0
10
71.02615
20
344.806171
10
71.096505
20
344.806171
0
LWPOLYLINE
5
26A
100
AcDbEntity
8
0
6
ByLayer
62
2
370
-1
100
AcDbPolyline
90
2
70
0
43
0
10
79.965491
20
198.745523
10
80.27615
20
198.507158
0
LWPOLYLINE
5
26B
100
AcDbEntity
8
0
6
ByLayer
62
2
370
-1
100
AcDbPolyline
90
4
70
0
43
0
10
101.414377
20
198.357298
10
101.776149
20
198.507158
10
102.086808
20
198.745523
10
102.325187
20
199.056193
0
LWPOLYLINE
5
26C
100
AcDbEntity
8
0
6
ByLayer
62
1
370
-1
100
AcDbPolyline
90
2
70
0
43
0
10
73.026151
20
124.806179
10
71.096505
20
124.806179
0
LWPOLYLINE
5
26D
100
AcDbEntity
8
0
6
ByLayer
62
2
370
-1
100
AcDbPolyline
90
2
70
0
43
0
10
252.475024
20
235.19441
10
252.325175
20
235.556179
0
LWPOLYLINE
5
26E
100
AcDbEntity
8
0
6
ByLayer
62
1
370
-1
100
AcDbPolyline
90
2
70
0
43
0
10
286.026126
20
337.806171
10
246.026136
20
297.806175
0
LWPOLYLINE
5
26F
100
AcDbEntity
8
0
6
ByLayer
62
2
370
-1
100
AcDbPolyline
90
2
70
0
43
0
10
257.197708
20
248.497482
10
256.852722
20
248.104101
0
LWPOLYLINE
5
270
100
AcDbEntity
8
0
6
ByLayer
62
2
370
-1
100
AcDbPolyline
90
2
70
0
43
0
10
257.591089
20
248.842468
10
257.197708
20
248.497482
0
LWPOLYLINE
5
271
100
AcDbEntity
8
0
6
ByLayer
62
2
370
-1
100
AcDbPolyline
90
2
70
0
43
0
10
258.495402
20
249.364573
10
258.026134
20
249.133157
0
LWPOLYLINE
5
272
100
AcDbEntity
8
0
6
ByLayer
62
2
370
-1
100
AcDbPolyline
90
2
70
0
43
0
10
258.99086
20
249.532758
10
258.495402
20
249.364573
0
LWPOLYLINE
5
273
100
AcDbEntity
8
0
6
ByLayer
62
2
370
-1
100
AcDbPolyline
90
2
70
0
43
0
10
264.461182
20
219.495658
10
264.854563
20
219.840632
0
LWPOLYLINE
5
274
100
AcDbEntity
8
0
6
ByLayer
62
2
370
-1
100
AcDbPolyline
90
3
70
0
43
0
10
95.721667
20
213.33692
10
95.49025
20
213.806171
10
95.199561
20
214.241216
0
LWPOLYLINE
5
275
100
AcDbEntity
8
0
6
ByLayer
62
1
370
-1
100
AcDbPolyline
90
2
70
0
43
0
10
286.026126
20
131.806194
10
286.026126
20
127.806202
0
LWPOLYLINE
5
276
100
AcDbEntity
8
0
6
ByLayer
62
1
370
-1
100
AcDbPolyline
90
2
70
0
43
0
10
86.026148
20
151.806182
10
86.026148
20
171.806198
0
LWPOLYLINE
5
277
100
AcDbEntity
8
0
6
ByLayer
62
2
370
-1
100
AcDbPolyline
90
2
70
0
43
0
10
99.965487
20
198.745523
10
100.276149
20
198.507158
0
LWPOLYLINE
5
278
100
AcDbEntity
8
0
6
ByLayer
62
1
370
-1
100
AcDbPolyline
90
2
70
0
43
0
10
71.02615
20
344.806171
10
69.026151
20
344.806171
0
LWPOLYLINE
5
279
100
AcDbEntity
8
0
6
ByLayer
62
1
370
-1
100
AcDbPolyline
90
2
70
0
43
0
10
246.026136
20
277.806178
10
246.026136
20
297.806175
0
LWPOLYLINE
5
27A
100
AcDbEntity
8
0
6
ByLayer
62
1
370
-1
100
AcDbPolyline
90
2
70
0
43
0
10
266.026135
20
257.806179
10
246.026136
20
277.806178
0
LWPOLYLINE
5
27B
100
AcDbEntity
8
0
6
ByLayer
62
2
370
-1
100
AcDbPolyline
90
2
70
0
43
0
10
102.526149
20
199.806171
10
102.475036
20
200.194424
0
LWPOLYLINE
5
27C
100
AcDbEntity
8
0
6
ByLayer
62
2
370
-1
100
AcDbPolyline
90
2
70
0
43
0
10
102.086808
20
200.866846
10
101.776149
20
201.105211
0
LWPOLYLINE
5
27D
100
AcDbEntity
8
0
6
ByLayer
62
2
370
-1
100
AcDbPolyline
90
2
70
0
43
0
10
265.991916
20
222.146952
10
266.026135
20
222.669058
0
LWPOLYLINE
5
27E
100
AcDbEntity
8
0
6
ByLayer
62
2
370
-1
100
AcDbPolyline
90
2
70
0
43
0
10
101.414377
20
201.255071
10
101.026149
20
201.306182
0
LWPOLYLINE
5
27F
100
AcDbEntity
8
0
6
ByLayer
62
2
370
-1
100
AcDbPolyline
90
2
70
0
43
0
10
81.776149
20
268.507139
10
82.086811
20
268.745518
0
LWPOLYLINE
5
280
100
AcDbEntity
8
0
6
ByLayer
62
2
370
-1
100
AcDbPolyline
90
2
70
0
43
0
10
266.026135
20
245.669057
10
266.026135
20
222.669058
0
LWPOLYLINE
5
281
100
AcDbEntity
8
0
6
ByLayer
62
2
370
-1
100
AcDbPolyline
90
2
70
0
43
0
10
262.54824
20
249.634835
10
262.026135
20
249.669054
0
LWPOLYLINE
5
282
100
AcDbEntity
8
0
6
ByLayer
62
2
370
-1
100
AcDbPolyline
90
2
70
0
43
0
10
263.06141
20
249.532758
10
262.54824
20
249.634835
0
LWPOLYLINE
5
283
100
AcDbEntity
8
0
6
ByLayer
62
2
370
-1
100
AcDbPolyline
90
2
70
0
43
0
10
269.727096
20
235.556179
10
269.577247
20
235.19441
0
LWPOLYLINE
5
284
100
AcDbEntity
8
0
6
ByLayer
62
2
370
-1
100
AcDbPolyline
90
2
70
0
43
0
10
269.965475
20
235.866841
10
269.727096
20
235.556179
0
LWPOLYLINE
5
285
100
AcDbEntity
8
0
6
ByLayer
62
1
370
-1
100
AcDbPolyline
90
2
70
0
43
0
10
98.026149
20
149.806186
10
254.026137
20
149.806186
0
LWPOLYLINE
5
286
100
AcDbEntity
8
0
6
ByLayer
62
2
370
-1
100
AcDbPolyline
90
4
70
0
43
0
10
86.330632
20
213.33692
10
86.162447
20
212.841451
10
86.06037
20
212.328286
10
86.026148
20
211.806175
0
LWPOLYLINE
5
287
100
AcDbEntity
8
0
6
ByLayer
62
2
370
-1
100
AcDbPolyline
90
2
70
0
43
0
10
90.026149
20
215.806195
10
92.026147
20
215.806195
0
LWPOLYLINE
5
288
100
AcDbEntity
8
0
6
ByLayer
62
1
370
-1
100
AcDbPolyline
90
2
70
0
43
0
10
279.026135
20
124.806179
10
254.026137
20
149.806186
0
LWPOLYLINE
5
289
100
AcDbEntity
8
0
6
ByLayer
62
2
370
-1
100
AcDbPolyline
90
2
70
0
43
0
10
271.414364
20
236.255069
10
271.026134
20
236.306179
0
LWPOLYLINE
5
28A
100
AcDbEntity
8
0
6
ByLayer
62
2
370
-1
100
AcDbPolyline
90
3
70
0
43
0
10
100.637919
20
201.255071
10
100.276149
20
201.105211
10
99.965487
20
200.866846
0
LWPOLYLINE
5
28B
100
AcDbEntity
8
0
6
ByLayer
62
1
370
-1
100
AcDbPolyline
90
2
70
0
43
0
10
276.026135
20
247.806179
10
266.026135
20
257.806179
0
LWPOLYLINE
5
28C
100
AcDbEntity
8
0
6
ByLayer
62
1
370
-1
100
AcDbPolyline
90
2
70
0
43
0
10
286.026126
20
340.806171
10
286.026126
20
341.806172
0
LWPOLYLINE
5
28D
100
AcDbEntity
8
0
6
ByLayer
62
1
370
-1
100
AcDbPolyline
90
2
70
0
43
0
10
73.026151
20
344.806171
10
98.026149
20
319.806173
0
LWPOLYLINE
5
28E
100
AcDbEntity
8
0
6
ByLayer
62
2
370
-1
100
AcDbPolyline
90
2
70
0
43
0
10
176.026143
20
212.017475
10
176.063416
20
212.012677
0
LWPOLYLINE
5
28F
100
AcDbEntity
8
0
6
ByLayer
62
1
370
-1
100
AcDbPolyline
90
2
70
0
43
0
10
276.026135
20
247.806179
10
276.026135
20
221.80618
0
LWPOLYLINE
5
290
100
AcDbEntity
8
0
6
ByLayer
62
1
370
-1
100
AcDbPolyline
90
2
70
0
43
0
10
281.096486
20
124.806179
10
283.026132
20
124.806179
0
LWPOLYLINE
5
291
100
AcDbEntity
8
0
6
ByLayer
62
1
370
-1
100
AcDbPolyline
90
2
70
0
43
0
10
76.026151
20
219.806181
10
76.026151
20
181.806178
0
LWPOLYLINE
5
292
100
AcDbEntity
8
0
6
ByLayer
62
1
370
-1
100
AcDbPolyline
90
2
70
0
43
0
10
71.096505
20
344.806171
10
73.026151
20
344.806171
0
LWPOLYLINE
5
293
100
AcDbEntity
8
0
6
ByLayer
62
1
370
-1
100
AcDbPolyline
90
2
70
0
43
0
10
71.096505
20
124.806179
10
69.026151
20
124.806179
0
LWPOLYLINE
5
294
100
AcDbEntity
8
0
6
ByLayer
62
2
370
-1
100
AcDbPolyline
90
2
70
0
43
0
10
175.597532
20
253.053647
10
176.026143
20
252.997281
0
LWPOLYLINE
5
295
100
AcDbEntity
8
0
6
ByLayer
62
2
370
-1
100
AcDbPolyline
90
2
70
0
43
0
10
177.801891
20
254.326754
10
177.863159
20
254.792638
0
LWPOLYLINE
5
296
100
AcDbEntity
8
0
6
ByLayer
62
2
370
-1
100
AcDbPolyline
90
3
70
0
43
0
10
174.790185
20
256.064989
10
174.504183
20
255.692156
10
174.324425
20
255.258006
0
LWPOLYLINE
5
297
100
AcDbEntity
8
0
6
ByLayer
62
2
370
-1
100
AcDbPolyline
90
2
70
0
43
0
10
174.50444
20
253.892157
10
174.790549
20
253.519407
0
LWPOLYLINE
5
298
100
AcDbEntity
8
0
6
ByLayer
62
2
370
-1
100
AcDbPolyline
90
2
70
0
43
0
10
176.528784
20
256.531113
10
176.0629
20
256.59238
0
LWPOLYLINE
5
299
100
AcDbEntity
8
0
6
ByLayer
62
2
370
-1
100
AcDbPolyline
90
2
70
0
43
0
10
176.026143
20
256.587535
10
175.597035
20
256.53098
0
LWPOLYLINE
5
29A
100
AcDbEntity
8
0
6
ByLayer
62
2
370
-1
100
AcDbPolyline
90
3
70
0
43
0
10
69.777102
20
338.850681
10
69.956923
20
338.416553
10
70.242975
20
338.043763
0
LWPOLYLINE
5
29B
100
AcDbEntity
8
0
6
ByLayer
62
2
370
-1
100
AcDbPolyline
90
2
70
0
43
0
10
70.615768
20
337.757708
10
71.049893
20
337.577887
0
LWPOLYLINE
5
29C
100
AcDbEntity
8
0
6
ByLayer
62
2
370
-1
100
AcDbPolyline
90
2
70
0
43
0
10
71.096505
20
341.056172
10
71.049893
20
341.055325
0
LWPOLYLINE
5
29D
100
AcDbEntity
8
0
6
ByLayer
62
2
370
-1
100
AcDbPolyline
90
3
70
0
43
0
10
281.436516
20
340.8754
10
281.00239
20
341.055221
10
280.536515
20
341.116553
0
LWPOLYLINE
5
29E
100
AcDbEntity
8
0
6
ByLayer
62
2
370
-1
100
AcDbPolyline
90
2
70
0
43
0
10
278.977671
20
340.216555
10
278.797851
20
339.782429
0
LWPOLYLINE
5
29F
100
AcDbEntity
8
0
6
ByLayer
62
2
370
-1
100
AcDbPolyline
90
2
70
0
43
0
10
278.797851
20
338.850681
10
278.977671
20
338.416553
0
LWPOLYLINE
5
2A0
100
AcDbEntity
8
0
6
ByLayer
62
2
370
-1
100
AcDbPolyline
90
2
70
0
43
0
10
280.070642
20
337.577887
10
280.536515
20
337.516555
0
LWPOLYLINE
5
2A1
100
AcDbEntity
8
0
6
ByLayer
62
2
370
-1
100
AcDbPolyline
90
2
70
0
43
0
10
281.809309
20
338.043763
10
282.095361
20
338.416553
0
LWPOLYLINE
5
2A2
100
AcDbEntity
8
0
6
ByLayer
62
2
370
-1
100
AcDbPolyline
90
5
70
0
43
0
10
282.275167
20
338.850681
10
282.336522
20
339.316554
10
282.275167
20
339.782429
10
282.095361
20
340.216555
10
281.809309
20
340.589345
0
LWPOLYLINE
5
2A3
100
AcDbEntity
8
0
6
ByLayer
62
2
370
-1
100
AcDbPolyline
90
3
70
0
43
0
10
278.977671
20
129.395818
10
279.263723
20
129.023003
10
279.636516
20
128.736971
0
LWPOLYLINE
5
2A4
100
AcDbEntity
8
0
6
ByLayer
62
2
370
-1
100
AcDbPolyline
90
2
70
0
43
0
10
281.00239
20
128.557139
10
281.436516
20
128.736971
0
LWPOLYLINE
5
2A5
100
AcDbEntity
8
0
6
ByLayer
62
2
370
-1
100
AcDbPolyline
90
2
70
0
43
0
10
70.257289
20
131.60353
10
69.967086
20
131.23396
0
LWPOLYLINE
5
2A6
100
AcDbEntity
8
0
6
ByLayer
62
2
370
-1
100
AcDbPolyline
90
2
70
0
43
0
10
73.249115
20
129.831287
10
73.315655
20
130.296446
0
LWPOLYLINE
5
2A7
100
AcDbEntity
8
0
6
ByLayer
62
2
370
-1
100
AcDbPolyline
90
2
70
0
43
0
10
73.259535
20
130.762959
10
73.08458
20
131.199077
0
LWPOLYLINE
5
2A8
100
AcDbEntity
8
0
6
ByLayer
62
2
370
-1
100
AcDbPolyline
90
25
70
0
43
0
10
57.896506
20
25.806208
10
57.835171
20
26.272072
10
57.65535
20
26.706187
10
57.369298
20
27.079002
10
56.996505
20
27.365034
10
56.562379
20
27.544866
10
56.096504
20
27.606193
10
55.630631
20
27.544866
10
55.196506
20
27.365034
10
54.823713
20
27.079002
10
54.537661
20
26.706187
10
54.35784
20
26.272072
10
54.296505
20
25.806208
10
54.35784
20
25.340316
10
54.537661
20
24.906201
10
54.823713
20
24.533414
10
55.196506
20
24.247354
10
55.630631
20
24.067522
10
56.096504
20
24.006195
10
56.562379
20
24.067522
10
56.996505
20
24.247354
10
57.369298
20
24.533414
10
57.65535
20
24.906201
10
57.835171
20
25.340316
10
57.896506
20
25.806208
0
LWPOLYLINE
5
2A9
100
AcDbEntity
8
0
6
ByLayer
62
2
370
-1
100
AcDbPolyline
90
25
70
0
43
0
10
147.896498
20
25.806208
10
147.835163
20
26.272072
10
147.655342
20
26.706187
10
147.36929
20
27.079002
10
146.996497
20
27.365034
10
146.562372
20
27.544866
10
146.096499
20
27.606193
10
145.630623
20
27.544866
10
145.196498
20
27.365034
10
144.823705
20
27.079002
10
144.537653
20
26.706187
10
144.357832
20
26.272072
10
144.296497
20
25.806208
10
144.357832
20
25.340316
10
144.537653
20
24.906201
10
144.823705
20
24.533414
10
145.196498
20
24.247354
10
145.630623
20
24.067522
10
146.096499
20
24.006195
10
146.562372
20
24.067522
10
146.996497
20
24.247354
10
147.36929
20
24.533414
10
147.655342
20
24.906201
10
147.835163
20
25.340316
10
147.896498
20
25.806208
0
LWPOLYLINE
5
2AA
100
AcDbEntity
8
0
6
ByLayer
62
2
370
-1
100
AcDbPolyline
90
25
70
0
43
0
10
237.89649
20
25.806208
10
237.835158
20
26.272072
10
237.655337
20
26.706187
10
237.369282
20
27.079002
10
236.996489
20
27.365034
10
236.562364
20
27.544866
10
236.096491
20
27.606193
10
235.630616
20
27.544866
10
235.19649
20
27.365034
10
234.8237
20
27.079002
10
234.537645
20
26.706187
10
234.357824
20
26.272072
10
234.296492
20
25.806208
10
234.357824
20
25.340316
10
234.537645
20
24.906201
10
234.8237
20
24.533414
10
235.19649
20
24.247354
10
235.630616
20
24.067522
10
236.096491
20
24.006195
10
236.562364
20
24.067522
10
236.996489
20
24.247354
10
237.369282
20
24.533414
10
237.655337
20
24.906201
10
237.835158
20
25.340316
10
237.89649
20
25.806208
0
LWPOLYLINE
5
2AB
100
AcDbEntity
8
0
6
ByLayer
62
2
370
-1
100
AcDbPolyline
90
25
70
0
43
0
10
324.296476
20
25.806208
10
324.357831
20
25.340316
10
324.537634
20
24.906201
10
324.823695
20
24.533414
10
325.196482
20
24.247354
10
325.630596
20
24.067522
10
326.096489
20
24.006195
10
326.562353
20
24.067522
10
326.996496
20
24.247354
10
327.369283
20
24.533414
10
327.655315
20
24.906201
10
327.835147
20
25.340316
10
327.896474
20
25.806208
10
327.835147
20
26.272072
10
327.655315
20
26.706187
10
327.369283
20
27.079002
10
326.996496
20
27.365034
10
326.562353
20
27.544866
10
326.096489
20
27.606193
10
325.630596
20
27.544866
10
325.196482
20
27.365034
10
324.823695
20
27.079002
10
324.537634
20
26.706187
10
324.357831
20
26.272072
10
324.296476
20
25.806208
0
LWPOLYLINE
5
2AC
100
AcDbEntity
8
0
6
ByLayer
62
1
370
-1
100
AcDbPolyline
90
2
70
0
43
0
10
286.026126
20
340.806171
10
286.026126
20
337.806171
0
LWPOLYLINE
5
2AD
100
AcDbEntity
8
0
6
ByLayer
62
1
370
-1
100
AcDbPolyline
90
2
70
0
43
0
10
66.026151
20
337.806171
10
86.026148
20
317.806174
0
LWPOLYLINE
5
2AE
100
AcDbEntity
8
0
6
ByLayer
62
1
370
-1
100
AcDbPolyline
90
2
70
0
43
0
10
256.026135
20
321.806172
10
254.026137
20
319.806173
0
LWPOLYLINE
5
2AF
100
AcDbEntity
8
0
6
ByLayer
62
2
370
-1
100
AcDbPolyline
90
3
70
0
43
0
10
216.026139
20
281.806176
10
214.02614
20
279.806177
10
204.026141
20
269.806177
0
LWPOLYLINE
5
2B0
100
AcDbEntity
8
0
6
ByLayer
62
2
370
-1
100
AcDbPolyline
90
2
70
0
43
0
10
244.026137
20
309.806173
10
216.026139
20
281.806176
0
LWPOLYLINE
5
2B1
100
AcDbEntity
8
0
6
ByLayer
62
2
370
-1
100
AcDbPolyline
90
3
70
0
43
0
10
204.096493
20
269.806177
10
204.026141
20
269.806177
10
148.026145
20
269.806177
0
LWPOLYLINE
5
2B2
100
AcDbEntity
8
0
6
ByLayer
62
2
370
-1
100
AcDbPolyline
90
2
70
0
43
0
10
108.026146
20
309.806173
10
148.026145
20
269.806177
0
LWPOLYLINE
5
2B3
100
AcDbEntity
8
0
6
ByLayer
62
2
370
-1
100
AcDbPolyline
90
2
70
0
43
0
10
156.026144
20
229.806181
10
136.026144
20
209.806179
0
LWPOLYLINE
5
2B4
100
AcDbEntity
8
0
6
ByLayer
62
2
370
-1
100
AcDbPolyline
90
2
70
0
43
0
10
136.026144
20
259.806178
10
136.096499
20
259.806178
0
LWPOLYLINE
5
2B5
100
AcDbEntity
8
0
6
ByLayer
62
2
370
-1
100
AcDbPolyline
90
3
70
0
43
0
10
96.026148
20
239.806181
10
116.026147
20
259.806178
10
136.026144
20
259.806178
0
LWPOLYLINE
5
2B6
100
AcDbEntity
8
0
6
ByLayer
62
2
370
-1
100
AcDbPolyline
90
2
70
0
43
0
10
116.026147
20
209.806179
10
96.026148
20
229.806181
0
LWPOLYLINE
5
2B7
100
AcDbEntity
8
0
6
ByLayer
62
2
370
-1
100
AcDbPolyline
90
2
70
0
43
0
10
246.026136
20
239.806181
10
246.026136
20
229.806181
0
LWPOLYLINE
5
2B8
100
AcDbEntity
8
0
6
ByLayer
62
2
370
-1
100
AcDbPolyline
90
2
70
0
43
0
10
196.02614
20
229.806181
10
196.02614
20
239.806181
0
LWPOLYLINE
5
2B9
100
AcDbEntity
8
0
6
ByLayer
62
2
370
-1
100
AcDbPolyline
90
2
70
0
43
0
10
236.096491
20
249.735825
10
246.026136
20
239.806181
0
LWPOLYLINE
5
2BA
100
AcDbEntity
8
0
6
ByLayer
62
2
370
-1
100
AcDbPolyline
90
2
70
0
43
0
10
226.026139
20
259.806178
10
236.096491
20
249.735825
0
LWPOLYLINE
5
2BB
100
AcDbEntity
8
0
6
ByLayer
62
2
370
-1
100
AcDbPolyline
90
2
70
0
43
0
10
246.026136
20
229.806181
10
236.096491
20
219.876534
0
LWPOLYLINE
5
2BC
100
AcDbEntity
8
0
6
ByLayer
62
2
370
-1
100
AcDbPolyline
90
2
70
0
43
0
10
216.026139
20
209.806179
10
196.02614
20
229.806181
0
LWPOLYLINE
5
2BD
100
AcDbEntity
8
0
6
ByLayer
62
2
370
-1
100
AcDbPolyline
90
2
70
0
43
0
10
196.02614
20
239.806181
10
216.026139
20
259.806178
0
LWPOLYLINE
5
2BE
100
AcDbEntity
8
0
6
ByLayer
62
2
370
-1
100
AcDbPolyline
90
2
70
0
43
0
10
236.096491
20
219.876534
10
226.026139
20
209.806179
0
LWPOLYLINE
5
2BF
100
AcDbEntity
8
0
6
ByLayer
62
2
370
-1
100
AcDbPolyline
90
2
70
0
43
0
10
216.026139
20
259.806178
10
226.026139
20
259.806178
0
LWPOLYLINE
5
2C0
100
AcDbEntity
8
0
6
ByLayer
62
2
370
-1
100
AcDbPolyline
90
2
70
0
43
0
10
236.096491
20
219.876534
10
236.096491
20
219.806181
0
LWPOLYLINE
5
2C1
100
AcDbEntity
8
0
6
ByLayer
62
2
370
-1
100
AcDbPolyline
90
2
70
0
43
0
10
226.026139
20
209.806179
10
216.026139
20
209.806179
0
LWPOLYLINE
5
2C2
100
AcDbEntity
8
0
6
ByLayer
62
2
370
-1
100
AcDbPolyline
90
2
70
0
43
0
10
244.026137
20
159.806194
10
108.096502
20
159.806194
0
LWPOLYLINE
5
2C3
100
AcDbEntity
8
0
6
ByLayer
62
2
370
-1
100
AcDbPolyline
90
2
70
0
43
0
10
204.026141
20
199.806171
10
148.096498
20
199.806171
0
LWPOLYLINE
5
2C4
100
AcDbEntity
8
0
6
ByLayer
62
2
370
-1
100
AcDbPolyline
90
2
70
0
43
0
10
244.026137
20
309.806173
10
244.096489
20
309.806173
0
LWPOLYLINE
5
2C5
100
AcDbEntity
8
0
6
ByLayer
62
2
370
-1
100
AcDbPolyline
90
2
70
0
43
0
10
265.889839
20
246.704333
10
265.721654
20
247.199791
0
LWPOLYLINE
5
2C6
100
AcDbEntity
8
0
6
ByLayer
62
2
370
-1
100
AcDbPolyline
90
2
70
0
43
0
10
269.526134
20
234.80618
10
269.577247
20
234.417952
0
LWPOLYLINE
5
2C7
100
AcDbEntity
8
0
6
ByLayer
62
2
370
-1
100
AcDbPolyline
90
2
70
0
43
0
10
250.637906
20
233.357293
10
251.026137
20
233.30618
0
LWPOLYLINE
5
2C8
100
AcDbEntity
8
0
6
ByLayer
62
2
370
-1
100
AcDbPolyline
90
2
70
0
43
0
10
250.276137
20
233.507142
10
250.637906
20
233.357293
0
LWPOLYLINE
5
2C9
100
AcDbEntity
8
0
6
ByLayer
62
2
370
-1
100
AcDbPolyline
90
2
70
0
43
0
10
249.965475
20
233.745521
10
250.276137
20
233.507142
0
LWPOLYLINE
5
2CA
100
AcDbEntity
8
0
6
ByLayer
62
2
370
-1
100
AcDbPolyline
90
2
70
0
43
0
10
270.276134
20
236.105217
10
269.965475
20
235.866841
0
LWPOLYLINE
5
2CB
100
AcDbEntity
8
0
6
ByLayer
62
2
370
-1
100
AcDbPolyline
90
2
70
0
43
0
10
252.475024
20
234.417952
10
252.526137
20
234.80618
0
LWPOLYLINE
5
2CC
100
AcDbEntity
8
0
6
ByLayer
62
2
370
-1
100
AcDbPolyline
90
2
70
0
43
0
10
251.414365
20
233.357293
10
251.776137
20
233.507142
0
LWPOLYLINE
5
2CD
100
AcDbEntity
8
0
6
ByLayer
62
2
370
-1
100
AcDbPolyline
90
2
70
0
43
0
10
251.026137
20
233.30618
10
251.414365
20
233.357293
0
LWPOLYLINE
5
2CE
100
AcDbEntity
8
0
6
ByLayer
62
2
370
-1
100
AcDbPolyline
90
2
70
0
43
0
10
256.060358
20
246.191159
10
256.026135
20
245.669057
0
LWPOLYLINE
5
2CF
100
AcDbEntity
8
0
6
ByLayer
62
2
370
-1
100
AcDbPolyline
90
2
70
0
43
0
10
256.852722
20
248.104101
10
256.562033
20
247.669056
0
LWPOLYLINE
5
2D0
100
AcDbEntity
8
0
6
ByLayer
62
2
370
-1
100
AcDbPolyline
90
2
70
0
43
0
10
250.637906
20
236.255069
10
250.276137
20
236.105217
0
LWPOLYLINE
5
2D1
100
AcDbEntity
8
0
6
ByLayer
62
2
370
-1
100
AcDbPolyline
90
2
70
0
43
0
10
270.637906
20
233.357293
10
271.026134
20
233.30618
0
LWPOLYLINE
5
2D2
100
AcDbEntity
8
0
6
ByLayer
62
2
370
-1
100
AcDbPolyline
90
2
70
0
43
0
10
272.390641
20
235.398124
10
272.325171
20
235.556179
0
LWPOLYLINE
5
2D3
100
AcDbEntity
8
0
6
ByLayer
62
2
370
-1
100
AcDbPolyline
90
2
70
0
43
0
10
272.377713
20
234.183024
10
272.475023
20
234.417952
0
LWPOLYLINE
5
2D4
100
AcDbEntity
8
0
6
ByLayer
62
2
370
-1
100
AcDbPolyline
90
2
70
0
43
0
10
251.776137
20
233.507142
10
252.086796
20
233.745521
0
LWPOLYLINE
5
2D5
100
AcDbEntity
8
0
6
ByLayer
62
2
370
-1
100
AcDbPolyline
90
2
70
0
43
0
10
272.475023
20
235.19441
10
272.390641
20
235.398124
0
LWPOLYLINE
5
2D6
100
AcDbEntity
8
0
6
ByLayer
62
2
370
-1
100
AcDbPolyline
90
2
70
0
43
0
10
270.276134
20
233.507142
10
270.637906
20
233.357293
0
LWPOLYLINE
5
2D7
100
AcDbEntity
8
0
6
ByLayer
62
2
370
-1
100
AcDbPolyline
90
2
70
0
43
0
10
272.086795
20
233.745521
10
272.325171
20
234.05618
0
LWPOLYLINE
5
2D8
100
AcDbEntity
8
0
6
ByLayer
62
2
370
-1
100
AcDbPolyline
90
2
70
0
43
0
10
249.727099
20
235.556179
10
249.577248
20
235.19441
0
LWPOLYLINE
5
2D9
100
AcDbEntity
8
0
6
ByLayer
62
2
370
-1
100
AcDbPolyline
90
2
70
0
43
0
10
271.776134
20
233.507142
10
272.086795
20
233.745521
0
LWPOLYLINE
5
2DA
100
AcDbEntity
8
0
6
ByLayer
62
2
370
-1
100
AcDbPolyline
90
2
70
0
43
0
10
271.414364
20
233.357293
10
271.776134
20
233.507142
0
LWPOLYLINE
5
2DB
100
AcDbEntity
8
0
6
ByLayer
62
2
370
-1
100
AcDbPolyline
90
2
70
0
43
0
10
259.50403
20
249.634835
10
258.99086
20
249.532758
0
LWPOLYLINE
5
2DC
100
AcDbEntity
8
0
6
ByLayer
62
2
370
-1
100
AcDbPolyline
90
2
70
0
43
0
10
260.026136
20
249.669054
10
259.50403
20
249.634835
0
LWPOLYLINE
5
2DD
100
AcDbEntity
8
0
6
ByLayer
62
2
370
-1
100
AcDbPolyline
90
2
70
0
43
0
10
260.026136
20
249.669054
10
262.026135
20
249.669054
0
LWPOLYLINE
5
2DE
100
AcDbEntity
8
0
6
ByLayer
62
2
370
-1
100
AcDbPolyline
90
2
70
0
43
0
10
256.026135
20
222.669058
10
256.026135
20
245.669057
0
LWPOLYLINE
5
2DF
100
AcDbEntity
8
0
6
ByLayer
62
2
370
-1
100
AcDbPolyline
90
2
70
0
43
0
10
249.526137
20
234.80618
10
249.577248
20
234.417952
0
LWPOLYLINE
5
2E0
100
AcDbEntity
8
0
6
ByLayer
62
2
370
-1
100
AcDbPolyline
90
2
70
0
43
0
10
256.562033
20
220.669059
10
256.852722
20
220.234013
0
LWPOLYLINE
5
2E1
100
AcDbEntity
8
0
6
ByLayer
62
2
370
-1
100
AcDbPolyline
90
2
70
0
43
0
10
256.162432
20
246.704333
10
256.060358
20
246.191159
0
LWPOLYLINE
5
2E2
100
AcDbEntity
8
0
6
ByLayer
62
2
370
-1
100
AcDbPolyline
90
2
70
0
43
0
10
256.330617
20
247.199791
10
256.162432
20
246.704333
0
LWPOLYLINE
5
2E3
100
AcDbEntity
8
0
6
ByLayer
62
2
370
-1
100
AcDbPolyline
90
2
70
0
43
0
10
256.562033
20
247.669056
10
256.330617
20
247.199791
0
LWPOLYLINE
5
2E4
100
AcDbEntity
8
0
6
ByLayer
62
2
370
-1
100
AcDbPolyline
90
2
70
0
43
0
10
249.577248
20
235.19441
10
249.526137
20
234.80618
0
LWPOLYLINE
5
2E5
100
AcDbEntity
8
0
6
ByLayer
62
2
370
-1
100
AcDbPolyline
90
2
70
0
43
0
10
269.577247
20
235.19441
10
269.526134
20
234.80618
0
LWPOLYLINE
5
2E6
100
AcDbEntity
8
0
6
ByLayer
62
2
370
-1
100
AcDbPolyline
90
4
70
0
43
0
10
264.461182
20
248.842468
10
264.026136
20
249.133157
10
263.556869
20
249.364573
10
263.06141
20
249.532758
0
LWPOLYLINE
5
2E7
100
AcDbEntity
8
0
6
ByLayer
62
2
370
-1
100
AcDbPolyline
90
2
70
0
43
0
10
265.721654
20
247.199791
10
265.490238
20
247.669056
0
LWPOLYLINE
5
2E8
100
AcDbEntity
8
0
6
ByLayer
62
2
370
-1
100
AcDbPolyline
90
2
70
0
43
0
10
272.086795
20
235.866841
10
271.776134
20
236.105217
0
LWPOLYLINE
5
2E9
100
AcDbEntity
8
0
6
ByLayer
62
2
370
-1
100
AcDbPolyline
90
2
70
0
43
0
10
257.197708
20
219.840632
10
257.591089
20
219.495658
0
LWPOLYLINE
5
2EA
100
AcDbEntity
8
0
6
ByLayer
62
2
370
-1
100
AcDbPolyline
90
4
70
0
43
0
10
265.490238
20
247.669056
10
265.199549
20
248.104101
10
264.854563
20
248.497482
10
264.461182
20
248.842468
0
LWPOLYLINE
5
2EB
100
AcDbEntity
8
0
6
ByLayer
62
2
370
-1
100
AcDbPolyline
90
2
70
0
43
0
10
272.325171
20
235.556179
10
272.086795
20
235.866841
0
LWPOLYLINE
5
2EC
100
AcDbEntity
8
0
6
ByLayer
62
2
370
-1
100
AcDbPolyline
90
2
70
0
43
0
10
265.199549
20
220.234013
10
265.490238
20
220.669059
0
LWPOLYLINE
5
2ED
100
AcDbEntity
8
0
6
ByLayer
62
2
370
-1
100
AcDbPolyline
90
2
70
0
43
0
10
258.026134
20
249.133157
10
257.591089
20
248.842468
0
LWPOLYLINE
5
2EE
100
AcDbEntity
8
0
6
ByLayer
62
2
370
-1
100
AcDbPolyline
90
2
70
0
43
0
10
256.330617
20
221.138324
10
256.562033
20
220.669059
0
LWPOLYLINE
5
2EF
100
AcDbEntity
8
0
6
ByLayer
62
2
370
-1
100
AcDbPolyline
90
4
70
0
43
0
10
265.490238
20
220.669059
10
265.721654
20
221.138324
10
265.889839
20
221.633782
10
265.991916
20
222.146952
0
LWPOLYLINE
5
2F0
100
AcDbEntity
8
0
6
ByLayer
62
2
370
-1
100
AcDbPolyline
90
2
70
0
43
0
10
252.086796
20
235.866841
10
251.776137
20
236.105217
0
LWPOLYLINE
5
2F1
100
AcDbEntity
8
0
6
ByLayer
62
2
370
-1
100
AcDbPolyline
90
2
70
0
43
0
10
250.276137
20
236.105217
10
249.965475
20
235.866841
0
LWPOLYLINE
5
2F2
100
AcDbEntity
8
0
6
ByLayer
62
2
370
-1
100
AcDbPolyline
90
2
70
0
43
0
10
251.414365
20
236.255069
10
251.026137
20
236.306179
0
LWPOLYLINE
5
2F3
100
AcDbEntity
8
0
6
ByLayer
62
2
370
-1
100
AcDbPolyline
90
2
70
0
43
0
10
269.965475
20
233.745521
10
270.276134
20
233.507142
0
LWPOLYLINE
5
2F4
100
AcDbEntity
8
0
6
ByLayer
62
2
370
-1
100
AcDbPolyline
90
2
70
0
43
0
10
252.325175
20
235.556179
10
252.086796
20
235.866841
0
LWPOLYLINE
5
2F5
100
AcDbEntity
8
0
6
ByLayer
62
2
370
-1
100
AcDbPolyline
90
2
70
0
43
0
10
249.965475
20
235.866841
10
249.727099
20
235.556179
0
LWPOLYLINE
5
2F6
100
AcDbEntity
8
0
6
ByLayer
62
2
370
-1
100
AcDbPolyline
90
2
70
0
43
0
10
270.637906
20
236.255069
10
270.276134
20
236.105217
0
LWPOLYLINE
5
2F7
100
AcDbEntity
8
0
6
ByLayer
62
2
370
-1
100
AcDbPolyline
90
2
70
0
43
0
10
264.854563
20
219.840632
10
265.199549
20
220.234013
0
LWPOLYLINE
5
2F8
100
AcDbEntity
8
0
6
ByLayer
62
2
370
-1
100
AcDbPolyline
90
2
70
0
43
0
10
264.026136
20
219.204969
10
264.461182
20
219.495658
0
LWPOLYLINE
5
2F9
100
AcDbEntity
8
0
6
ByLayer
62
2
370
-1
100
AcDbPolyline
90
2
70
0
43
0
10
263.556869
20
218.973547
10
264.026136
20
219.204969
0
LWPOLYLINE
5
2FA
100
AcDbEntity
8
0
6
ByLayer
62
2
370
-1
100
AcDbPolyline
90
2
70
0
43
0
10
271.776134
20
236.105217
10
271.414364
20
236.255069
0
LWPOLYLINE
5
2FB
100
AcDbEntity
8
0
6
ByLayer
62
2
370
-1
100
AcDbPolyline
90
2
70
0
43
0
10
258.026134
20
219.204969
10
258.495402
20
218.973547
0
LWPOLYLINE
5
2FC
100
AcDbEntity
8
0
6
ByLayer
62
2
370
-1
100
AcDbPolyline
90
2
70
0
43
0
10
257.591089
20
219.495658
10
258.026134
20
219.204969
0
LWPOLYLINE
5
2FD
100
AcDbEntity
8
0
6
ByLayer
62
2
370
-1
100
AcDbPolyline
90
2
70
0
43
0
10
271.026134
20
236.306179
10
270.637906
20
236.255069
0
LWPOLYLINE
5
2FE
100
AcDbEntity
8
0
6
ByLayer
62
2
370
-1
100
AcDbPolyline
90
2
70
0
43
0
10
175.597035
20
256.53098
10
175.162935
20
256.351097
0
LWPOLYLINE
5
2FF
100
AcDbEntity
8
0
6
ByLayer
62
2
370
-1
100
AcDbPolyline
90
2
70
0
43
0
10
177.335767
20
256.065353
10
176.962935
20
256.351354
0
LWPOLYLINE
5
300
100
AcDbEntity
8
0
6
ByLayer
62
2
370
-1
100
AcDbPolyline
90
2
70
0
43
0
10
174.263157
20
254.792122
10
174.324558
20
254.326257
0
LWPOLYLINE
5
301
100
AcDbEntity
8
0
6
ByLayer
62
2
370
-1
100
AcDbPolyline
90
2
70
0
43
0
10
175.162935
20
256.351097
10
174.790185
20
256.064989
0
LWPOLYLINE
5
302
100
AcDbEntity
8
0
6
ByLayer
62
2
370
-1
100
AcDbPolyline
90
2
70
0
43
0
10
176.0629
20
256.59238
10
176.026143
20
256.587526
0
LWPOLYLINE
5
303
100
AcDbEntity
8
0
6
ByLayer
62
2
370
-1
100
AcDbPolyline
90
2
70
0
43
0
10
174.324425
20
214.278216
10
174.263157
20
213.812323
0
LWPOLYLINE
5
304
100
AcDbEntity
8
0
6
ByLayer
62
2
370
-1
100
AcDbPolyline
90
2
70
0
43
0
10
177.622132
20
212.912796
10
177.801891
20
213.346967
0
LWPOLYLINE
5
305
100
AcDbEntity
8
0
6
ByLayer
62
2
370
-1
100
AcDbPolyline
90
2
70
0
43
0
10
177.336131
20
212.539981
10
177.622132
20
212.912796
0
LWPOLYLINE
5
306
100
AcDbEntity
8
0
6
ByLayer
62
2
370
-1
100
AcDbPolyline
90
2
70
0
43
0
10
175.597532
20
212.073863
10
176.026143
20
212.017475
0
LWPOLYLINE
5
307
100
AcDbEntity
8
0
6
ByLayer
62
2
370
-1
100
AcDbPolyline
90
2
70
0
43
0
10
177.621875
20
214.71281
10
177.335767
20
215.085569
0
LWPOLYLINE
5
308
100
AcDbEntity
8
0
6
ByLayer
62
2
370
-1
100
AcDbPolyline
90
2
70
0
43
0
10
176.026143
20
252.997281
10
176.063416
20
252.992371
0
LWPOLYLINE
5
309
100
AcDbEntity
8
0
6
ByLayer
62
2
370
-1
100
AcDbPolyline
90
2
70
0
43
0
10
175.162935
20
215.371291
10
174.790185
20
215.085202
0
LWPOLYLINE
5
30A
100
AcDbEntity
8
0
6
ByLayer
62
2
370
-1
100
AcDbPolyline
90
2
70
0
43
0
10
174.50444
20
212.912373
10
174.790549
20
212.539614
0
LWPOLYLINE
5
30B
100
AcDbEntity
8
0
6
ByLayer
62
2
370
-1
100
AcDbPolyline
90
2
70
0
43
0
10
174.263157
20
213.812323
10
174.324558
20
213.346459
0
LWPOLYLINE
5
30C
100
AcDbEntity
8
0
6
ByLayer
62
2
370
-1
100
AcDbPolyline
90
2
70
0
43
0
10
177.336131
20
253.519771
10
177.622132
20
253.892603
0
LWPOLYLINE
5
30D
100
AcDbEntity
8
0
6
ByLayer
62
2
370
-1
100
AcDbPolyline
90
2
70
0
43
0
10
176.96338
20
253.233662
10
177.336131
20
253.519771
0
LWPOLYLINE
5
30E
100
AcDbEntity
8
0
6
ByLayer
62
2
370
-1
100
AcDbPolyline
90
2
70
0
43
0
10
176.52928
20
253.053779
10
176.96338
20
253.233662
0
LWPOLYLINE
5
30F
100
AcDbEntity
8
0
6
ByLayer
62
2
370
-1
100
AcDbPolyline
90
2
70
0
43
0
10
176.063416
20
252.992379
10
176.52928
20
253.053779
0
LWPOLYLINE
5
310
100
AcDbEntity
8
0
6
ByLayer
62
2
370
-1
100
AcDbPolyline
90
2
70
0
43
0
10
175.163381
20
253.233405
10
175.597532
20
253.053647
0
LWPOLYLINE
5
311
100
AcDbEntity
8
0
6
ByLayer
62
2
370
-1
100
AcDbPolyline
90
2
70
0
43
0
10
174.790549
20
253.519407
10
175.163381
20
253.233405
0
LWPOLYLINE
5
312
100
AcDbEntity
8
0
6
ByLayer
62
2
370
-1
100
AcDbPolyline
90
2
70
0
43
0
10
177.621875
20
255.692602
10
177.335767
20
256.065353
0
LWPOLYLINE
5
313
100
AcDbEntity
8
0
6
ByLayer
62
2
370
-1
100
AcDbPolyline
90
2
70
0
43
0
10
177.801758
20
255.258502
10
177.621875
20
255.692602
0
LWPOLYLINE
5
314
100
AcDbEntity
8
0
6
ByLayer
62
2
370
-1
100
AcDbPolyline
90
2
70
0
43
0
10
177.863159
20
254.792638
10
177.801758
20
255.258502
0
LWPOLYLINE
5
315
100
AcDbEntity
8
0
6
ByLayer
62
2
370
-1
100
AcDbPolyline
90
2
70
0
43
0
10
176.962935
20
256.351354
10
176.528784
20
256.531113
0
LWPOLYLINE
5
316
100
AcDbEntity
8
0
6
ByLayer
62
2
370
-1
100
AcDbPolyline
90
2
70
0
43
0
10
177.622132
20
253.892603
10
177.801891
20
254.326754
0
LWPOLYLINE
5
317
100
AcDbEntity
8
0
6
ByLayer
62
2
370
-1
100
AcDbPolyline
90
2
70
0
43
0
10
176.026143
20
215.607736
10
175.597035
20
215.551179
0
LWPOLYLINE
5
318
100
AcDbEntity
8
0
6
ByLayer
62
2
370
-1
100
AcDbPolyline
90
2
70
0
43
0
10
174.324425
20
255.258006
10
174.263157
20
254.792122
0
LWPOLYLINE
5
319
100
AcDbEntity
8
0
6
ByLayer
62
2
370
-1
100
AcDbPolyline
90
2
70
0
43
0
10
174.324558
20
254.326257
10
174.50444
20
253.892157
0
LWPOLYLINE
5
31A
100
AcDbEntity
8
0
6
ByLayer
62
2
370
-1
100
AcDbPolyline
90
3
70
0
43
0
10
100.637919
20
271.255067
10
100.276149
20
271.105215
10
99.965487
20
270.866839
0
LWPOLYLINE
5
31B
100
AcDbEntity
8
0
6
ByLayer
62
2
370
-1
100
AcDbPolyline
90
2
70
0
43
0
10
95.991928
20
258.29111
10
96.026148
20
258.813215
0
LWPOLYLINE
5
31C
100
AcDbEntity
8
0
6
ByLayer
62
2
370
-1
100
AcDbPolyline
90
2
70
0
43
0
10
99.57726
20
269.41795
10
99.727111
20
269.056177
0
LWPOLYLINE
5
31D
100
AcDbEntity
8
0
6
ByLayer
62
2
370
-1
100
AcDbPolyline
90
2
70
0
43
0
10
80.27615
20
271.105215
10
79.965491
20
270.866839
0
LWPOLYLINE
5
31E
100
AcDbEntity
8
0
6
ByLayer
62
2
370
-1
100
AcDbPolyline
90
2
70
0
43
0
10
95.889851
20
257.77794
10
95.991928
20
258.29111
0
LWPOLYLINE
5
31F
100
AcDbEntity
8
0
6
ByLayer
62
2
370
-1
100
AcDbPolyline
90
3
70
0
43
0
10
82.526149
20
269.806177
10
82.475039
20
270.194405
10
82.325187
20
270.556177
0
LWPOLYLINE
5
320
100
AcDbEntity
8
0
6
ByLayer
62
2
370
-1
100
AcDbPolyline
90
2
70
0
43
0
10
101.414377
20
271.255067
10
101.026149
20
271.306177
0
LWPOLYLINE
5
321
100
AcDbEntity
8
0
6
ByLayer
62
2
370
-1
100
AcDbPolyline
90
2
70
0
43
0
10
79.965491
20
270.866839
10
79.727112
20
270.556177
0
LWPOLYLINE
5
322
100
AcDbEntity
8
0
6
ByLayer
62
2
370
-1
100
AcDbPolyline
90
2
70
0
43
0
10
80.637922
20
271.255067
10
80.27615
20
271.105215
0
LWPOLYLINE
5
323
100
AcDbEntity
8
0
6
ByLayer
62
2
370
-1
100
AcDbPolyline
90
2
70
0
43
0
10
102.086808
20
270.866839
10
101.776149
20
271.105215
0
LWPOLYLINE
5
324
100
AcDbEntity
8
0
6
ByLayer
62
2
370
-1
100
AcDbPolyline
90
2
70
0
43
0
10
80.27615
20
268.507139
10
80.637922
20
268.357288
0
LWPOLYLINE
5
325
100
AcDbEntity
8
0
6
ByLayer
62
2
370
-1
100
AcDbPolyline
90
2
70
0
43
0
10
92.548253
20
254.847437
10
93.061426
20
254.949511
0
LWPOLYLINE
5
326
100
AcDbEntity
8
0
6
ByLayer
62
2
370
-1
100
AcDbPolyline
90
2
70
0
43
0
10
99.727111
20
269.056177
10
99.965487
20
268.745518
0
LWPOLYLINE
5
327
100
AcDbEntity
8
0
6
ByLayer
62
2
370
-1
100
AcDbPolyline
90
2
70
0
43
0
10
101.414377
20
268.357288
10
101.776149
20
268.507139
0
LWPOLYLINE
5
328
100
AcDbEntity
8
0
6
ByLayer
62
2
370
-1
100
AcDbPolyline
90
4
70
0
43
0
10
94.026149
20
255.349115
10
94.461195
20
255.639801
10
94.854576
20
255.984787
10
95.199561
20
256.378168
0
LWPOLYLINE
5
329
100
AcDbEntity
8
0
6
ByLayer
62
2
370
-1
100
AcDbPolyline
90
2
70
0
43
0
10
101.026149
20
271.306177
10
100.637919
20
271.255067
0
LWPOLYLINE
5
32A
100
AcDbEntity
8
0
6
ByLayer
62
2
370
-1
100
AcDbPolyline
90
2
70
0
43
0
10
95.721667
20
257.282482
10
95.889851
20
257.77794
0
LWPOLYLINE
5
32B
100
AcDbEntity
8
0
6
ByLayer
62
2
370
-1
100
AcDbPolyline
90
3
70
0
43
0
10
95.199561
20
256.378168
10
95.49025
20
256.813217
10
95.721667
20
257.282482
0
LWPOLYLINE
5
32C
100
AcDbEntity
8
0
6
ByLayer
62
2
370
-1
100
AcDbPolyline
90
2
70
0
43
0
10
101.026149
20
268.306177
10
101.414377
20
268.357288
0
LWPOLYLINE
5
32D
100
AcDbEntity
8
0
6
ByLayer
62
2
370
-1
100
AcDbPolyline
90
9
70
0
43
0
10
88.02615
20
285.277314
10
87.591104
20
284.986626
10
87.197723
20
284.64164
10
86.852735
20
284.248259
10
86.562049
20
283.813213
10
86.330632
20
283.343948
10
86.162447
20
282.84849
10
86.06037
20
282.335317
10
86.026148
20
281.813214
0
LWPOLYLINE
5
32E
100
AcDbEntity
8
0
6
ByLayer
62
2
370
-1
100
AcDbPolyline
90
4
70
0
43
0
10
95.991928
20
282.335317
10
95.889851
20
282.84849
10
95.721667
20
283.343948
10
95.49025
20
283.813213
0
LWPOLYLINE
5
32F
100
AcDbEntity
8
0
6
ByLayer
62
2
370
-1
100
AcDbPolyline
90
2
70
0
43
0
10
95.199561
20
284.248259
10
94.854576
20
284.64164
0
LWPOLYLINE
5
330
100
AcDbEntity
8
0
6
ByLayer
62
2
370
-1
100
AcDbPolyline
90
4
70
0
43
0
10
88.495415
20
255.117699
10
88.990873
20
254.949511
10
89.504043
20
254.847437
10
90.026149
20
254.813215
0
LWPOLYLINE
5
331
100
AcDbEntity
8
0
6
ByLayer
62
2
370
-1
100
AcDbPolyline
90
2
70
0
43
0
10
96.026148
20
281.813214
10
95.991928
20
282.335317
0
LWPOLYLINE
5
332
100
AcDbEntity
8
0
6
ByLayer
62
2
370
-1
100
AcDbPolyline
90
2
70
0
43
0
10
89.504043
20
285.778993
10
88.990873
20
285.676916
0
LWPOLYLINE
5
333
100
AcDbEntity
8
0
6
ByLayer
62
2
370
-1
100
AcDbPolyline
90
2
70
0
43
0
10
82.086811
20
268.745518
10
82.325187
20
269.056177
0
LWPOLYLINE
5
334
100
AcDbEntity
8
0
6
ByLayer
62
2
370
-1
100
AcDbPolyline
90
2
70
0
43
0
10
79.57726
20
270.194405
10
79.52615
20
269.806177
0
LWPOLYLINE
5
335
100
AcDbEntity
8
0
6
ByLayer
62
2
370
-1
100
AcDbPolyline
90
2
70
0
43
0
10
79.727112
20
269.056177
10
79.965491
20
268.745518
0
LWPOLYLINE
5
336
100
AcDbEntity
8
0
6
ByLayer
62
2
370
-1
100
AcDbPolyline
90
2
70
0
43
0
10
102.526149
20
269.806177
10
102.475036
20
270.194405
0
LWPOLYLINE
5
337
100
AcDbEntity
8
0
6
ByLayer
62
2
370
-1
100
AcDbPolyline
90
2
70
0
43
0
10
82.325187
20
269.056177
10
82.475039
20
269.41795
0
LWPOLYLINE
5
338
100
AcDbEntity
8
0
6
ByLayer
62
2
370
-1
100
AcDbPolyline
90
2
70
0
43
0
10
86.06037
20
258.29111
10
86.162447
20
257.77794
0
LWPOLYLINE
5
339
100
AcDbEntity
8
0
6
ByLayer
62
2
370
-1
100
AcDbPolyline
90
2
70
0
43
0
10
81.776149
20
271.105215
10
81.414377
20
271.255067
0
LWPOLYLINE
5
33A
100
AcDbEntity
8
0
6
ByLayer
62
2
370
-1
100
AcDbPolyline
90
2
70
0
43
0
10
82.086811
20
270.866839
10
81.776149
20
271.105215
0
LWPOLYLINE
5
33B
100
AcDbEntity
8
0
6
ByLayer
62
2
370
-1
100
AcDbPolyline
90
2
70
0
43
0
10
79.965491
20
268.745518
10
80.27615
20
268.507139
0
LWPOLYLINE
5
33C
100
AcDbEntity
8
0
6
ByLayer
62
2
370
-1
100
AcDbPolyline
90
2
70
0
43
0
10
79.727112
20
270.556177
10
79.57726
20
270.194405
0
LWPOLYLINE
5
33D
100
AcDbEntity
8
0
6
ByLayer
62
2
370
-1
100
AcDbPolyline
90
2
70
0
43
0
10
93.061426
20
254.949511
10
93.556881
20
255.117699
0
LWPOLYLINE
5
33E
100
AcDbEntity
8
0
6
ByLayer
62
2
370
-1
100
AcDbPolyline
90
2
70
0
43
0
10
90.026149
20
285.813212
10
92.026147
20
285.813212
0
LWPOLYLINE
5
33F
100
AcDbEntity
8
0
6
ByLayer
62
2
370
-1
100
AcDbPolyline
90
2
70
0
43
0
10
82.475039
20
269.41795
10
82.526149
20
269.806177
0
LWPOLYLINE
5
340
100
AcDbEntity
8
0
6
ByLayer
62
2
370
-1
100
AcDbPolyline
90
2
70
0
43
0
10
94.026149
20
285.277314
10
93.556881
20
285.508731
0
LWPOLYLINE
5
341
100
AcDbEntity
8
0
6
ByLayer
62
2
370
-1
100
AcDbPolyline
90
2
70
0
43
0
10
92.026147
20
254.813215
10
92.548253
20
254.847437
0
LWPOLYLINE
5
342
100
AcDbEntity
8
0
6
ByLayer
62
2
370
-1
100
AcDbPolyline
90
2
70
0
43
0
10
88.495415
20
285.508731
10
88.02615
20
285.277314
0
LWPOLYLINE
5
343
100
AcDbEntity
8
0
6
ByLayer
62
2
370
-1
100
AcDbPolyline
90
2
70
0
43
0
10
88.495415
20
185.110662
10
88.990873
20
184.942486
0
LWPOLYLINE
5
344
100
AcDbEntity
8
0
6
ByLayer
62
2
370
-1
100
AcDbPolyline
90
2
70
0
43
0
10
88.02615
20
185.342084
10
88.495415
20
185.110662
0
LWPOLYLINE
5
345
100
AcDbEntity
8
0
6
ByLayer
62
2
370
-1
100
AcDbPolyline
90
2
70
0
43
0
10
87.591104
20
185.632773
10
88.02615
20
185.342084
0
LWPOLYLINE
5
346
100
AcDbEntity
8
0
6
ByLayer
62
2
370
-1
100
AcDbPolyline
90
2
70
0
43
0
10
87.197723
20
185.977761
10
87.591104
20
185.632773
0
LWPOLYLINE
5
347
100
AcDbEntity
8
0
6
ByLayer
62
2
370
-1
100
AcDbPolyline
90
2
70
0
43
0
10
92.026147
20
184.806172
10
90.026149
20
184.806172
0
LWPOLYLINE
5
348
100
AcDbEntity
8
0
6
ByLayer
62
2
370
-1
100
AcDbPolyline
90
2
70
0
43
0
10
79.57726
20
200.194424
10
79.52615
20
199.806171
0
LWPOLYLINE
5
349
100
AcDbEntity
8
0
6
ByLayer
62
2
370
-1
100
AcDbPolyline
90
2
70
0
43
0
10
79.727112
20
200.556176
10
79.57726
20
200.194424
0
LWPOLYLINE
5
34A
100
AcDbEntity
8
0
6
ByLayer
62
2
370
-1
100
AcDbPolyline
90
2
70
0
43
0
10
95.889851
20
212.841451
10
95.721667
20
213.33692
0
LWPOLYLINE
5
34B
100
AcDbEntity
8
0
6
ByLayer
62
2
370
-1
100
AcDbPolyline
90
2
70
0
43
0
10
95.991928
20
212.328286
10
95.889851
20
212.841451
0
LWPOLYLINE
5
34C
100
AcDbEntity
8
0
6
ByLayer
62
2
370
-1
100
AcDbPolyline
90
2
70
0
43
0
10
96.026148
20
211.806175
10
95.991928
20
212.328286
0
LWPOLYLINE
5
34D
100
AcDbEntity
8
0
6
ByLayer
62
2
370
-1
100
AcDbPolyline
90
2
70
0
43
0
10
102.475036
20
199.417946
10
102.526149
20
199.806171
0
LWPOLYLINE
5
34E
100
AcDbEntity
8
0
6
ByLayer
62
2
370
-1
100
AcDbPolyline
90
2
70
0
43
0
10
79.965491
20
200.866846
10
79.727112
20
200.556176
0
LWPOLYLINE
5
34F
100
AcDbEntity
8
0
6
ByLayer
62
2
370
-1
100
AcDbPolyline
90
2
70
0
43
0
10
80.27615
20
201.105211
10
79.965491
20
200.866846
0
LWPOLYLINE
5
350
100
AcDbEntity
8
0
6
ByLayer
62
2
370
-1
100
AcDbPolyline
90
2
70
0
43
0
10
92.548253
20
184.840406
10
93.061426
20
184.942486
0
LWPOLYLINE
5
351
100
AcDbEntity
8
0
6
ByLayer
62
2
370
-1
100
AcDbPolyline
90
2
70
0
43
0
10
101.026149
20
201.306182
10
100.637919
20
201.255071
0
LWPOLYLINE
5
352
100
AcDbEntity
8
0
6
ByLayer
62
2
370
-1
100
AcDbPolyline
90
4
70
0
43
0
10
86.330632
20
187.275447
10
86.562049
20
186.806197
10
86.852735
20
186.371151
10
87.197723
20
185.977761
0
LWPOLYLINE
5
353
100
AcDbEntity
8
0
6
ByLayer
62
2
370
-1
100
AcDbPolyline
90
2
70
0
43
0
10
102.325187
20
200.556176
10
102.086808
20
200.866846
0
LWPOLYLINE
5
354
100
AcDbEntity
8
0
6
ByLayer
62
2
370
-1
100
AcDbPolyline
90
2
70
0
43
0
10
82.325187
20
200.556176
10
82.086811
20
200.866846
0
LWPOLYLINE
5
355
100
AcDbEntity
8
0
6
ByLayer
62
2
370
-1
100
AcDbPolyline
90
2
70
0
43
0
10
99.965487
20
200.866846
10
99.727111
20
200.556176
0
LWPOLYLINE
5
356
100
AcDbEntity
8
0
6
ByLayer
62
2
370
-1
100
AcDbPolyline
90
2
70
0
43
0
10
79.727112
20
199.056193
10
79.965491
20
198.745523
0
LWPOLYLINE
5
357
100
AcDbEntity
8
0
6
ByLayer
62
2
370
-1
100
AcDbPolyline
90
2
70
0
43
0
10
96.026148
20
211.806175
10
96.026148
20
188.806193
0
LWPOLYLINE
5
358
100
AcDbEntity
8
0
6
ByLayer
62
2
370
-1
100
AcDbPolyline
90
2
70
0
43
0
10
81.414377
20
198.357298
10
81.776149
20
198.507158
0
LWPOLYLINE
5
359
100
AcDbEntity
8
0
6
ByLayer
62
2
370
-1
100
AcDbPolyline
90
2
70
0
43
0
10
82.475039
20
200.194424
10
82.325187
20
200.556176
0
LWPOLYLINE
5
35A
100
AcDbEntity
8
0
6
ByLayer
62
2
370
-1
100
AcDbPolyline
90
2
70
0
43
0
10
99.727111
20
199.056193
10
99.965487
20
198.745523
0
LWPOLYLINE
5
35B
100
AcDbEntity
8
0
6
ByLayer
62
2
370
-1
100
AcDbPolyline
90
2
70
0
43
0
10
101.776149
20
201.105211
10
101.414377
20
201.255071
0
LWPOLYLINE
5
35C
100
AcDbEntity
8
0
6
ByLayer
62
2
370
-1
100
AcDbPolyline
90
2
70
0
43
0
10
86.562049
20
213.806171
10
86.330632
20
213.33692
0
LWPOLYLINE
5
35D
100
AcDbEntity
8
0
6
ByLayer
62
2
370
-1
100
AcDbPolyline
90
2
70
0
43
0
10
79.57726
20
199.417946
10
79.727112
20
199.056193
0
LWPOLYLINE
5
35E
100
AcDbEntity
8
0
6
ByLayer
62
2
370
-1
100
AcDbPolyline
90
2
70
0
43
0
10
70.242975
20
338.043763
10
70.615768
20
337.757708
0
LWPOLYLINE
5
35F
100
AcDbEntity
8
0
6
ByLayer
62
2
370
-1
100
AcDbPolyline
90
2
70
0
43
0
10
72.78856
20
338.043763
10
73.074615
20
338.416553
0
LWPOLYLINE
5
360
100
AcDbEntity
8
0
6
ByLayer
62
2
370
-1
100
AcDbPolyline
90
2
70
0
43
0
10
71.049893
20
341.055221
10
70.615768
20
340.8754
0
LWPOLYLINE
5
361
100
AcDbEntity
8
0
6
ByLayer
62
2
370
-1
100
AcDbPolyline
90
2
70
0
43
0
10
71.515769
20
341.116553
10
71.096505
20
341.056172
0
LWPOLYLINE
5
362
100
AcDbEntity
8
0
6
ByLayer
62
2
370
-1
100
AcDbPolyline
90
2
70
0
43
0
10
71.981641
20
341.055221
10
71.515769
20
341.116553
0
LWPOLYLINE
5
363
100
AcDbEntity
8
0
6
ByLayer
62
2
370
-1
100
AcDbPolyline
90
2
70
0
43
0
10
72.415767
20
340.8754
10
71.981641
20
341.055221
0
LWPOLYLINE
5
364
100
AcDbEntity
8
0
6
ByLayer
62
2
370
-1
100
AcDbPolyline
90
2
70
0
43
0
10
72.78856
20
340.589345
10
72.415767
20
340.8754
0
LWPOLYLINE
5
365
100
AcDbEntity
8
0
6
ByLayer
62
2
370
-1
100
AcDbPolyline
90
2
70
0
43
0
10
73.074615
20
340.216555
10
72.78856
20
340.589345
0
LWPOLYLINE
5
366
100
AcDbEntity
8
0
6
ByLayer
62
2
370
-1
100
AcDbPolyline
90
2
70
0
43
0
10
73.254435
20
339.782429
10
73.074615
20
340.216555
0
LWPOLYLINE
5
367
100
AcDbEntity
8
0
6
ByLayer
62
2
370
-1
100
AcDbPolyline
90
2
70
0
43
0
10
73.315768
20
339.316554
10
73.254435
20
339.782429
0
LWPOLYLINE
5
368
100
AcDbEntity
8
0
6
ByLayer
62
2
370
-1
100
AcDbPolyline
90
2
70
0
43
0
10
73.254435
20
338.850681
10
73.315768
20
339.316554
0
LWPOLYLINE
5
369
100
AcDbEntity
8
0
6
ByLayer
62
2
370
-1
100
AcDbPolyline
90
2
70
0
43
0
10
73.074615
20
338.416553
10
73.254435
20
338.850681
0
LWPOLYLINE
5
36A
100
AcDbEntity
8
0
6
ByLayer
62
2
370
-1
100
AcDbPolyline
90
2
70
0
43
0
10
69.874257
20
340.016984
10
69.777102
20
339.782429
0
LWPOLYLINE
5
36B
100
AcDbEntity
8
0
6
ByLayer
62
2
370
-1
100
AcDbPolyline
90
3
70
0
43
0
10
71.515769
20
337.516555
10
71.981641
20
337.577887
10
72.415767
20
337.757708
0
LWPOLYLINE
5
36C
100
AcDbEntity
8
0
6
ByLayer
62
2
370
-1
100
AcDbPolyline
90
2
70
0
43
0
10
71.049893
20
337.577887
10
71.515769
20
337.516555
0
LWPOLYLINE
5
36D
100
AcDbEntity
8
0
6
ByLayer
62
2
370
-1
100
AcDbPolyline
90
2
70
0
43
0
10
72.415767
20
337.757708
10
72.78856
20
338.043763
0
LWPOLYLINE
5
36E
100
AcDbEntity
8
0
6
ByLayer
62
2
370
-1
100
AcDbPolyline
90
2
70
0
43
0
10
70.615768
20
340.8754
10
70.242975
20
340.589345
0
LWPOLYLINE
5
36F
100
AcDbEntity
8
0
6
ByLayer
62
2
370
-1
100
AcDbPolyline
90
2
70
0
43
0
10
69.956923
20
340.216555
10
69.874257
20
340.016984
0
LWPOLYLINE
5
370
100
AcDbEntity
8
0
6
ByLayer
62
2
370
-1
100
AcDbPolyline
90
2
70
0
43
0
10
70.242975
20
340.589345
10
69.956923
20
340.216555
0
LWPOLYLINE
5
371
100
AcDbEntity
8
0
6
ByLayer
62
2
370
-1
100
AcDbPolyline
90
2
70
0
43
0
10
69.715769
20
339.316554
10
69.777102
20
338.850681
0
LWPOLYLINE
5
372
100
AcDbEntity
8
0
6
ByLayer
62
2
370
-1
100
AcDbPolyline
90
2
70
0
43
0
10
69.777102
20
339.782429
10
69.715769
20
339.316554
0
LWPOLYLINE
5
373
100
AcDbEntity
8
0
6
ByLayer
62
2
370
-1
100
AcDbPolyline
90
2
70
0
43
0
10
279.636516
20
337.757708
10
280.070642
20
337.577887
0
LWPOLYLINE
5
374
100
AcDbEntity
8
0
6
ByLayer
62
2
370
-1
100
AcDbPolyline
90
2
70
0
43
0
10
282.095361
20
338.416553
10
282.275167
20
338.850681
0
LWPOLYLINE
5
375
100
AcDbEntity
8
0
6
ByLayer
62
2
370
-1
100
AcDbPolyline
90
2
70
0
43
0
10
280.536515
20
337.516555
10
281.00239
20
337.577887
0
LWPOLYLINE
5
376
100
AcDbEntity
8
0
6
ByLayer
62
2
370
-1
100
AcDbPolyline
90
2
70
0
43
0
10
281.809309
20
340.589345
10
281.436516
20
340.8754
0
LWPOLYLINE
5
377
100
AcDbEntity
8
0
6
ByLayer
62
2
370
-1
100
AcDbPolyline
90
2
70
0
43
0
10
278.736515
20
339.316554
10
278.797851
20
338.850681
0
LWPOLYLINE
5
378
100
AcDbEntity
8
0
6
ByLayer
62
2
370
-1
100
AcDbPolyline
90
2
70
0
43
0
10
278.977671
20
338.416553
10
279.263723
20
338.043763
0
LWPOLYLINE
5
379
100
AcDbEntity
8
0
6
ByLayer
62
2
370
-1
100
AcDbPolyline
90
2
70
0
43
0
10
278.797851
20
339.782429
10
278.736515
20
339.316554
0
LWPOLYLINE
5
37A
100
AcDbEntity
8
0
6
ByLayer
62
2
370
-1
100
AcDbPolyline
90
2
70
0
43
0
10
280.536515
20
341.116553
10
280.070642
20
341.055221
0
LWPOLYLINE
5
37B
100
AcDbEntity
8
0
6
ByLayer
62
2
370
-1
100
AcDbPolyline
90
2
70
0
43
0
10
281.436516
20
337.757708
10
281.809309
20
338.043763
0
LWPOLYLINE
5
37C
100
AcDbEntity
8
0
6
ByLayer
62
2
370
-1
100
AcDbPolyline
90
2
70
0
43
0
10
279.263723
20
340.589345
10
278.977671
20
340.216555
0
LWPOLYLINE
5
37D
100
AcDbEntity
8
0
6
ByLayer
62
2
370
-1
100
AcDbPolyline
90
2
70
0
43
0
10
280.070642
20
341.055221
10
279.636516
20
340.8754
0
LWPOLYLINE
5
37E
100
AcDbEntity
8
0
6
ByLayer
62
2
370
-1
100
AcDbPolyline
90
2
70
0
43
0
10
279.263723
20
338.043763
10
279.636516
20
337.757708
0
LWPOLYLINE
5
37F
100
AcDbEntity
8
0
6
ByLayer
62
2
370
-1
100
AcDbPolyline
90
2
70
0
43
0
10
279.636516
20
340.8754
10
279.263723
20
340.589345
0
LWPOLYLINE
5
380
100
AcDbEntity
8
0
6
ByLayer
62
2
370
-1
100
AcDbPolyline
90
2
70
0
43
0
10
281.00239
20
337.577887
10
281.436516
20
337.757708
0
LWPOLYLINE
5
381
100
AcDbEntity
8
0
6
ByLayer
62
2
370
-1
100
AcDbPolyline
90
2
70
0
43
0
10
281.436516
20
128.736971
10
281.809309
20
129.023003
0
LWPOLYLINE
5
382
100
AcDbEntity
8
0
6
ByLayer
62
2
370
-1
100
AcDbPolyline
90
2
70
0
43
0
10
280.536515
20
128.495812
10
281.00239
20
128.557139
0
LWPOLYLINE
5
383
100
AcDbEntity
8
0
6
ByLayer
62
2
370
-1
100
AcDbPolyline
90
2
70
0
43
0
10
280.070642
20
128.557139
10
280.536515
20
128.495812
0
LWPOLYLINE
5
384
100
AcDbEntity
8
0
6
ByLayer
62
2
370
-1
100
AcDbPolyline
90
2
70
0
43
0
10
279.636516
20
128.736971
10
280.070642
20
128.557139
0
LWPOLYLINE
5
385
100
AcDbEntity
8
0
6
ByLayer
62
2
370
-1
100
AcDbPolyline
90
2
70
0
43
0
10
278.797851
20
129.829933
10
278.977671
20
129.395818
0
LWPOLYLINE
5
386
100
AcDbEntity
8
0
6
ByLayer
62
2
370
-1
100
AcDbPolyline
90
2
70
0
43
0
10
278.736515
20
130.295797
10
278.797851
20
129.829933
0
LWPOLYLINE
5
387
100
AcDbEntity
8
0
6
ByLayer
62
2
370
-1
100
AcDbPolyline
90
2
70
0
43
0
10
278.797851
20
130.761689
10
278.736515
20
130.295797
0
LWPOLYLINE
5
388
100
AcDbEntity
8
0
6
ByLayer
62
2
370
-1
100
AcDbPolyline
90
2
70
0
43
0
10
278.977671
20
131.195803
10
278.797851
20
130.761689
0
LWPOLYLINE
5
389
100
AcDbEntity
8
0
6
ByLayer
62
2
370
-1
100
AcDbPolyline
90
2
70
0
43
0
10
279.263723
20
131.568591
10
278.977671
20
131.195803
0
LWPOLYLINE
5
38A
100
AcDbEntity
8
0
6
ByLayer
62
2
370
-1
100
AcDbPolyline
90
3
70
0
43
0
10
280.070642
20
132.034483
10
279.636516
20
131.854651
10
279.263723
20
131.568591
0
LWPOLYLINE
5
38B
100
AcDbEntity
8
0
6
ByLayer
62
2
370
-1
100
AcDbPolyline
90
2
70
0
43
0
10
281.436516
20
131.854651
10
281.00239
20
132.034483
0
LWPOLYLINE
5
38C
100
AcDbEntity
8
0
6
ByLayer
62
2
370
-1
100
AcDbPolyline
90
2
70
0
43
0
10
281.809309
20
131.568591
10
281.436516
20
131.854651
0
LWPOLYLINE
5
38D
100
AcDbEntity
8
0
6
ByLayer
62
2
370
-1
100
AcDbPolyline
90
2
70
0
43
0
10
282.095361
20
131.195803
10
281.809309
20
131.568591
0
LWPOLYLINE
5
38E
100
AcDbEntity
8
0
6
ByLayer
62
2
370
-1
100
AcDbPolyline
90
2
70
0
43
0
10
282.275167
20
130.761689
10
282.095361
20
131.195803
0
LWPOLYLINE
5
38F
100
AcDbEntity
8
0
6
ByLayer
62
2
370
-1
100
AcDbPolyline
90
2
70
0
43
0
10
282.336522
20
130.295797
10
282.275167
20
130.761689
0
LWPOLYLINE
5
390
100
AcDbEntity
8
0
6
ByLayer
62
2
370
-1
100
AcDbPolyline
90
2
70
0
43
0
10
280.536515
20
132.09581
10
280.070642
20
132.034483
0
LWPOLYLINE
5
391
100
AcDbEntity
8
0
6
ByLayer
62
2
370
-1
100
AcDbPolyline
90
2
70
0
43
0
10
281.00239
20
132.034483
10
280.536515
20
132.09581
0
LWPOLYLINE
5
392
100
AcDbEntity
8
0
6
ByLayer
62
2
370
-1
100
AcDbPolyline
90
2
70
0
43
0
10
282.275167
20
129.829933
10
282.336522
20
130.295797
0
LWPOLYLINE
5
393
100
AcDbEntity
8
0
6
ByLayer
62
2
370
-1
100
AcDbPolyline
90
2
70
0
43
0
10
282.095361
20
129.395818
10
282.275167
20
129.829933
0
LWPOLYLINE
5
394
100
AcDbEntity
8
0
6
ByLayer
62
2
370
-1
100
AcDbPolyline
90
2
70
0
43
0
10
281.809309
20
129.023003
10
282.095361
20
129.395818
0
LWPOLYLINE
5
395
100
AcDbEntity
8
0
6
ByLayer
62
2
370
-1
100
AcDbPolyline
90
2
70
0
43
0
10
69.71588
20
130.336691
10
69.772002
20
129.870177
0
LWPOLYLINE
5
396
100
AcDbEntity
8
0
6
ByLayer
62
2
370
-1
100
AcDbPolyline
90
2
70
0
43
0
10
70.228821
20
129.058083
10
70.598391
20
128.767874
0
LWPOLYLINE
5
397
100
AcDbEntity
8
0
6
ByLayer
62
2
370
-1
100
AcDbPolyline
90
2
70
0
43
0
10
73.08458
20
131.199077
10
72.802713
20
131.575054
0
LWPOLYLINE
5
398
100
AcDbEntity
8
0
6
ByLayer
62
2
370
-1
100
AcDbPolyline
90
2
70
0
43
0
10
73.315655
20
130.296446
10
73.259535
20
130.762959
0
LWPOLYLINE
5
399
100
AcDbEntity
8
0
6
ByLayer
62
2
370
-1
100
AcDbPolyline
90
2
70
0
43
0
10
73.064452
20
129.399205
10
73.249115
20
129.831287
0
LWPOLYLINE
5
39A
100
AcDbEntity
8
0
6
ByLayer
62
2
370
-1
100
AcDbPolyline
90
2
70
0
43
0
10
69.782419
20
130.801849
10
69.71588
20
130.336691
0
LWPOLYLINE
5
39B
100
AcDbEntity
8
0
6
ByLayer
62
2
370
-1
100
AcDbPolyline
90
2
70
0
43
0
10
71.962171
20
128.572802
10
72.39828
20
128.747751
0
LWPOLYLINE
5
39C
100
AcDbEntity
8
0
6
ByLayer
62
2
370
-1
100
AcDbPolyline
90
2
70
0
43
0
10
69.772002
20
129.870177
10
69.946955
20
129.434059
0
LWPOLYLINE
5
39D
100
AcDbEntity
8
0
6
ByLayer
62
2
370
-1
100
AcDbPolyline
90
2
70
0
43
0
10
70.633257
20
131.885385
10
70.257289
20
131.60353
0
LWPOLYLINE
5
39E
100
AcDbEntity
8
0
6
ByLayer
62
2
370
-1
100
AcDbPolyline
90
2
70
0
43
0
10
72.774248
20
129.029635
10
73.064452
20
129.399205
0
LWPOLYLINE
5
39F
100
AcDbEntity
8
0
6
ByLayer
62
2
370
-1
100
AcDbPolyline
90
2
70
0
43
0
10
69.946955
20
129.434059
10
70.228821
20
129.058083
0
LWPOLYLINE
5
3A0
100
AcDbEntity
8
0
6
ByLayer
62
2
370
-1
100
AcDbPolyline
90
2
70
0
43
0
10
71.069367
20
132.060335
10
70.633257
20
131.885385
0
LWPOLYLINE
5
3A1
100
AcDbEntity
8
0
6
ByLayer
62
2
370
-1
100
AcDbPolyline
90
2
70
0
43
0
10
71.535897
20
132.116469
10
71.069367
20
132.060335
0
LWPOLYLINE
5
3A2
100
AcDbEntity
8
0
6
ByLayer
62
2
370
-1
100
AcDbPolyline
90
2
70
0
43
0
10
70.598391
20
128.767874
10
71.030479
20
128.583216
0
LWPOLYLINE
5
3A3
100
AcDbEntity
8
0
6
ByLayer
62
2
370
-1
100
AcDbPolyline
90
2
70
0
43
0
10
72.001055
20
132.049921
10
71.535897
20
132.116469
0
LWPOLYLINE
5
3A4
100
AcDbEntity
8
0
6
ByLayer
62
2
370
-1
100
AcDbPolyline
90
2
70
0
43
0
10
72.433143
20
131.865263
10
72.001055
20
132.049921
0
LWPOLYLINE
5
3A5
100
AcDbEntity
8
0
6
ByLayer
62
2
370
-1
100
AcDbPolyline
90
2
70
0
43
0
10
72.802713
20
131.575054
10
72.433143
20
131.865263
0
LWPOLYLINE
5
3A6
100
AcDbEntity
8
0
6
ByLayer
62
2
370
-1
100
AcDbPolyline
90
2
70
0
43
0
10
71.495641
20
128.516696
10
71.962171
20
128.572802
0
LWPOLYLINE
5
3A7
100
AcDbEntity
8
0
6
ByLayer
62
2
370
-1
100
AcDbPolyline
90
2
70
0
43
0
10
71.030479
20
128.583216
10
71.495641
20
128.516696
0
LWPOLYLINE
5
3A8
100
AcDbEntity
8
0
6
ByLayer
62
2
370
-1
100
AcDbPolyline
90
2
70
0
43
0
10
72.39828
20
128.747751
10
72.774248
20
129.029635
0
LWPOLYLINE
5
3A9
100
AcDbEntity
8
0
6
ByLayer
62
2
370
-1
100
AcDbPolyline
90
2
70
0
43
0
10
69.967086
20
131.23396
10
69.782419
20
130.801849
0
LWPOLYLINE
5
3AA
100
AcDbEntity
8
0
6
ByLayer
62
7
370
-1
100
AcDbPolyline
90
13
70
0
43
0
10
125.015958
20
368.863962
10
129.583448
20
367.747465
10
130.852195
20
366.986216
10
131.207445
20
365.971218
10
131.156696
20
364.803972
10
130.344697
20
363.738225
10
129.1267
20
363.027725
10
127.502703
20
362.875474
10
125.574208
20
363.230724
10
124.102461
20
364.144224
10
123.188961
20
365.717469
10
122.985962
20
366.580217
10
119.07822
20
366.22497
0
LWPOLYLINE
5
3AB
100
AcDbEntity
8
0
6
ByLayer
62
7
370
-1
100
AcDbPolyline
90
13
70
0
43
0
10
91.896503
20
379.20617
10
90.996502
20
379.50617
10
89.496502
20
379.706169
10
88.096502
20
379.806169
10
79.696502
20
379.806169
10
79.696502
20
359.806169
10
83.696502
20
359.806169
10
83.696502
20
376.40617
10
87.996502
20
376.40617
10
88.996503
20
376.206168
10
89.796501
20
375.806168
10
90.396503
20
375.20617
10
90.696502
20
374.606168
0
LWPOLYLINE
5
3AC
100
AcDbEntity
8
0
6
ByLayer
62
7
370
-1
100
AcDbPolyline
90
2
70
0
43
0
10
92.832044
20
359.810036
10
87.590466
20
367.406168
0
LWPOLYLINE
5
3AD
100
AcDbEntity
8
0
6
ByLayer
62
7
370
-1
100
AcDbPolyline
90
13
70
0
43
0
10
111.799833
20
367.855113
10
111.677461
20
366.141912
10
111.310347
20
364.404238
10
110.404797
20
363.523163
10
109.205559
20
363.009203
10
107.761574
20
362.911305
10
106.268644
20
363.156048
10
105.044929
20
363.890278
10
104.237276
20
365.113993
10
103.91911
20
367.022987
10
103.943579
20
374.977132
10
103.943585
20
379.798569
10
99.896501
20
379.80616
0
LWPOLYLINE
5
3AE
100
AcDbEntity
8
0
6
ByLayer
62
7
370
-1
100
AcDbPolyline
90
2
70
0
43
0
10
136.637683
20
359.779731
10
144.503916
20
379.72444
0
LWPOLYLINE
5
3AF
100
AcDbEntity
8
0
6
ByLayer
62
7
370
-1
100
AcDbPolyline
90
14
70
0
43
0
10
129.938698
20
371.705957
10
126.386206
20
372.619456
10
124.051712
20
373.634452
10
123.747211
20
374.547951
10
123.752602
20
375.309201
10
124.222521
20
376.014059
10
125.074228
20
376.513336
10
126.102147
20
376.777656
10
127.482498
20
376.836395
10
128.77474
20
376.630811
10
129.920136
20
375.984691
10
130.448781
20
375.132984
10
130.742473
20
373.840742
10
134.810689
20
374.091203
0
LWPOLYLINE
5
3B0
100
AcDbEntity
8
0
6
ByLayer
62
7
370
-1
100
AcDbPolyline
90
13
70
0
43
0
10
133.288191
20
378.049694
10
131.714946
20
379.166191
10
129.684949
20
379.92744
10
127.553452
20
380.07969
10
125.878706
20
380.07969
10
123.239713
20
379.470691
10
121.361968
20
378.303443
10
120.14397
20
376.476446
10
119.737971
20
375.15695
10
119.94097
20
373.177703
10
120.752969
20
371.401459
10
122.173963
20
370.132709
10
125.015958
20
368.863962
0
LWPOLYLINE
5
3B1
100
AcDbEntity
8
0
6
ByLayer
62
7
370
-1
100
AcDbPolyline
90
13
70
0
43
0
10
103.23383
20
360.400507
10
104.971506
20
359.764175
10
107.590254
20
359.421537
10
110.209003
20
359.617332
10
112.313793
20
360.278135
10
113.635403
20
361.134736
10
114.785696
20
362.260555
10
115.519925
20
364.306341
10
115.862566
20
367.071935
10
115.862566
20
370.987822
10
115.838097
20
379.798569
10
111.775359
20
379.798569
10
111.799827
20
367.855113
0
LWPOLYLINE
5
3B2
100
AcDbEntity
8
0
6
ByLayer
62
7
370
-1
100
AcDbPolyline
90
12
70
0
43
0
10
70.396504
20
376.206168
10
71.196505
20
375.806168
10
71.796504
20
375.20617
10
72.096503
20
374.606168
10
72.296505
20
373.80617
10
72.196503
20
372.906169
10
71.796504
20
372.10617
10
71.296505
20
371.506169
10
70.396504
20
371.00617
10
69.496505
20
370.80617
10
68.196505
20
370.80617
10
66.596506
20
370.80617
0
LWPOLYLINE
5
3B3
100
AcDbEntity
8
0
6
ByLayer
62
7
370
-1
100
AcDbPolyline
90
6
70
0
43
0
10
74.596504
20
378.306169
10
73.296503
20
379.20617
10
72.396505
20
379.50617
10
70.896503
20
379.706169
10
69.496505
20
379.806169
10
61.096505
20
379.806169
0
LWPOLYLINE
5
3B4
100
AcDbEntity
8
0
6
ByLayer
62
7
370
-1
100
AcDbPolyline
90
8
70
0
43
0
10
90.696502
20
374.606168
10
90.896502
20
373.80617
10
90.796502
20
372.906169
10
90.396503
20
372.10617
10
89.896501
20
371.506169
10
88.996503
20
371.00617
10
88.096502
20
370.80617
10
86.796502
20
370.80617
0
LWPOLYLINE
5
3B5
100
AcDbEntity
8
0
6
ByLayer
62
7
370
-1
100
AcDbPolyline
90
4
70
0
43
0
10
144.503916
20
379.72444
10
148.766908
20
379.72444
10
156.683891
20
359.830483
10
152.370152
20
359.881232
0
LWPOLYLINE
5
3B6
100
AcDbEntity
8
0
6
ByLayer
62
7
370
-1
100
AcDbPolyline
90
8
70
0
43
0
10
136.637683
20
359.779731
10
141.002176
20
359.779731
10
146.533912
20
375.055449
10
149.325158
20
367.747465
10
144.960667
20
367.696716
10
143.793419
20
364.397973
10
150.644654
20
364.397973
10
152.370152
20
359.881232
0
LWPOLYLINE
5
3B7
100
AcDbEntity
8
0
6
ByLayer
62
7
370
-1
100
AcDbPolyline
90
3
70
0
43
0
10
134.810689
20
374.091203
10
134.40469
20
376.070447
10
133.288191
20
378.049694
0
LWPOLYLINE
5
3B8
100
AcDbEntity
8
0
6
ByLayer
62
7
370
-1
100
AcDbPolyline
90
13
70
0
43
0
10
119.07822
20
366.22497
10
119.687219
20
363.941225
10
121.158968
20
361.555978
10
123.645713
20
360.033483
10
126.284705
20
359.475233
10
128.822202
20
359.576731
10
132.120945
20
360.38873
10
134.252439
20
362.266476
10
135.267438
20
364.194973
10
135.267438
20
366.732467
10
134.556937
20
368.762463
10
132.932943
20
370.538711
10
129.938698
20
371.705957
0
LWPOLYLINE
5
3B9
100
AcDbEntity
8
0
6
ByLayer
62
7
370
-1
100
AcDbPolyline
90
13
70
0
43
0
10
66.596506
20
370.80617
10
66.596506
20
367.406168
10
69.496505
20
367.406168
10
71.196505
20
367.506171
10
73.196504
20
368.10617
10
74.696503
20
369.106171
10
75.596504
20
370.206168
10
76.196503
20
371.506169
10
76.396503
20
372.806169
10
76.396503
20
374.506168
10
76.096503
20
376.006168
10
75.396505
20
377.306168
10
74.596504
20
378.306169
0
LWPOLYLINE
5
3BA
100
AcDbEntity
8
0
6
ByLayer
62
7
370
-1
100
AcDbPolyline
90
5
70
0
43
0
10
92.832044
20
359.810036
10
97.706507
20
359.810036
10
93.525481
20
366.458884
10
92.566905
20
367.41746
10
91.796503
20
368.10617
0
LWPOLYLINE
5
3BB
100
AcDbEntity
8
0
6
ByLayer
62
7
370
-1
100
AcDbPolyline
90
2
70
0
43
0
10
85.196502
20
367.406168
10
87.590466
20
367.406168
0
LWPOLYLINE
5
3BC
100
AcDbEntity
8
0
6
ByLayer
62
7
370
-1
100
AcDbPolyline
90
7
70
0
43
0
10
99.896501
20
379.806169
10
99.856377
20
368.819664
10
100.076646
20
365.197469
10
100.468235
20
363.533219
10
101.055619
20
362.333977
10
101.985643
20
361.232633
10
103.23383
20
360.400507
0
LWPOLYLINE
5
3BD
100
AcDbEntity
8
0
6
ByLayer
62
7
370
-1
100
AcDbPolyline
90
3
70
0
43
0
10
86.796502
20
370.80617
10
85.196502
20
370.80617
10
85.196502
20
367.406168
0
LWPOLYLINE
5
3BE
100
AcDbEntity
8
0
6
ByLayer
62
7
370
-1
100
AcDbPolyline
90
10
70
0
43
0
10
91.796503
20
368.10617
10
93.296503
20
369.106171
10
94.196501
20
370.206168
10
94.796503
20
371.506169
10
94.996502
20
372.806169
10
94.996502
20
374.506168
10
94.696503
20
376.006168
10
93.996502
20
377.306168
10
93.196503
20
378.306169
10
91.896503
20
379.20617
0
LWPOLYLINE
5
3BF
100
AcDbEntity
8
0
6
ByLayer
62
7
370
-1
100
AcDbPolyline
90
6
70
0
43
0
10
61.096505
20
379.806169
10
61.096505
20
359.806169
10
65.096506
20
359.806169
10
65.096506
20
376.40617
10
69.396506
20
376.40617
10
70.396504
20
376.206168
0
LWPOLYLINE
5
3C0
100
AcDbEntity
8
0
6
ByLayer
62
7
370
-1
100
AcDbPolyline
90
2
70
0
43
0
10
296.096492
20
59.806197
10
286.096484
20
59.806197
0
ARC
5
3C1
100
AcDbEntity
8
0
6
ByLayer
62
256
370
-1
100
AcDbCircle
10
276.0964875
20
39.740648
40
4
100
AcDbArc
50
180
51
0
0
ARC
5
3C2
100
AcDbEntity
8
0
6
ByLayer
62
256
370
-1
100
AcDbCircle
10
106.096501
20
39.740648
40
4
100
AcDbArc
50
180
51
0
0
LINE
5
3C3
100
AcDbEntity
8
0
6
ByLayer
62
256
370
-1
100
AcDbLine
10
102.096501
20
39.740648
11
102.096501
21
54.806207
0
LINE
5
3C4
100
AcDbEntity
8
0
6
ByLayer
62
256
370
-1
100
AcDbLine
10
110.096501
20
39.740648
11
110.096501
21
54.806207
0
LINE
5
3C5
100
AcDbEntity
8
0
6
ByLayer
62
256
370
-1
100
AcDbLine
10
272.0964875
20
39.740648
11
272.0964875
21
54.806207
0
LINE
5
3C6
100
AcDbEntity
8
0
6
ByLayer
62
256
370
-1
100
AcDbLine
10
280.0964875
20
39.740648
11
280.0964875
21
54.806207
0
LINE
5
3C7
100
AcDbEntity
8
0
6
ByLayer
62
256
370
-1
100
AcDbLine
10
280.0964875
20
54.806207
11
285.0964875
21
59.806207
0
LINE
5
3C8
100
AcDbEntity
8
0
6
ByLayer
62
256
370
-1
100
AcDbLine
10
285.0964875
20
59.806207
11
286.096484
21
59.806197
0
LINE
5
3C9
100
AcDbEntity
8
0
6
ByLayer
62
256
370
-1
100
AcDbLine
10
272.0964875
20
54.806207
11
267.0964875
21
59.806207
0
LINE
5
3CA
100
AcDbEntity
8
0
6
ByLayer
62
256
370
-1
100
AcDbLine
10
267.0964875
20
59.806207
11
266.096488
21
59.806197
0
LINE
5
3CB
100
AcDbEntity
8
0
6
ByLayer
62
256
370
-1
100
AcDbLine
10
110.096501
20
54.806207
11
115.096501
21
59.806207
0
LINE
5
3CC
100
AcDbEntity
8
0
6
ByLayer
62
256
370
-1
100
AcDbLine
10
115.096501
20
59.806207
11
116.0965
21
59.806197
0
LINE
5
3CD
100
AcDbEntity
8
0
6
ByLayer
62
256
370
-1
100
AcDbLine
10
102.096501
20
54.806207
11
97.096501
21
59.806207
0
LINE
5
3CE
100
AcDbEntity
8
0
6
ByLayer
62
256
370
-1
100
AcDbLine
10
97.096501
20
59.806207
11
86.096503
21
59.806197
0
ENDSEC
0
SECTION
2
OBJECTS
0
DICTIONARY
5
C
330
0
100
AcDbDictionary
281
1
3
ACAD_GROUP
350
D
0
DICTIONARY
5
D
330
C
100
AcDbDictionary
281
1
0
ENDSEC
0
EOF
