999
dxfrw 0.5.11
0
SECTION
2
HEADER
9
$ACADVER
1
AC1021
9
$HANDSEED
5
20000
9
$DWGCODEPAGE
3
ANSI_1252
9
$INSBASE
10
0
20
0
30
0
9
$EXTMIN
10
6.096499
20
19.798851
30
0
9
$EXTMAX
10
602.217744
20
443.368474237
30
0
9
$LIMMIN
10
0
20
0
9
$LIMMAX
10
420
20
297
9
$ORTHOMODE
70
0
9
$LTSCALE
40
1
9
$TEXTSTYLE
7
STANDARD
9
$CLAYER
8
0
9
$DIMASZ
40
2.5
9
$DIMLFAC
40
1
9
$DIMSCALE
40
1
9
$DIMEXO
40
0.625
9
$DIMEXE
40
1.25
9
$DIMTXT
40
2.5
9
$DIMTSZ
40
0
9
$DIMAUNIT
70
0
9
$DIMADEC
70
0
9
$DIMLUNIT
70
2
9
$DIMSTYLE
2
Standard
9
$DIMGAP
40
0.625
9
$DIMTIH
70
0
9
$LUNITS
70
2
9
$LUPREC
70
4
9
$AUNITS
70
0
9
$AUPREC
70
2
9
$SPLINESEGS
70
8
9
$GRIDMODE
70
0
9
$SNAPSTYLE
70
0
9
$PINSBASE
10
0
20
0
30
0
9
$PLIMMIN
10
0
20
0
9
$PLIMMAX
10
210
20
297
9
$INSUNITS
70
4
9
$PSVPSCALE
40
1
0
ENDSEC
0
SECTION
2
CLASSES
0
ENDSEC
0
SECTION
2
TABLES
0
TABLE
2
VPORT
5
8
330
0
100
AcDbSymbolTable
70
1
0
VPORT
5
31
330
2
100
AcDbSymbolTableRecord
100
AcDbViewportTableRecord
2
*ACTIVE
70
0
10
0
20
0
11
1
21
1
12
297.790119038
22
269.25932919
13
0
23
0
14
10
24
10
15
10
25
10
16
0
26
0
36
1
17
0
27
0
37
0
40
666.015625513
41
1.03882195448
42
50
43
0
44
0
50
0
51
0
71
0
72
100
73
1
74
3
75
0
76
0
77
0
78
0
281
0
65
1
110
0
120
0
130
0
111
1
121
0
131
0
112
0
122
1
132
0
79
0
146
0
348
10020
60
7
61
5
292
1
282
1
141
0
142
0
63
250
421
3358443
0
ENDTAB
0
TABLE
2
LTYPE
5
5
330
0
100
AcDbSymbolTable
70
4
0
LTYPE
5
14
330
5
100
AcDbSymbolTableRecord
100
AcDbLinetypeTableRecord
2
ByBlock
70
0
3

72
65
73
0
40
0
0
LTYPE
5
15
330
5
100
AcDbSymbolTableRecord
100
AcDbLinetypeTableRecord
2
ByLayer
70
0
3

72
65
73
0
40
0
0
LTYPE
5
16
330
5
100
AcDbSymbolTableRecord
100
AcDbLinetypeTableRecord
2
Continuous
70
0
3
Solid line
72
65
73
0
40
0
0
LTYPE
5
32
330
5
100
AcDbSymbolTableRecord
100
AcDbLinetypeTableRecord
2
DOT
70
0
3
Dot . . . . . . . . . . . . . . . . . . . . . .
72
65
73
2
40
6.35
49
0
74
0
49
-6.35
74
0
0
LTYPE
5
33
330
5
100
AcDbSymbolTableRecord
100
AcDbLinetypeTableRecord
2
DOT2
70
0
3
Dot (.5x) .....................................
72
65
73
2
40
3.175
49
0
74
0
49
-3.175
74
0
0
LTYPE
5
34
330
5
100
AcDbSymbolTableRecord
100
AcDbLinetypeTableRecord
2
DOTX2
70
0
3
Dot (2x) .  .  .  .  .  .  .  .  .  .  .  .  .
72
65
73
2
40
12.7
49
0
74
0
49
-12.7
74
0
0
LTYPE
5
35
330
5
100
AcDbSymbolTableRecord
100
AcDbLinetypeTableRecord
2
DASHED
70
0
3
Dot . . . . . . . . . . . . . . . . . . . . . .
72
65
73
2
40
19.05
49
12.7
74
0
49
-6.35
74
0
0
LTYPE
5
36
330
5
100
AcDbSymbolTableRecord
100
AcDbLinetypeTableRecord
2
DASHED2
70
0
3
Dashed (.5x) _ _ _ _ _ _ _ _ _ _ _ _ _ _ _ _ _
72
65
73
2
40
9.525
49
6.35
74
0
49
-3.175
74
0
0
LTYPE
5
37
330
5
100
AcDbSymbolTableRecord
100
AcDbLinetypeTableRecord
2
DASHEDX2
70
0
3
Dashed (2x) ____  ____  ____  ____  ____  ___
72
65
73
2
40
38.1
49
25.4
74
0
49
-12.7
74
0
0
LTYPE
5
38
330
5
100
AcDbSymbolTableRecord
100
AcDbLinetypeTableRecord
2
DASHDOT
70
0
3
Dash dot __ . __ . __ . __ . __ . __ . __ . __
72
65
73
4
40
25.4
49
12.7
74
0
49
-6.35
74
0
49
0
74
0
49
-6.35
74
0
0
LTYPE
5
39
330
5
100
AcDbSymbolTableRecord
100
AcDbLinetypeTableRecord
2
DASHDOT2
70
0
3
Dash dot (.5x) _._._._._._._._._._._._._._._.
72
65
73
4
40
12.7
49
6.35
74
0
49
-3.175
74
0
49
0
74
0
49
-3.175
74
0
0
LTYPE
5
3A
330
5
100
AcDbSymbolTableRecord
100
AcDbLinetypeTableRecord
2
DASHDOTX2
70
0
3
Dash dot (2x) ____  .  ____  .  ____  .  ___
72
65
73
4
40
50.8
49
25.4
74
0
49
-12.7
74
0
49
0
74
0
49
-12.7
74
0
0
LTYPE
5
3B
330
5
100
AcDbSymbolTableRecord
100
AcDbLinetypeTableRecord
2
DIVIDE
70
0
3
Divide ____ . . ____ . . ____ . . ____ . . ____
72
65
73
6
40
31.75
49
12.7
74
0
49
-6.35
74
0
49
0
74
0
49
-6.35
74
0
49
0
74
0
49
-6.35
74
0
0
LTYPE
5
3C
330
5
100
AcDbSymbolTableRecord
100
AcDbLinetypeTableRecord
2
DIVIDE2
70
0
3
Divide (.5x) __..__..__..__..__..__..__..__.._
72
65
73
6
40
15.875
49
6.35
74
0
49
-3.175
74
0
49
0
74
0
49
-3.175
74
0
49
0
74
0
49
-3.175
74
0
0
LTYPE
5
3D
330
5
100
AcDbSymbolTableRecord
100
AcDbLinetypeTableRecord
2
DIVIDEX2
70
0
3
Divide (2x) ________  .  .  ________  .  .  _
72
65
73
6
40
63.5
49
25.4
74
0
49
-12.7
74
0
49
0
74
0
49
-12.7
74
0
49
0
74
0
49
-12.7
74
0
0
LTYPE
5
3E
330
5
100
AcDbSymbolTableRecord
100
AcDbLinetypeTableRecord
2
BORDER
70
0
3
Border __ __ . __ __ . __ __ . __ __ . __ __ .
72
65
73
6
40
44.45
49
12.7
74
0
49
-6.35
74
0
49
12.7
74
0
49
-6.35
74
0
49
0
74
0
49
-6.35
74
0
0
LTYPE
5
3F
330
5
100
AcDbSymbolTableRecord
100
AcDbLinetypeTableRecord
2
BORDER2
70
0
3
Border (.5x) __.__.__.__.__.__.__.__.__.__.__.
72
65
73
6
40
22.225
49
6.35
74
0
49
-3.175
74
0
49
6.35
74
0
49
-3.175
74
0
49
0
74
0
49
-3.175
74
0
0
LTYPE
5
40
330
5
100
AcDbSymbolTableRecord
100
AcDbLinetypeTableRecord
2
BORDERX2
70
0
3
Border (2x) ____  ____  .  ____  ____  .  ___
72
65
73
6
40
88.9
49
25.4
74
0
49
-12.7
74
0
49
25.4
74
0
49
-12.7
74
0
49
0
74
0
49
-12.7
74
0
0
LTYPE
5
41
330
5
100
AcDbSymbolTableRecord
100
AcDbLinetypeTableRecord
2
CENTER
70
0
3
Center ____ _ ____ _ ____ _ ____ _ ____ _ ____
72
65
73
4
40
50.8
49
31.75
74
0
49
-6.35
74
0
49
6.35
74
0
49
-6.35
74
0
0
LTYPE
5
42
330
5
100
AcDbSymbolTableRecord
100
AcDbLinetypeTableRecord
2
CENTER2
70
0
3
Center (.5x) ___ _ ___ _ ___ _ ___ _ ___ _ ___
72
65
73
4
40
28.575
49
19.05
74
0
49
-3.175
74
0
49
3.175
74
0
49
-3.175
74
0
0
LTYPE
5
43
330
5
100
AcDbSymbolTableRecord
100
AcDbLinetypeTableRecord
2
CENTERX2
70
0
3
Center (2x) ________  __  ________  __  _____
72
65
73
4
40
101.6
49
63.5
74
0
49
-12.7
74
0
49
12.7
74
0
49
-12.7
74
0
0
ENDTAB
0
TABLE
2
LAYER
5
2
330
0
100
AcDbSymbolTable
70
1
0
LAYER
5
10
330
2
100
AcDbSymbolTableRecord
100
AcDbLayerTableRecord
2
0
70
0
62
7
6
CONTINUOUS
370
-3
390
F
0
ENDTAB
0
TABLE
2
STYLE
5
3
330
0
100
AcDbSymbolTable
70
3
0
STYLE
5
44
330
2
100
AcDbSymbolTableRecord
100
AcDbTextStyleTableRecord
2
Standard
70
0
40
0
41
1
50
0
71
0
42
1
3
txt
4

0
ENDTAB
0
TABLE
2
VIEW
5
6
330
0
100
AcDbSymbolTable
70
0
0
ENDTAB
0
TABLE
2
UCS
5
7
330
0
100
AcDbSymbolTable
70
0
0
ENDTAB
0
TABLE
2
APPID
5
9
330
0
100
AcDbSymbolTable
70
1
0
APPID
5
12
330
9
100
AcDbSymbolTableRecord
100
AcDbRegAppTableRecord
2
ACAD
70
0
0
ENDTAB
0
TABLE
2
DIMSTYLE
5
A
330
0
100
AcDbSymbolTable
70
1
100
AcDbDimStyleTable
71
1
0
DIMSTYLE
105
45
330
A
100
AcDbSymbolTableRecord
100
AcDbDimStyleTableRecord
2
Standard
70
0
40
1
41
2.5
42
0.625
43
0.38
44
1.25
45
0
46
0
47
0
48
0
140
2.5
141
0.09
142
0
143
25.4
144
1
145
0
146
1
147
0.625
148
0
71
0
72
0
73
0
74
1
75
0
76
0
77
0
78
0
79
0
170
0
171
2
172
0
173
0
174
0
175
0
176
0
177
0
178
0
179
0
271
4
272
4
273
2
274
2
275
0
276
0
277
2
278
46
279
0
280
0
281
0
282
0
283
1
284
0
285
0
286
0
288
0
289
3
340
Standard
341

371
-2
372
-2
0
ENDTAB
0
TABLE
2
BLOCK_RECORD
5
1
330
0
100
AcDbSymbolTable
70
2
0
BLOCK_RECORD
5
1F
330
1
100
AcDbSymbolTableRecord
100
AcDbBlockTableRecord
2
*Model_Space
70
0
280
1
281
0
0
BLOCK_RECORD
5
1E
330
1
100
AcDbSymbolTableRecord
100
AcDbBlockTableRecord
2
*Paper_Space
70
0
280
1
281
0
0
ENDTAB
0
ENDSEC
0
SECTION
2
BLOCKS
0
BLOCK
5
20
330
1F
100
AcDbEntity
8
0
100
AcDbBlockBegin
2
*Model_Space
70
0
10
0
20
0
30
0
3
*Model_Space
1

0
ENDBLK
5
21
330
1F
100
AcDbEntity
8
0
100
AcDbBlockEnd
0
BLOCK
5
1C
330
1B
100
AcDbEntity
8
0
100
AcDbBlockBegin
2
*Paper_Space
70
0
10
0
20
0
30
0
3
*Paper_Space
1

0
ENDBLK
5
1D
330
1F
100
AcDbEntity
8
0
100
AcDbBlockEnd
0
ENDSEC
0
SECTION
2
ENTITIES
0
CIRCLE
5
46
100
AcDbEntity
8
0
6
ByLayer
62
256
370
-1
100
AcDbCircle
10
16.100952
20
379.819648
40
1.79999901835
0
CIRCLE
5
47
100
AcDbEntity
8
0
6
ByLayer
62
256
370
-1
100
AcDbCircle
10
36.119401
20
379.819648
40
1.80000201835
0
CIRCLE
5
48
100
AcDbEntity
8
0
6
ByLayer
62
256
370
-1
100
AcDbCircle
10
49.1217415
20
359.8011995
40
1.80000051828
0
CIRCLE
5
49
100
AcDbEntity
8
0
6
ByLayer
62
256
370
-1
100
AcDbCircle
10
333.108526
20
359.7945855
40
1.79999480159
0
CIRCLE
5
4A
100
AcDbEntity
8
0
6
ByLayer
62
256
370
-1
100
AcDbCircle
10
346.099737
20
379.796528
40
1.79999901835
0
CIRCLE
5
4B
100
AcDbEntity
8
0
6
ByLayer
62
256
370
-1
100
AcDbCircle
10
366.074071
20
379.829544
40
1.79999901849
0
CIRCLE
5
4C
100
AcDbEntity
8
0
6
ByLayer
62
256
370
-1
100
AcDbCircle
10
49.1217415
20
204.803056
40
1.80000051792
0
CIRCLE
5
4D
100
AcDbEntity
8
0
6
ByLayer
62
256
370
-1
100
AcDbCircle
10
333.095755
20
204.805907
40
1.79999901792
0
CIRCLE
5
4E
100
AcDbEntity
8
0
6
ByLayer
62
256
370
-1
100
AcDbCircle
10
366.089537
20
59.752433
40
1.79999901792
0
CIRCLE
5
4F
100
AcDbEntity
8
0
6
ByLayer
62
256
370
-1
100
AcDbCircle
10
346.110687
20
59.797222
40
1.79999901792
0
CIRCLE
5
50
100
AcDbEntity
8
0
6
ByLayer
62
256
370
-1
100
AcDbCircle
10
356.100112
20
39.773583
40
1.79999901792
0
CIRCLE
5
51
100
AcDbEntity
8
0
6
ByLayer
62
256
370
-1
100
AcDbCircle
10
333.0964745
20
44.806198
40
1.7992795
0
CIRCLE
5
52
100
AcDbEntity
8
0
6
ByLayer
62
256
370
-1
100
AcDbCircle
10
326.096475
20
25.806208
40
1.799999
0
CIRCLE
5
53
100
AcDbEntity
8
0
6
ByLayer
62
256
370
-1
100
AcDbCircle
10
236.096491
20
25.806208
40
1.799999
0
CIRCLE
5
54
100
AcDbEntity
8
0
6
ByLayer
62
256
370
-1
100
AcDbCircle
10
146.0964975
20
25.806208
40
1.8000005
0
CIRCLE
5
55
100
AcDbEntity
8
0
6
ByLayer
62
256
370
-1
100
AcDbCircle
10
56.0965055
20
25.806208
40
1.8000005
0
CIRCLE
5
56
100
AcDbEntity
8
0
6
ByLayer
62
256
370
-1
100
AcDbCircle
10
49.079692
20
44.816499
40
1.79999901792
0
CIRCLE
5
57
100
AcDbEntity
8
0
6
ByLayer
62
256
370
-1
100
AcDbCircle
10
26.072315
20
39.813038
40
1.79999901792
0
CIRCLE
5
58
100
AcDbEntity
8
0
6
ByLayer
62
256
370
-1
100
AcDbCircle
10
16.065392
20
59.826883
40
1.79999901792
0
CIRCLE
5
59
100
AcDbEntity
8
0
6
ByLayer
62
256
370
-1
100
AcDbCircle
10
36.0792425
20
59.826883
40
1.80000351792
0
CIRCLE
5
5A
100
AcDbEntity
8
0
6
ByLayer
62
256
370
-1
100
AcDbCircle
10
71.5157675
20
130.3165685
40
1.79999997991
0
CIRCLE
5
5B
100
AcDbEntity
8
0
6
ByLayer
62
256
370
-1
100
AcDbCircle
10
280.5365185
20
130.295797
40
1.8000035
0
CIRCLE
5
5C
100
AcDbEntity
8
0
6
ByLayer
62
256
370
-1
100
AcDbCircle
10
81.0261495
20
199.806171
40
1.4999995
0
CIRCLE
5
5D
100
AcDbEntity
8
0
6
ByLayer
62
256
370
-1
100
AcDbCircle
10
101.026149
20
199.806171
40
1.5
0
CIRCLE
5
5E
100
AcDbEntity
8
0
6
ByLayer
62
256
370
-1
100
AcDbCircle
10
81.0261495
20
269.806177
40
1.4999995
0
CIRCLE
5
5F
100
AcDbEntity
8
0
6
ByLayer
62
256
370
-1
100
AcDbCircle
10
101.026149
20
269.806177
40
1.5
0
CIRCLE
5
60
100
AcDbEntity
8
0
6
ByLayer
62
256
370
-1
100
AcDbCircle
10
176.063158
20
254.79238
40
1.80000101849
0
CIRCLE
5
61
100
AcDbEntity
8
0
6
ByLayer
62
256
370
-1
100
AcDbCircle
10
176.063158
20
213.812577
40
1.80000101792
0
CIRCLE
5
62
100
AcDbEntity
8
0
6
ByLayer
62
256
370
-1
100
AcDbCircle
10
271.0261335
20
234.80618
40
1.4999995
0
CIRCLE
5
63
100
AcDbEntity
8
0
6
ByLayer
62
256
370
-1
100
AcDbCircle
10
251.026137
20
234.80618
40
1.5
0
CIRCLE
5
64
100
AcDbEntity
8
0
6
ByLayer
62
256
370
-1
100
AcDbCircle
10
280.5365185
20
339.316554
40
1.8000035
0
CIRCLE
5
65
100
AcDbEntity
8
0
6
ByLayer
62
256
370
-1
100
AcDbCircle
10
71.5157685
20
339.316554
40
1.7999995
0
LWPOLYLINE
5
66
100
AcDbEntity
8
0
6
ByLayer
62
256
370
-1
100
AcDbPolyline
90
70
70
1
43
0
10
581.369509
20
42.594194
10
581.369509
20
40.794138
10
585.952515
20
40.794138
10
585.952515
20
42.594194
10
596.736085
20
42.594194
10
596.736085
20
21.798926
10
461.222739
20
21.798926
10
459.425492
20
19.798851
10
441.452875
20
19.798851
10
436.959728
20
24.799067
10
436.959728
20
40.399662
10
441.453
20
45.8001
10
504.357
20
45.8001
42
1
10
504.357
20
53.8001
10
441.453
20
53.8001
10
436.959728
20
59.200415
10
436.959728
20
66.800707
10
573.910883
20
389.813506
10
596.736085
20
389.813506
10
596.736085
20
380.455909
10
602.217744
20
380.455909
10
602.217744
20
371.65556
10
596.736085
20
371.65556
10
596.736085
20
362.097379
10
585.952515
20
362.097379
10
585.952515
20
363.897449
10
581.369509
20
363.897449
10
581.369509
20
362.097379
10
577.774985
20
362.097379
10
577.774985
20
357.697205
10
581.369509
20
357.697205
10
581.369509
20
355.897132
10
585.952515
20
355.897132
10
585.952515
20
357.697205
10
596.736085
20
357.697205
10
596.736085
20
348.154631
10
602.217744
20
348.154631
10
602.217744
20
339.354281
10
596.736085
20
339.354281
10
596.736085
20
225.356993
10
602.217744
20
225.356993
10
602.217744
20
216.556638
10
596.736085
20
216.556638
10
596.736085
20
207.00628
10
585.952515
20
207.00628
10
585.952515
20
208.806339
10
581.369509
20
208.806339
10
581.369509
20
207.00628
10
577.774985
20
207.00628
10
577.774985
20
202.606094
10
581.369509
20
202.606094
10
581.369509
20
200.806036
10
585.952515
20
200.806036
10
585.952515
20
202.606094
10
596.736085
20
202.606094
10
596.736085
20
193.055708
10
602.217744
20
193.055708
10
602.217744
20
184.255362
10
596.736085
20
184.255362
10
596.736085
20
65.35059
10
602.217744
20
65.35059
10
602.217744
20
56.550244
10
596.736085
20
56.550244
10
596.736085
20
46.994383
10
585.952515
20
46.994383
10
585.952515
20
48.794441
10
581.369509
20
48.794441
10
581.369509
20
46.994383
10
577.774985
20
46.994383
10
577.774985
20
42.594194
0
LWPOLYLINE
5
67
100
AcDbEntity
8
0
6
ByLayer
62
256
370
-1
100
AcDbPolyline
90
4
70
1
43
0
10
578.820195
20
25.799105
10
571.634761
20
25.799105
42
-1
10
571.634761
20
33.799407
10
578.820195
20
33.799407
42
-1
0
LWPOLYLINE
5
68
100
AcDbEntity
8
0
6
ByLayer
62
256
370
-1
100
AcDbPolyline
90
4
70
1
43
0
10
412.887668
20
375.876634
42
1
10
412.887668
20
383.876951
10
405.642177
20
383.876951
42
1
10
405.642177
20
375.876634
0
LWPOLYLINE
5
69
100
AcDbEntity
8
0
6
ByLayer
62
256
370
-1
100
AcDbPolyline
90
70
70
1
43
0
10
547.502616
20
369.27637
10
543.009
20
363.876
10
480.105
20
363.876
42
0.999948751318
10
480.10541
20
355.8759995
10
543.009497
20
355.8759995
10
547.502616
20
350.475626
10
547.502616
20
342.875325
10
410.551461
20
19.862552
10
387.726287
20
19.862552
10
387.726287
20
29.22014
10
382.244656
20
29.22014
10
382.244656
20
38.02049
10
387.726287
20
38.02049
10
387.726287
20
47.578662
10
398.509829
20
47.578662
10
398.509829
20
45.778606
10
403.092864
20
45.778606
10
403.092864
20
47.578662
10
406.687359
20
47.578662
10
406.687359
20
51.978851
10
403.092864
20
51.978851
10
403.092864
20
53.778909
10
398.509829
20
53.778909
10
398.509829
20
51.978851
10
387.726287
20
51.978851
10
387.726287
20
61.521416
10
382.244656
20
61.521416
10
382.244656
20
70.321765
10
387.726287
20
70.321765
10
387.726287
20
184.319062
10
382.244656
20
184.319062
10
382.244656
20
193.119409
10
387.726287
20
193.119409
10
387.726287
20
202.669767
10
398.509829
20
202.669767
10
398.509829
20
200.869708
10
403.092864
20
200.869708
10
403.092864
20
202.669767
10
406.687359
20
202.669767
10
406.687359
20
207.069952
10
403.092864
20
207.069952
10
403.092864
20
208.870011
10
398.509829
20
208.870011
10
398.509829
20
207.069952
10
387.726287
20
207.069952
10
387.726287
20
216.620338
10
382.244656
20
216.620338
10
382.244656
20
225.420676
10
387.726287
20
225.420676
10
387.726287
20
344.325442
10
382.244656
20
344.325442
10
382.244656
20
353.125789
10
387.726287
20
353.125789
10
387.726287
20
362.68167
10
398.509829
20
362.68167
10
398.509829
20
360.881597
10
403.092864
20
360.881597
10
403.092864
20
362.68167
10
406.687359
20
362.68167
10
406.687359
20
367.081844
10
403.092864
20
367.081844
10
403.092864
20
368.881914
10
398.509829
20
368.881914
10
398.509829
20
367.081844
10
387.726287
20
367.081844
10
387.726287
20
387.877109
10
523.239633
20
387.877109
10
525.036881
20
389.877187
10
543.009497
20
389.877187
10
547.502616
20
384.876991
0
LWPOLYLINE
5
6A
100
AcDbEntity
8
0
6
ByLayer
62
256
370
-1
100
AcDbPolyline
90
4
70
1
43
0
10
329.846488
20
380.548941
10
329.846488
20
371.548939
10
336.34649
20
371.548939
10
336.34649
20
380.548941
0
LWPOLYLINE
5
6B
100
AcDbEntity
8
0
6
ByLayer
62
256
370
-1
100
AcDbPolyline
90
4
70
1
43
0
10
329.846488
20
348.248944
10
336.34649
20
348.248944
10
336.34649
20
339.248945
10
329.846488
20
339.248945
0
LWPOLYLINE
5
6C
100
AcDbEntity
8
0
6
ByLayer
62
256
370
-1
100
AcDbPolyline
90
12
70
1
43
0
10
6.096499
20
384.806167
10
6.096499
20
24.61444
10
11.096517
20
19.806192
10
31.096506
20
19.806192
10
33.096502
20
21.806188
10
349.096471
20
21.806188
10
351.096467
20
19.806192
10
371.096484
20
19.806192
10
376.096474
20
24.80621
10
376.096474
20
384.806167
10
371.096484
20
389.806169
10
11.096517
20
389.806169
0
LWPOLYLINE
5
6D
100
AcDbEntity
8
0
6
ByLayer
62
256
370
-1
100
AcDbPolyline
90
4
70
1
43
0
10
329.846488
20
216.456181
10
336.34649
20
216.456181
10
336.34649
20
225.45618
10
329.846488
20
225.45618
0
LWPOLYLINE
5
6E
100
AcDbEntity
8
0
6
ByLayer
62
256
370
-1
100
AcDbPolyline
90
4
70
1
43
0
10
329.846488
20
193.156197
10
336.34649
20
193.156197
10
336.34649
20
184.156186
10
329.846488
20
184.156186
0
LWPOLYLINE
5
6F
100
AcDbEntity
8
0
6
ByLayer
62
256
370
-1
100
AcDbPolyline
90
4
70
1
43
0
10
359.723295
20
25.84301
42
0.991604216895
10
359.656436
20
33.843022
10
351.66046
20
33.843022
42
0.999996499983
10
351.66046
20
25.84301
0
LWPOLYLINE
5
70
100
AcDbEntity
8
0
6
ByLayer
62
256
370
-1
100
AcDbPolyline
90
4
70
1
43
0
10
336.34649
20
56.456134
10
336.34649
20
65.456144
10
329.846488
20
65.456144
10
329.846488
20
56.456134
0
LWPOLYLINE
5
71
100
AcDbEntity
8
0
6
ByLayer
62
256
370
-1
100
AcDbPolyline
90
24
70
1
43
0
10
285.0964875
20
59.806207
10
316.096481
20
59.806197
10
321.096471
20
64.806187
10
321.096471
20
344.806171
10
316.096481
20
349.806173
10
66.096504
20
349.806173
10
61.096505
20
344.806171
10
61.096505
20
64.806187
10
66.096504
20
59.806197
10
97.096501
20
59.806207
10
102.096501
20
54.806207
10
102.096501
20
39.740648
42
1
10
110.096501
20
39.740648
10
110.096501
20
54.806207
10
115.096501
20
59.806207
10
161.096497
20
59.806197
10
186.096495
20
34.80619
10
196.096495
20
34.80619
10
221.096493
20
59.806197
10
267.0964875
20
59.806207
10
272.0964875
20
54.806207
10
272.0964875
20
39.740648
42
1
10
280.0964875
20
39.740648
10
280.0964875
20
54.806207
0
LWPOLYLINE
5
72
100
AcDbEntity
8
0
6
ByLayer
62
256
370
-1
100
AcDbPolyline
90
4
70
1
43
0
10
22.122968
20
33.843022
42
0.999996499983
10
22.122968
20
25.84301
10
30.1858029999
20
25.84301
42
0.991604342937
10
30.118945
20
33.843022
0
LWPOLYLINE
5
73
100
AcDbEntity
8
0
6
ByLayer
62
256
370
-1
100
AcDbPolyline
90
4
70
1
43
0
10
45.846506
20
65.456144
10
52.346504
20
65.456144
10
52.346504
20
56.456134
10
45.846506
20
56.456134
0
LWPOLYLINE
5
74
100
AcDbEntity
8
0
6
ByLayer
62
256
370
-1
100
AcDbPolyline
90
4
70
1
43
0
10
52.346504
20
193.156197
10
52.346504
20
184.156186
10
45.846506
20
184.156186
10
45.846506
20
193.156197
0
LWPOLYLINE
5
75
100
AcDbEntity
8
0
6
ByLayer
62
256
370
-1
100
AcDbPolyline
90
4
70
1
43
0
10
52.346504
20
216.456181
10
52.346504
20
225.45618
10
45.846506
20
225.45618
10
45.846506
20
216.456181
0
LWPOLYLINE
5
76
100
AcDbEntity
8
0
6
ByLayer
62
256
370
-1
100
AcDbPolyline
90
4
70
1
43
0
10
45.846506
20
371.548939
10
52.346504
20
371.548939
10
52.346504
20
380.548941
10
45.846506
20
380.548941
0
LWPOLYLINE
5
77
100
AcDbEntity
8
0
6
ByLayer
62
256
370
-1
100
AcDbPolyline
90
4
70
1
43
0
10
52.346504
20
348.248944
10
52.346504
20
339.248945
10
45.846506
20
339.248945
10
45.846506
20
348.248944
0
LWPOLYLINE
5
78
100
AcDbEntity
8
0
6
ByLayer
62
256
370
-1
100
AcDbPolyline
90
36
70
1
43
0
10
86.026148
20
317.806174
10
86.026148
20
297.806175
10
76.026151
20
287.806175
10
76.026151
20
249.806178
10
86.026148
20
239.806181
10
86.026148
20
229.806181
10
76.026151
20
219.806181
10
76.026151
20
181.806178
10
86.026148
20
171.806198
10
86.026148
20
151.806182
10
66.026151
20
131.806194
10
66.026151
20
127.806202
10
69.026151
20
124.806179
10
73.026151
20
124.806179
10
98.026149
20
149.806186
10
254.026137
20
149.806186
10
279.026135
20
124.806179
10
283.026132
20
124.806179
10
286.026126
20
127.806202
10
286.026126
20
131.806194
10
246.026136
20
171.806198
10
246.026136
20
191.806187
10
276.026135
20
221.80618
10
276.026135
20
247.806179
10
246.026136
20
277.806178
10
246.026136
20
297.806175
10
286.026126
20
337.806171
10
286.026126
20
341.806172
10
283.026132
20
344.806171
10
279.026135
20
344.806171
10
254.026137
20
319.806173
10
98.026149
20
319.806173
10
73.026151
20
344.806171
10
69.026151
20
344.806171
10
66.026151
20
341.806172
10
66.026151
20
337.806171
0
LWPOLYLINE
5
79
100
AcDbEntity
8
0
6
ByLayer
62
256
370
-1
100
AcDbPolyline
90
4
70
1
43
0
10
108.026146
20
309.806173
10
244.026137
20
309.806173
10
204.026141
20
269.806177
10
148.026145
20
269.806177
0
LWPOLYLINE
5
7A
100
AcDbEntity
8
0
6
ByLayer
62
256
370
-1
100
AcDbPolyline
90
8
70
1
43
0
10
156.026144
20
229.806181
10
136.026144
20
209.806179
10
116.026147
20
209.806179
10
96.026148
20
229.806181
10
96.026148
20
239.806181
10
116.026147
20
259.806178
10
136.096499
20
259.806178
10
156.026144
20
239.806181
0
LWPOLYLINE
5
7B
100
AcDbEntity
8
0
6
ByLayer
62
256
370
-1
100
AcDbPolyline
90
8
70
1
43
0
10
86.026148
20
281.813214
10
86.026148
20
258.813215
42
0.414213635597
10
90.026149
20
254.813215
10
92.026147
20
254.813215
42
0.414213635597
10
96.026148
20
258.813215
10
96.026148
20
281.813214
42
0.414213635597
10
92.026147
20
285.813212
10
90.026149
20
285.813212
42
0.414213415926
0
LWPOLYLINE
5
7C
100
AcDbEntity
8
0
6
ByLayer
62
256
370
-1
100
AcDbPolyline
90
8
70
1
43
0
10
96.026148
20
211.806175
10
96.0261469999
20
188.806193
42
-0.414215100063
10
92.026147
20
184.806172
10
90.026149
20
184.806193
42
-0.414213635597
10
86.026148
20
188.806193
10
86.026148
20
211.806175
42
-0.414213635596
10
90.026149
20
215.806195
10
92.026147
20
215.806175
42
-0.414213635596
0
LWPOLYLINE
5
7D
100
AcDbEntity
8
0
6
ByLayer
62
256
370
-1
100
AcDbPolyline
90
8
70
1
43
0
10
216.026139
20
259.806178
10
226.026139
20
259.806178
10
246.026136
20
239.806181
10
246.026136
20
229.806181
10
226.026139
20
209.806179
10
216.026139
20
209.806179
10
196.02614
20
229.806181
10
196.02614
20
239.806181
0
LWPOLYLINE
5
7E
100
AcDbEntity
8
0
6
ByLayer
62
256
370
-1
100
AcDbPolyline
90
8
70
1
43
0
10
262.026135
20
218.669057
42
0.414213635596
10
266.026135
20
222.669058
10
266.026135
20
245.669057
42
0.414213562373
10
262.026135
20
249.669054
10
260.026136
20
249.669057
42
0.414213635597
10
256.026135
20
245.669057
10
256.026136
20
222.669058
42
0.414213635597
10
260.026136
20
218.669057
0
LWPOLYLINE
5
7F
100
AcDbEntity
8
0
6
ByLayer
62
256
370
-1
100
AcDbPolyline
90
4
70
1
43
0
10
244.096489
20
159.806194
10
108.026146
20
159.806194
10
148.026145
20
199.806171
10
204.096493
20
199.806171
0
ENDSEC
0
SECTION
2
OBJECTS
0
DICTIONARY
5
C
330
0
100
AcDbDictionary
281
1
3
ACAD_GROUP
350
D
0
DICTIONARY
5
D
330
C
100
AcDbDictionary
281
1
0
ENDSEC
0
EOF
